<?xml version="1.0" encoding="UTF-8"?><svg version="1.1" width="30px" height="20px" viewBox="0 0 30.0 20.0" xmlns="http://www.w3.org/2000/svg" xmlns:xlink="http://www.w3.org/1999/xlink"><defs><clipPath id="i0"><path d="M1350,0 L1350,760 L0,760 L0,0 L1350,0 Z"></path></clipPath><clipPath id="i1"><path d="M30,0 L30,20 L0,20 L0,0 L30,0 Z"></path></clipPath><clipPath id="i2"><path d="M30,0 L30,1.53843077 L0,1.53843077 L0,0 L30,0 Z"></path></clipPath><clipPath id="i3"><path d="M30,0 L30,1.53843077 L0,1.53843077 L0,0 L30,0 Z"></path></clipPath><clipPath id="i4"><path d="M30,0 L30,1.53846154 L0,1.53846154 L0,0 L30,0 Z"></path></clipPath><clipPath id="i5"><path d="M30,0 L30,1.53846154 L0,1.53846154 L0,0 L30,0 Z"></path></clipPath><clipPath id="i6"><path d="M30,0 L30,1.53846154 L0,1.53846154 L0,0 L30,0 Z"></path></clipPath><clipPath id="i7"><path d="M14.82,0 L14.82,10.7692308 L0,10.7692308 L0,0 L14.82,0 Z"></path></clipPath><clipPath id="i8"><path d="M12.856212,8.63999385 L12.991,9.065 L13.4274,9.06564 L13.074,9.328 L13.20924,9.75435692 L12.856,9.491 L12.50319,9.75435385 L12.638,9.329 L12.285,9.06564 L12.721,9.065 L12.856212,8.63999385 Z M10.399215,8.63999385 L10.534,9.065 L10.970403,9.06564 L10.617,9.328 L10.752243,9.75435692 L10.399,9.491 L10.046193,9.75435385 L10.181,9.328 L9.828003,9.06564 L10.264,9.065 L10.399215,8.63999385 Z M7.942218,8.63999385 L8.077,9.065 L8.513406,9.06564 L8.16,9.328 L8.295231,9.75435692 L7.942,9.491 L7.589181,9.75435385 L7.724,9.328 L7.371006,9.06564 L7.807,9.065 L7.942218,8.63999385 Z M5.485206,8.63999385 L5.62,9.065 L6.056409,9.06564 L5.703,9.328 L5.838234,9.75435692 L5.485,9.491 L5.132184,9.75435385 L5.267,9.328 L4.914009,9.06564 L5.35,9.065 L5.485206,8.63999385 Z M3.028209,8.63999385 L3.163,9.065 L3.599397,9.06564 L3.246,9.328 L3.381237,9.75435692 L3.028,9.491 L2.675187,9.75435385 L2.81,9.329 L2.456997,9.06564 L2.893,9.065 L3.028209,8.63999385 Z M0.571212,8.63999385 L0.706,9.065 L1.1424,9.06564 L0.789,9.328 L0.92424,9.75435692 L0.571,9.491 L0.21819,9.75435385 L0.353,9.328 L0,9.06564 L0.436,9.065 L0.571212,8.63999385 Z M11.627706,7.55999077 L11.762,7.985 L12.198909,7.98563692 L11.845,8.248 L11.980734,8.67435385 L11.627,8.411 L11.274684,8.67435077 L11.409,8.248 L11.056509,7.98563692 L11.492,7.985 L11.627706,7.55999077 Z M9.170709,7.55999077 L9.305,7.985 L9.741897,7.98563692 L9.388,8.248 L9.523737,8.67435385 L9.17,8.411 L8.817687,8.67435077 L8.952,8.248 L8.599497,7.98563692 L9.035,7.985 L9.170709,7.55999077 Z M6.713712,7.55999077 L6.848,7.985 L7.2849,7.98563692 L6.931,8.248 L7.06674,8.67435385 L6.713,8.411 L6.36069,8.67435077 L6.495,8.248 L6.1425,7.98563692 L6.578,7.985 L6.713712,7.55999077 Z M4.256715,7.55999077 L4.391,7.985 L4.827903,7.98563692 L4.474,8.248 L4.609743,8.67435385 L4.256,8.411 L3.903693,8.67435077 L4.038,8.248 L3.685503,7.98563692 L4.121,7.985 L4.256715,7.55999077 Z M1.799718,7.55999077 L1.934,7.985 L2.370906,7.98563692 L2.017,8.248 L2.152731,8.67435385 L1.799,8.411 L1.446681,8.67435077 L1.581,8.248 L1.228506,7.98563692 L1.664,7.985 L1.799718,7.55999077 Z M12.856212,6.48000308 L12.991,6.905 L13.4274,6.90564923 L13.074,7.168 L13.20924,7.59435077 L12.856,7.331 L12.50319,7.59434769 L12.638,7.169 L12.285,6.90564923 L12.721,6.905 L12.856212,6.48000308 Z M10.399215,6.48000308 L10.534,6.905 L10.970403,6.90564923 L10.617,7.168 L10.752243,7.59435077 L10.399,7.331 L10.046193,7.59434769 L10.181,7.168 L9.828003,6.90564923 L10.264,6.905 L10.399215,6.48000308 Z M7.942218,6.48000308 L8.077,6.905 L8.513406,6.90564923 L8.16,7.168 L8.295231,7.59435077 L7.942,7.331 L7.589181,7.59434769 L7.724,7.168 L7.371006,6.90564923 L7.807,6.905 L7.942218,6.48000308 Z M5.485206,6.48000308 L5.62,6.905 L6.056409,6.90564923 L5.703,7.168 L5.838234,7.59435077 L5.485,7.331 L5.132184,7.59434769 L5.267,7.168 L4.914009,6.90564923 L5.35,6.905 L5.485206,6.48000308 Z M3.028209,6.48000308 L3.163,6.905 L3.599397,6.90564923 L3.246,7.168 L3.381237,7.59435077 L3.028,7.331 L2.675187,7.59434769 L2.81,7.169 L2.456997,6.90564923 L2.893,6.905 L3.028209,6.48000308 Z M0.571212,6.48000308 L0.706,6.905 L1.1424,6.90564923 L0.789,7.168 L0.92424,7.59435077 L0.571,7.331 L0.21819,7.59434769 L0.353,7.168 L0,6.90564923 L0.436,6.905 L0.571212,6.48000308 Z M11.627706,5.4 L11.762,5.825 L12.198909,5.82564615 L11.845,6.088 L11.980734,6.51434769 L11.627,6.251 L11.274684,6.51434462 L11.409,6.088 L11.056509,5.82564615 L11.492,5.825 L11.627706,5.4 Z M9.170709,5.4 L9.305,5.825 L9.741897,5.82564615 L9.388,6.088 L9.523737,6.51434769 L9.17,6.251 L8.817687,6.51434462 L8.952,6.088 L8.599497,5.82564615 L9.035,5.825 L9.170709,5.4 Z M6.713712,5.4 L6.848,5.825 L7.2849,5.82564615 L6.931,6.088 L7.06674,6.51434769 L6.713,6.251 L6.36069,6.51434462 L6.495,6.088 L6.1425,5.82564615 L6.578,5.825 L6.713712,5.4 Z M4.256715,5.4 L4.391,5.825 L4.827903,5.82564615 L4.474,6.088 L4.609743,6.51434769 L4.256,6.251 L3.903693,6.51434462 L4.038,6.088 L3.685503,5.82564615 L4.121,5.825 L4.256715,5.4 Z M1.799718,5.4 L1.934,5.825 L2.370906,5.82564615 L2.017,6.088 L2.152731,6.51434769 L1.799,6.251 L1.446681,6.51434462 L1.581,6.088 L1.228506,5.82564615 L1.664,5.825 L1.799718,5.4 Z M0.571212,4.31999692 L0.706,4.745 L1.1424,4.74564308 L0.789,5.008 L0.92424,5.43436 L0.571,5.171 L0.21819,5.43434154 L0.353,5.008 L0,4.74564308 L0.436,4.745 L0.571212,4.31999692 Z M3.028209,4.31999692 L3.163,4.745 L3.599397,4.74564308 L3.246,5.008 L3.381237,5.43436 L3.028,5.171 L2.675187,5.43434154 L2.81,5.009 L2.456997,4.74564308 L2.893,4.745 L3.028209,4.31999692 Z M5.485206,4.31999692 L5.62,4.745 L6.056409,4.74564308 L5.703,5.008 L5.838234,5.43436 L5.485,5.171 L5.132184,5.43434154 L5.267,5.008 L4.914009,4.74564308 L5.35,4.745 L5.485206,4.31999692 Z M7.942218,4.31999692 L8.077,4.745 L8.513406,4.74564308 L8.16,5.008 L8.295231,5.43436 L7.942,5.171 L7.589181,5.43434154 L7.724,5.008 L7.371006,4.74564308 L7.807,4.745 L7.942218,4.31999692 Z M10.399215,4.31999692 L10.534,4.745 L10.970403,4.74564308 L10.617,5.008 L10.752243,5.43436 L10.399,5.171 L10.046193,5.43434154 L10.181,5.008 L9.828003,4.74564308 L10.264,4.745 L10.399215,4.31999692 Z M12.856212,4.31999692 L12.991,4.745 L13.4274,4.74564308 L13.074,5.008 L13.20924,5.43436 L12.856,5.171 L12.50319,5.43434154 L12.638,5.009 L12.285,4.74564308 L12.721,4.745 L12.856212,4.31999692 Z M11.627706,3.23999385 L11.762,3.665 L12.198909,3.66564 L11.845,3.928 L11.980734,4.35435692 L11.627,4.091 L11.274684,4.35435385 L11.409,3.928 L11.056509,3.66564 L11.492,3.665 L11.627706,3.23999385 Z M9.170709,3.23999385 L9.305,3.665 L9.741897,3.66564 L9.388,3.928 L9.523737,4.35435692 L9.17,4.091 L8.817687,4.35435385 L8.952,3.928 L8.599497,3.66564 L9.035,3.665 L9.170709,3.23999385 Z M6.713712,3.23999385 L6.848,3.665 L7.2849,3.66564 L6.931,3.928 L7.06674,4.35435692 L6.713,4.091 L6.36069,4.35435385 L6.495,3.928 L6.1425,3.66564 L6.578,3.665 L6.713712,3.23999385 Z M4.256715,3.23999385 L4.391,3.665 L4.827903,3.66564 L4.474,3.928 L4.609743,4.35435692 L4.256,4.091 L3.903693,4.35435385 L4.038,3.928 L3.685503,3.66564 L4.121,3.665 L4.256715,3.23999385 Z M1.799718,3.23999385 L1.934,3.665 L2.370906,3.66564 L2.017,3.928 L2.152731,4.35435692 L1.799,4.091 L1.446681,4.35435385 L1.581,3.928 L1.228506,3.66564 L1.664,3.665 L1.799718,3.23999385 Z M12.856212,2.15999077 L12.991,2.585 L13.4274,2.58563692 L13.074,2.848 L13.20924,3.27435385 L12.856,3.011 L12.50319,3.27435077 L12.638,2.849 L12.285,2.58563692 L12.721,2.585 L12.856212,2.15999077 Z M10.399215,2.15999077 L10.534,2.585 L10.970403,2.58563692 L10.617,2.848 L10.752243,3.27435385 L10.399,3.011 L10.046193,3.27435077 L10.181,2.848 L9.828003,2.58563692 L10.264,2.585 L10.399215,2.15999077 Z M7.942218,2.15999077 L8.077,2.585 L8.513406,2.58563692 L8.16,2.848 L8.295231,3.27435385 L7.942,3.011 L7.589181,3.27435077 L7.724,2.848 L7.371006,2.58563692 L7.807,2.585 L7.942218,2.15999077 Z M5.485206,2.15999077 L5.62,2.585 L6.056409,2.58563692 L5.703,2.848 L5.838234,3.27435385 L5.485,3.011 L5.132184,3.27435077 L5.267,2.848 L4.914009,2.58563692 L5.35,2.585 L5.485206,2.15999077 Z M3.028209,2.15999077 L3.163,2.585 L3.599397,2.58563692 L3.246,2.848 L3.381237,3.27435385 L3.028,3.011 L2.675187,3.27435077 L2.81,2.849 L2.456997,2.58563692 L2.893,2.585 L3.028209,2.15999077 Z M0.571212,2.15999077 L0.706,2.585 L1.1424,2.58563692 L0.789,2.848 L0.92424,3.27435385 L0.571,3.011 L0.21819,3.27435077 L0.353,2.848 L0,2.58563692 L0.436,2.585 L0.571212,2.15999077 Z M11.627706,1.08000308 L11.762,1.505 L12.198909,1.50564923 L11.845,1.768 L11.980734,2.19435077 L11.627,1.931 L11.274684,2.19434769 L11.409,1.768 L11.056509,1.50564923 L11.492,1.505 L11.627706,1.08000308 Z M9.170709,1.08000308 L9.305,1.505 L9.741897,1.50564923 L9.388,1.768 L9.523737,2.19435077 L9.17,1.931 L8.817687,2.19434769 L8.952,1.768 L8.599497,1.50564923 L9.035,1.505 L9.170709,1.08000308 Z M6.713712,1.08000308 L6.848,1.505 L7.2849,1.50564923 L6.931,1.768 L7.06674,2.19435077 L6.713,1.931 L6.36069,2.19434769 L6.495,1.768 L6.1425,1.50564923 L6.578,1.505 L6.713712,1.08000308 Z M4.256715,1.08000308 L4.391,1.505 L4.827903,1.50564923 L4.474,1.768 L4.609743,2.19435077 L4.256,1.931 L3.903693,2.19434769 L4.038,1.768 L3.685503,1.50564923 L4.121,1.505 L4.256715,1.08000308 Z M1.799718,1.08000308 L1.934,1.505 L2.370906,1.50564923 L2.017,1.768 L2.152731,2.19435077 L1.799,1.931 L1.446681,2.19434769 L1.581,1.768 L1.228506,1.50564923 L1.664,1.505 L1.799718,1.08000308 Z M12.856212,0 L12.991,0.425 L13.4274,0.425646154 L13.074,0.688 L13.20924,1.11434769 L12.856,0.851 L12.50319,1.11434462 L12.638,0.689 L12.285,0.425646154 L12.721,0.425 L12.856212,0 Z M10.399215,0 L10.534,0.425 L10.970403,0.425646154 L10.617,0.688 L10.752243,1.11434769 L10.399,0.851 L10.046193,1.11434462 L10.181,0.688 L9.828003,0.425646154 L10.264,0.425 L10.399215,0 Z M7.942218,0 L8.077,0.425 L8.513406,0.425646154 L8.16,0.688 L8.295231,1.11434769 L7.942,0.851 L7.589181,1.11434462 L7.724,0.688 L7.371006,0.425646154 L7.807,0.425 L7.942218,0 Z M5.485206,0 L5.62,0.425 L6.056409,0.425646154 L5.703,0.688 L5.838234,1.11434769 L5.485,0.851 L5.132184,1.11434462 L5.267,0.688 L4.914009,0.425646154 L5.35,0.425 L5.485206,0 Z M3.028209,0 L3.163,0.425 L3.599397,0.425646154 L3.246,0.688 L3.381237,1.11434769 L3.028,0.851 L2.675187,1.11434462 L2.81,0.689 L2.456997,0.425646154 L2.893,0.425 L3.028209,0 Z M0.571212,0 L0.706,0.425 L1.1424,0.425646154 L0.789,0.688 L0.92424,1.11434769 L0.571,0.851 L0.21819,1.11434462 L0.353,0.688 L0,0.425646154 L0.436,0.425 L0.571212,0 Z"></path></clipPath></defs><g transform="translate(-838.0 -573.0)"><g clip-path="url(#i0)"><g transform="translate(838.0 573.0)"><g clip-path="url(#i1)"><polygon points="0,0 30,0 30,20 0,20 0,0" stroke="none" fill="#FFFFFF"></polygon></g><g transform="translate(0.0 3.0769230779048584e-05)"><g clip-path="url(#i2)"><polygon points="0,0 30,0 30,1.53843077 0,1.53843077 0,0" stroke="none" fill="#BA133D"></polygon></g></g><g transform="translate(0.0 3.076953846153857)"><g clip-path="url(#i3)"><polygon points="0,0 30,0 30,1.53843077 0,1.53843077 0,0" stroke="none" fill="#BA133D"></polygon></g></g><g transform="translate(0.0 6.153846153846155)"><g clip-path="url(#i4)"><polygon points="0,0 30,0 30,1.53846154 0,1.53846154 0,0" stroke="none" fill="#BA133D"></polygon></g></g><g transform="translate(0.0 9.230769230769232)"><g clip-path="url(#i5)"><polygon points="0,0 30,0 30,1.53846154 0,1.53846154 0,0" stroke="none" fill="#BA133D"></polygon></g></g><g transform="translate(0.0 12.30769230769231)"><g clip-path="url(#i4)"><polygon points="0,0 30,0 30,1.53846154 0,1.53846154 0,0" stroke="none" fill="#BA133D"></polygon></g></g><g transform="translate(0.0 15.38461538461539)"><g clip-path="url(#i5)"><polygon points="0,0 30,0 30,1.53846154 0,1.53846154 0,0" stroke="none" fill="#BA133D"></polygon></g></g><g transform="translate(0.0 18.46153846153846)"><g clip-path="url(#i6)"><polygon points="0,0 30,0 30,1.53846154 0,1.53846154 0,0" stroke="none" fill="#BA133D"></polygon></g></g><g clip-path="url(#i7)"><polygon points="0,0 14.82,0 14.82,10.7692308 0,10.7692308 0,0" stroke="none" fill="#002563"></polygon></g><g transform="translate(0.6962910000002012 0.4486184615383628)"><g clip-path="url(#i8)"><polygon points="0,0 13.4274,0 13.4274,9.75435692 0,9.75435692 0,0" stroke="none" fill="#FFFFFF"></polygon></g></g></g></g></g></svg>