<?xml version="1.0" encoding="UTF-8"?><svg version="1.1" width="256px" height="256px" viewBox="0 0 256.0 256.0" xmlns="http://www.w3.org/2000/svg" xmlns:xlink="http://www.w3.org/1999/xlink"><defs><clipPath id="i0"><path d="M1350,0 L1350,760 L0,760 L0,0 L1350,0 Z"></path></clipPath><clipPath id="i1"><path d="M80,0 C124.18278,0 160,35.81722 160,80 C160,124.18278 124.18278,160 80,160 C35.81722,160 0,124.18278 0,80 C0,35.81722 35.81722,0 80,0 Z"></path></clipPath><linearGradient id="i2" x1="13.7336142px" y1="126.699438px" x2="149.080056px" y2="38.3216292px" gradientUnits="userSpaceOnUse"><stop stop-color="#87C0A7" offset="0%"></stop><stop stop-color="#05087B" offset="100%"></stop></linearGradient><clipPath id="i3"><path d="M128,0 C198.692448,0 256,57.307552 256,128 C256,198.692448 198.692448,256 128,256 C57.307552,256 0,198.692448 0,128 C0,57.307552 57.307552,0 128,0 Z"></path></clipPath><linearGradient id="i4" x1="214.051297px" y1="242.035177px" x2="40.5146409px" y2="5.68434189e-14px" gradientUnits="userSpaceOnUse"><stop stop-color="#05087B" offset="0%"></stop><stop stop-color="#87C0A7" offset="100%"></stop></linearGradient><clipPath id="i5"><path d="M48,0 C74.509668,-4.86974701e-15 96,21.490332 96,48 C96,74.509668 74.509668,96 48,96 C21.490332,96 3.24649801e-15,74.509668 0,48 C-3.24649801e-15,21.490332 21.490332,4.86974701e-15 48,0 Z"></path></clipPath><linearGradient id="i6" x1="24.026967px" y1="15.6770463px" x2="81.8381401px" y2="82.0186274px" gradientUnits="userSpaceOnUse"><stop stop-color="#65B2A4" offset="0%"></stop><stop stop-color="#04127B" offset="100%"></stop></linearGradient><clipPath id="i7"><path d="M52.6962248,36.5294118 C53.4162799,36.5294118 54,37.1131318 54,37.833187 L54,44.7692713 C54,49.867262 49.867262,54 44.7692712,54 L37.8331869,54 C37.1131318,54 36.5294118,53.4162799 36.5294118,52.6962248 C36.5294118,51.9761696 37.1131318,51.3924496 37.8331869,51.3924495 L44.7692712,51.3924495 C48.4271516,51.3924495 51.3924495,48.4271516 51.3924495,44.7692713 L51.3924495,37.833187 C51.3924495,37.1131318 51.9761696,36.5294118 52.6962248,36.5294118 Z M1.25651525,36.5294118 C1.95046946,36.5294118 2.51303051,37.1131318 2.51303051,37.833187 L2.51303051,44.7692713 C2.51303051,48.4271516 5.37084064,51.3924495 8.89612809,51.3924495 L14.6258377,51.3924495 C15.3197919,51.3924495 15.8823529,51.9761696 15.8823529,52.6962248 C15.8823529,53.4162799 15.3197919,54 14.6258377,54 L8.89612809,54 C3.98293221,54 0,49.867262 0,44.7692713 L0,37.833187 C0,37.1131318 0.562561041,36.5294118 1.25651525,36.5294118 Z M26.4543776,15.8823529 C37.9196801,15.8823529 47.1728388,25.1105047 48.0784847,26.0316762 L48.1297651,26.0839995 L48.1440653,26.0985653 C48.4411765,26.6995218 48.4411765,27.3004782 48.1440653,27.9014347 L48.1078826,27.9383605 C47.3981966,28.663046 38.0595008,38.1176471 26.4543776,38.1176471 C15.6846909,38.1176471 6.71158441,29.5523742 5.25991837,28.1019257 L5.16422014,28.0056997 C5.1101865,27.9510083 5.07580708,27.9155749 5.061825,27.9014347 C4.76470588,27.6009565 4.76470588,27.3004782 4.76470588,27 C4.76470588,25.4976088 15.1638671,15.8823529 26.4543776,15.8823529 Z M19.9177729,19.4880759 C13.9753906,21.5914076 9.22148471,25.1971306 7.43877476,27 C9.22148471,28.5023912 13.9753906,32.7090547 19.6206459,34.5119241 C17.8379312,32.7090547 16.3523435,30.0047665 16.3523435,27 C16.3523435,23.9952335 17.8379312,21.2909453 19.9177729,19.4880759 Z M33.2881094,19.4880759 C35.3679512,21.2909453 36.5564276,23.9952335 36.5564276,27 C36.5564276,30.0047665 35.3679512,32.7090547 33.2881094,34.5119241 C39.2304918,32.7090547 43.6872706,28.8028694 45.4699853,27 C43.6872706,25.4976088 39.2304918,21.5914076 33.2881094,19.4880759 Z M26.6029412,20.6470588 C25.7225029,20.6470588 24.8420647,20.6470588 23.9616424,20.9294153 C25.1700783,25.1148824 25.3833317,25.8534943 25.4209646,25.9838375 L25.4252346,25.9986266 C21.0386001,24.7694137 20.5117487,24.6203312 20.4485265,24.6024413 C20.1464153,25.4470553 19.8529412,26.0117682 19.8529412,26.8588218 C19.8529412,28.5529447 20.4399053,30.2470518 21.9072918,31.3764776 C23.0812041,32.7882282 24.8420647,33.3529412 26.6029412,33.3529412 C28.6572918,33.3529412 30.1246782,32.7882282 31.5920647,31.3764776 C32.7659929,30.2470518 33.3529412,28.5529447 33.3529412,26.8588218 C33.3529412,25.1646988 32.7659929,23.7529482 31.5920647,22.3411818 C30.1246782,21.2117718 28.6572918,20.6470588 26.6029412,20.6470588 Z M44.7692713,0 C49.867262,0 54,3.98293224 54,8.89612815 L54,14.6258378 C54,15.319792 53.4162799,15.8823529 52.6962248,15.8823529 C51.9761696,15.8823529 51.3924496,15.319792 51.3924495,14.6258378 L51.3924495,8.89612815 C51.3924495,5.37084067 48.4271516,2.51303052 44.7692713,2.51303052 L37.833187,2.51303052 C37.1131318,2.51303052 36.5294118,1.95046948 36.5294118,1.25651526 C36.5294118,0.562561044 37.1131318,0 37.833187,0 L44.7692713,0 Z M14.6258377,0 C15.3197919,0 15.8823529,0.562561041 15.8823529,1.25651525 C15.8823529,1.95046946 15.3197919,2.51303051 14.6258377,2.51303051 L8.89612809,2.51303051 C5.37084064,2.51303051 2.51303051,5.37084064 2.51303051,8.89612809 L2.51303051,14.6258377 C2.51303051,15.3197919 1.95046946,15.8823529 1.25651525,15.8823529 C0.562561041,15.8823529 0,15.3197919 0,14.6258377 L0,8.89612809 C0,3.98293221 3.98293221,0 8.89612809,0 L14.6258377,0 Z"></path></clipPath></defs><g transform="translate(-547.0 -281.0)"><g clip-path="url(#i0)"><g transform="translate(547.0 281.0)"><g transform="translate(48.0 48.0)"><g clip-path="url(#i1)"><path d="M80,160 C124.18278,160 160,124.18278 160,80 C160,35.81722 124.18278,0 80,0 C35.81722,0 0,35.81722 0,80 C0,124.18278 35.81722,160 80,160 Z" stroke="url(#i2)" stroke-width="4" fill="none" stroke-miterlimit="5" opacity="49.640997%"></path></g></g><g clip-path="url(#i3)"><path d="M128,256 C198.692448,256 256,198.692448 256,128 C256,57.307552 198.692448,0 128,0 C57.307552,0 0,57.307552 0,128 C0,198.692448 57.307552,256 128,256 Z" stroke="url(#i4)" stroke-width="4" fill="none" stroke-miterlimit="5" opacity="25.5013021%"></path></g><g transform="translate(80.0 80.0)"><g clip-path="url(#i5)"><polygon points="0,0 96,0 96,96 0,96 0,0" stroke="none" fill="url(#i6)"></polygon></g><g transform="translate(21.0 21.0)"><g clip-path="url(#i7)"><polygon points="0,0 54,0 54,54 0,54 0,0" stroke="none" fill="#FFFFFF"></polygon></g></g></g></g></g></g></svg>