<?xml version="1.0" encoding="UTF-8"?>
<svg width="64px" height="64px" viewBox="0 0 64 64" version="1.1" xmlns="http://www.w3.org/2000/svg" xmlns:xlink="http://www.w3.org/1999/xlink">
    <title>icon_member</title>
    <g id="页面-1" stroke="none" stroke-width="1" fill="none" fill-rule="evenodd">
        <g id="1.歡迎頁" transform="translate(-937.000000, -1686.000000)" fill="#000000" fill-rule="nonzero">
            <g id="icon_member_normal" transform="translate(920.000000, 1668.000000)">
                <g id="icon_member" transform="translate(17.000000, 18.000000)">
                    <rect id="矩形" opacity="0" x="0" y="0" width="64" height="64"></rect>
                    <path d="M31.6617653,7.95703712 C37.4196534,7.95703712 42.2180002,12.7553199 42.2180002,18.5130162 C42.2180002,24.2709043 37.4197174,29.0691871 31.6617653,29.0691871 C25.9046446,29.0691871 21.1062979,24.2709044 21.1062979,18.5130162 C21.1062979,12.7553839 25.9046446,7.95703712 31.6617653,7.95703712 L31.6617653,7.95703712 L31.6617653,7.95703712 Z M50.5347294,52.2591603 C38.6992979,56.8975515 26.3844473,57.2173986 13.1092879,52.2591603 C12.9493963,41.3833341 18.2274178,34.6657127 24.9448474,32.1073832 L31.8217209,43.4624364 L39.019209,32.4271024 C45.4167274,35.1457072 50.5347294,41.7031813 50.5347294,52.2591603 L50.5347294,52.2591603 Z" id="形状"></path>
                </g>
            </g>
        </g>
    </g>
</svg>