<?xml version="1.0" encoding="UTF-8"?>
<svg width="307px" height="386px" viewBox="0 0 307 386" version="1.1" xmlns="http://www.w3.org/2000/svg" xmlns:xlink="http://www.w3.org/1999/xlink">
    <title>icon_card</title>
    <g id="页面-1" stroke="none" stroke-width="1" fill="none" fill-rule="evenodd">
        <g id="9.取卡" transform="translate(-397.000000, -872.000000)">
            <g id="编组" transform="translate(397.000000, 872.000000)">
                <path d="M262.875,0 C275.558897,0 286,9.75519097 286,22 L286,72 C286,84.244809 275.558897,94 262.875,94 L229.143237,94 L58.6158596,94 L23.125,94 C10.4411028,94 0,84.244809 0,72 L0,22 C0,9.75519097 10.4411028,0 23.125,0 L262.875,0 Z" id="路径" fill="#C4C4C4" fill-rule="nonzero"></path>
                <path d="M262.875,0 C275.558897,0 286,9.75519097 286,22 L286,72 C286,84.244809 275.558897,94 262.875,94 L229.143237,94 L229.143237,82 L262.875,82 C269.106856,82 274,77.428303 274,72 L274,22 C274,16.571697 269.106856,12 262.875,12 L23.125,12 C16.8931445,12 12,16.571697 12,22 L12,72 C12,77.428303 16.8931445,82 23.125,82 L58.6158596,82 L58.6158596,94 L23.125,94 C10.4411028,94 0,84.244809 0,72 L0,22 C0,9.75519097 10.4411028,0 23.125,0 L262.875,0 Z" id="路径备份" fill="#000000" fill-rule="nonzero"></path>
                <rect id="矩形备份-5" fill="#000000" x="40.25" y="28" width="205.5" height="39" rx="10"></rect>
                <path d="M217.767372,31 C224.954534,31 230.974192,36.4422441 231.696493,43.5930181 L250.080331,225.593018 C250.857386,233.285859 245.251033,240.152066 237.558192,240.929121 C237.090685,240.976344 236.621097,241 236.151211,241 L199.774435,241 C196.460726,241 193.774435,238.313708 193.774435,235 C193.774435,231.686292 196.460726,229 199.774435,229 L127,229 C130.313708,229 133,231.686292 133,235 C133,238.313708 130.313708,241 127,241 L51.8487894,241 C44.1168029,241 37.8487894,234.731986 37.8487894,227 C37.8487894,226.530114 37.8724458,226.060525 37.9196687,225.593018 L56.3035071,43.5930181 C57.0258075,36.4422441 63.0454665,31 70.2326278,31 L217.767372,31 Z" id="路径备份-2" fill="#FFFFFF" fill-rule="nonzero"></path>
                <polygon id="矩形备份-4" fill="#E5202F" points="98 37 127 37.5409836 116.096194 150.930756 86.0961936 150.930756"></polygon>
                <polygon id="矩形" fill="#000000" opacity="0.5" points="68 42 220 42 222.533421 70 63.5145674 70"></polygon>
                <polygon id="矩形备份-6" fill="#E5202F" points="82.1841335 172.323389 108.518668 203.661694 106.548097 235 76.5480968 235"></polygon>
                <polygon id="路径-2" fill="#FFD89B" points="231.688762 123.999875 250.152275 150.930756 296.796867 203.661694 301.494919 273.073988 301.494919 380.220905 199.060562 380.220905 162.311874 344.920226 142.504097 322.094486 131.070847 254.999938 112.319266 203.661694 86.0961936 172.323389 92.5333825 147.137766 108.518668 147.137766 199.060562 235 238.882281 235 245.75 227.756216"></polygon>
                <path d="M217.767372,31 C224.954534,31 230.974192,36.4422441 231.696493,43.5930181 L250.080331,225.593018 C250.857386,233.285859 245.251033,240.152066 237.558192,240.929121 C237.090685,240.976344 236.621097,241 236.151211,241 L199.774435,241 C196.460726,241 193.774435,238.313708 193.774435,235 C193.774435,231.686292 196.460726,229 199.774435,229 L236.151211,229 C236.218337,229 236.285421,228.996621 236.352208,228.989874 C237.451185,228.878867 238.252093,227.89798 238.141085,226.799003 L219.757247,44.7990026 C219.654061,43.7774634 218.79411,43 217.767372,43 L70.2326278,43 C69.2058905,43 68.3459392,43.7774634 68.2427534,44.7990026 L49.858915,226.799003 C49.8521689,226.865789 49.8487894,226.932873 49.8487894,227 C49.8487894,228.104569 50.7442199,229 51.8487894,229 L127,229 C130.313708,229 133,231.686292 133,235 C133,238.313708 130.313708,241 127,241 L51.8487894,241 C44.1168029,241 37.8487894,234.731986 37.8487894,227 C37.8487894,226.530114 37.8724458,226.060525 37.9196687,225.593018 L56.3035071,43.5930181 C57.0258075,36.4422441 63.0454665,31 70.2326278,31 L217.767372,31 Z" id="路径" fill="#000000" fill-rule="nonzero"></path>
                <path d="M230.121022,125.422498 C232.649107,123.280197 236.435202,123.592937 238.577502,126.121022 L293.063,190.42 C302.229639,198.240763 306.858641,209.414739 306.996812,223.47295 L307,224.123837 L307,380 C307,383.313708 304.313708,386 301,386 C297.686292,386 295,383.313708 295,380 L295,224.123837 C295,212.930081 291.64696,204.82972 284.983887,199.303424 L284.57781,198.966627 L229.422498,133.878978 C227.280197,131.350893 227.592937,127.564798 230.121022,125.422498 Z" id="路径-2备份" fill="#000000" fill-rule="nonzero"></path>
                <path d="M90.0159537,143.407791 C98.7595777,137.489228 107.806097,137.489228 115.66342,143.65684 L115.941008,143.874734 L203.232422,230.747165 C205.581198,233.084667 205.590337,236.883646 203.252835,239.232422 C200.915333,241.581198 197.116354,241.590337 194.767578,239.252835 L108,152.902 L107.784126,152.742302 C104.425937,150.321893 101.250209,150.389434 97.0381575,153.148357 L96.7425967,153.345209 C92.5722354,156.168129 91.1094138,160.433943 92.4848583,167.294511 L92.524,167.485 L123.561,213.612 L123.898061,214.073581 C132.110669,225.451319 136.364542,239.302196 136.702708,255.46343 L136.716529,256.287178 C137.118619,288.071044 145.590706,323.761834 158.273464,333.158258 L159.330115,333.948972 C171.212464,342.92793 185.878763,356.909504 203.412012,375.933779 C205.657724,378.370466 205.502908,382.1663 203.066221,384.412012 C200.629534,386.657724 196.8337,386.502908 194.587988,384.066221 C176.998633,364.981068 162.48237,351.211164 151.129856,342.800294 C141.654027,335.779826 134.950658,321.630353 130.395997,302.442699 C126.983001,288.064597 125.005392,271.315583 124.736358,257.606471 L124.717489,256.438975 C124.538863,242.319267 121.018587,230.610956 114.20171,221.143605 L113.747838,220.522839 L81.3285063,172.342691 L81.0767654,171.283955 C78.1969354,159.172381 81.125104,149.426012 90.0159537,143.407791 Z" id="路径-3备份" fill="#000000" fill-rule="nonzero"></path>
            </g>
        </g>
    </g>
</svg>