<?xml version="1.0" encoding="UTF-8"?><svg version="1.1" width="242px" height="242px" viewBox="0 0 242.0 242.0" xmlns="http://www.w3.org/2000/svg" xmlns:xlink="http://www.w3.org/1999/xlink"><defs><clipPath id="i0"><path d="M1350,0 L1350,760 L0,760 L0,0 L1350,0 Z"></path></clipPath><clipPath id="i1"><path d="M0,0 C43.9291543,0 84.3472698,24.0021568 105.368607,62.5727794 C126.389944,101.143402 124.654241,148.116975 100.843691,185.031232 L40.3374805,146.008075 C49.8617018,131.242371 50.555983,112.45294 42.1474472,97.0246891 C33.7389115,81.5964384 17.5716636,71.9955747 0,71.9955747 Z"></path></clipPath><clipPath id="i2"><path d="M103.137872,0 L163.644083,39.023157 C128.28161,93.8467285 55.5942372,110.374755 0,76.2333844 L37.6802325,14.8840925 C59.9179297,28.540642 88.9928819,21.9294309 103.137872,0 Z"></path></clipPath><clipPath id="i3"><path d="M65.990515,0 C69.9152241,8.99333981 76.5021993,16.567802 84.86404,21.7029511 L47.1838075,83.052243 C26.279208,70.2143715 9.81177171,51.2782182 0,28.794871 Z"></path></clipPath><clipPath id="i4"><path d="M6.77385383,0 L74.7095121,23.8468173 C70.6926697,35.2887478 71.1559645,47.8269587 76.0062746,58.9412823 L10.0157596,87.7361533 C-2.11001441,59.9503472 -3.26825112,28.6048234 6.77385383,0 Z"></path></clipPath><clipPath id="i5"><path d="M38.7468163,0 L83.4343865,56.4502156 C76.3166126,62.0841589 70.9424892,69.6208941 67.9356583,78.1858183 L0,54.339001 C7.51707649,32.9266928 20.9523834,14.0848569 38.7468163,0 Z"></path></clipPath><clipPath id="i6"><path d="M74.4792889,0 L74.4792889,71.9955747 C63.6647219,71.9955747 53.1670446,75.6473768 44.6875702,82.3591492 L0,25.9089336 C21.1986839,9.12950431 47.4428743,0 74.4792889,0 Z"></path></clipPath></defs><g transform="translate(-445.0 -166.0)"><g clip-path="url(#i0)"><g transform="translate(394.0 131.0)"><g transform="translate(52.0 36.0)"><g transform="translate(119.9999589576299 0.0)"><g clip-path="url(#i1)"><polygon points="0,0 120.000041,0 120.000041,185.031232 0,185.031232 0,0" stroke="none" fill="rgba(56, 113, 228, 0.85)"></polygon></g><path d="M0,71.9955747 C17.5716636,71.9955747 33.7389115,81.5964384 42.1474472,97.0246891 C50.555983,112.45294 49.8617018,131.242371 40.3374805,146.008075 L100.843691,185.031232 C124.654241,148.116975 126.389944,101.143402 105.368607,62.5727794 C84.3472698,24.0021568 43.9291543,0 0,0 L0,71.9955747 Z" stroke="#FFFFFF" stroke-width="0.8" fill="none" stroke-miterlimit="10"></path></g><g transform="translate(57.19956707621161 146.0080754459197)"><g clip-path="url(#i2)"><polygon points="0,0 163.644083,0 163.644083,93.9919246 0,93.9919246 0,0" stroke="none" fill="rgba(68, 199, 147, 0.85)"></polygon></g><path d="M103.137872,0 C88.9928819,21.9294309 59.9179297,28.540642 37.6802325,14.8840925 L0,76.2333844 C55.5942372,110.374755 128.28161,93.8467285 163.644083,39.023157 L103.137872,0 Z" stroke="#FFFFFF" stroke-width="0.8" fill="none" stroke-miterlimit="10"></path></g><g transform="translate(10.015759567808331 139.1892168835813)"><g clip-path="url(#i3)"><polygon points="0,0 84.86404,0 84.86404,83.052243 0,83.052243 0,0" stroke="none" fill="rgba(74, 97, 137, 0.85)"></polygon></g><path d="M84.86404,21.7029511 C76.5021993,16.567802 69.9152241,8.99333981 65.990515,0 L0,28.794871 C9.81177171,51.2782182 26.279208,70.2143715 47.1838075,83.052243 L84.86404,21.7029511 Z" stroke="#FFFFFF" stroke-width="0.8" fill="none" stroke-miterlimit="10"></path></g><g transform="translate(0.0 80.24793461509)"><g clip-path="url(#i4)"><polygon points="6.21724894e-15,0 76.0062746,0 76.0062746,87.7361533 6.21724894e-15,87.7361533 6.21724894e-15,0" stroke="none" fill="rgba(240, 186, 29, 0.85)"></polygon></g><path d="M76.0062746,58.9412823 C71.1559645,47.8269587 70.6926697,35.2887478 74.7095121,23.8468173 L6.77385383,0 C-3.26825112,28.6048234 -2.11001441,59.9503472 10.0157596,87.7361533 L76.0062746,58.9412823 Z" stroke="#FFFFFF" stroke-width="0.8" fill="none" stroke-miterlimit="10"></path></g><g transform="translate(6.773853825376129 25.908933639685557)"><g clip-path="url(#i5)"><polygon points="0,0 83.4343865,0 83.4343865,78.1858183 0,78.1858183 0,0" stroke="none" fill="rgba(215, 91, 62, 0.85)"></polygon></g><path d="M67.9356583,78.1858183 C70.9424892,69.6208941 76.3166126,62.0841589 83.4343865,56.4502156 L38.7468163,0 C20.9523834,14.0848569 7.51707649,32.9266928 0,54.339001 L67.9356583,78.1858183 Z" stroke="#FFFFFF" stroke-width="0.8" fill="none" stroke-miterlimit="10"></path></g><g transform="translate(45.52067008073567 0.0)"><g clip-path="url(#i6)"><polygon points="0,0 74.4792889,0 74.4792889,82.3591492 0,82.3591492 0,0" stroke="none" fill="rgba(85, 183, 221, 0.85)"></polygon></g><path d="M44.6875702,82.3591492 C53.1670446,75.6473768 63.6647219,71.9955747 74.4792889,71.9955747 L74.4792889,0 C47.4428743,0 21.1986839,9.12950431 0,25.9089336 L44.6875702,82.3591492 Z" stroke="#FFFFFF" stroke-width="0.8" fill="none" stroke-miterlimit="10"></path></g></g></g></g></g></svg>