<?xml version="1.0" encoding="UTF-8"?>
<svg width="64px" height="64px" viewBox="0 0 64 64" version="1.1" xmlns="http://www.w3.org/2000/svg" xmlns:xlink="http://www.w3.org/1999/xlink">
    <title>icon_id</title>
    <g id="页面-1" stroke="none" stroke-width="1" fill="none" fill-rule="evenodd">
        <g id="2.首頁" transform="translate(-202.000000, -613.000000)">
            <g id="编组-2" transform="translate(148.000000, 579.000000)">
                <g id="icon_id" transform="translate(54.000000, 34.000000)">
                    <rect id="矩形" fill="#000000" fill-rule="nonzero" opacity="0" x="0" y="0" width="64" height="64"></rect>
                    <path d="M53.5,12.5 L15.5,12.5 C10,12.5 5.5,17 5.5,22.5 L5.5,52.5 C5.5,58 10,62.5 15.5,62.5 L53.5,62.5 C59,62.5 63.5,58 63.5,52.5 L63.5,22.5 C63.5,17 59,12.5 53.5,12.5 Z M25.5,24.5 C29.9,24.5 33.5,28.1 33.5,32.5 C33.5,34.7 32.6,36.7 31.2,38.1 C34.4,40 36.5,43.5 36.5,47.5 L36.5,51.1 C36.5,53 35,54.5 33.2,54.5 L17.8,54.5 C16,54.5 14.5,53 14.5,51.1 L14.5,47.5 C14.5,43.5 16.6,40 19.8,38.1 C18.4,36.7 17.5,34.7 17.5,32.5 C17.5,28.1 21.1,24.5 25.5,24.5 Z M21.5,32.5 C21.5,30.3 23.3,28.5 25.5,28.5 C27.7,28.5 29.5,30.3 29.5,32.5 C29.5,34.7 27.7,36.5 25.5,36.5 C23.3,36.5 21.5,34.7 21.5,32.5 Z M52.5,47.5 C53.6,47.5 54.5,48.4 54.5,49.5 C54.5,50.6 53.6,51.5 52.5,51.5 L44.5,51.5 C43.4,51.5 42.5,50.6 42.5,49.5 C42.5,48.4 43.4,47.5 44.5,47.5 Z M25.5,40.5 C29.4,40.5 32.5,43.6 32.5,47.5 L32.5,50.5 L18.5,50.5 L18.5,47.5 C18.5,43.6 21.6,40.5 25.5,40.5 Z M52.5,37.5 C53.6,37.5 54.5,38.4 54.5,39.5 C54.5,40.6 53.6,41.5 52.5,41.5 L42.5,41.5 C41.4,41.5 40.5,40.6 40.5,39.5 C40.5,38.4 41.4,37.5 42.5,37.5 Z M52.5,27.5 C53.6,27.5 54.5,28.4 54.5,29.5 C54.5,30.6 53.6,31.5 52.5,31.5 L40.5,31.5 C39.4,31.5 38.5,30.6 38.5,29.5 C38.5,28.4 39.4,27.5 40.5,27.5 Z" id="形状结合" fill="#E60012" fill-rule="nonzero"></path>
                    <circle id="椭圆形" fill="#000000" fill-rule="nonzero" cx="13" cy="14.5" r="12.5"></circle>
                    <path d="M13,8 C14.1045695,8 15,8.8954305 15,10 L15,12.5 L17.5,12.5 C18.6045695,12.5 19.5,13.3954305 19.5,14.5 C19.5,15.6045695 18.6045695,16.5 17.5,16.5 L15,16.5 L15,19 C15,20.1045695 14.1045695,21 13,21 C11.8954305,21 11,20.1045695 11,19 L11,16.5 L8.5,16.5 C7.3954305,16.5 6.5,15.6045695 6.5,14.5 C6.5,13.3954305 7.3954305,12.5 8.5,12.5 L11,12.5 L11,10 C11,8.8954305 11.8954305,8 13,8 Z" id="形状结合" fill="#F2F1F1"></path>
                </g>
            </g>
        </g>
    </g>
</svg>