<?xml version="1.0" encoding="UTF-8"?>
<svg width="65px" height="64px" viewBox="0 0 65 64" version="1.1" xmlns="http://www.w3.org/2000/svg" xmlns:xlink="http://www.w3.org/1999/xlink">
    <title>icon_takeout</title>
    <g id="页面-1" stroke="none" stroke-width="1" fill="none" fill-rule="evenodd">
        <g id="2.首頁" transform="translate(-622.000000, -811.000000)" fill-rule="nonzero">
            <g id="编组-4" transform="translate(568.000000, 777.000000)">
                <g id="icon_takeout" transform="translate(54.000000, 34.000000)">
                    <rect id="矩形" fill="#000000" opacity="0" x="0" y="0" width="64" height="64"></rect>
                    <path d="M47,18.1149109 L23.5,8 L0,18.1149109 L0,46.9525218 L23.5,57 L25.5293929,56.1318035 L25.9591071,56.1318035 L25.9591071,55.9480493 L47,46.9542077 L47,18.1149109 Z M24.0809826,27 L18,24.5463113 L35.0826252,17.0714982 C35.1220453,17.0536237 35.1477541,17.0211245 35.1854603,17 L42,19.7689308 L24.0809826,27 Z M23.3323202,11 L30,13.7089881 L13.3341162,21 L6,18.0395977 L23.3323202,11 Z" id="形状" fill="#E60012"></path>
                    <path d="M63.9700939,35.3708246 L53.6184253,23.3223871 C53.0267249,22.6336996 52.0149436,23.1214496 52.0149436,24.0954496 L52.0149436,31.3409496 L35.0476043,31.3409496 C33.4999687,31.3409496 32.2452031,33.3750746 32.2452031,35.8838871 C32.2452031,38.3926996 33.4999687,40.4268246 35.0476043,40.4268246 L52.0149973,40.4268246 L52.0149973,48.1923246 C52.0149973,49.1663246 53.0267249,49.6540746 53.618479,48.9653871 L63.9700939,36.9168871 C64.3369062,36.4899496 64.3369062,35.7977621 63.9700939,35.3708246 L63.9700939,35.3708246 Z" id="路径" fill="#000000"></path>
                </g>
            </g>
        </g>
    </g>
</svg>