<?xml version="1.0" encoding="UTF-8"?>
<svg width="36px" height="36px" viewBox="0 0 36 36" version="1.1" xmlns="http://www.w3.org/2000/svg" xmlns:xlink="http://www.w3.org/1999/xlink">
    <title>icon_home</title>
    <g id="页面-1" stroke="none" stroke-width="1" fill="none" fill-rule="evenodd">
        <g id="3.選擇本人代領" transform="translate(-438.000000, -1698.000000)" fill-rule="nonzero">
            <g id="编组备份-3" transform="translate(390.000000, 1658.000000)">
                <g id="icon_home" transform="translate(48.000000, 40.000000)">
                    <rect id="矩形" fill="#000000" opacity="0" x="0" y="0" width="36" height="36"></rect>
                    <path d="M33.2753906,17.7539062 L18.7945313,3.28359375 C18.3550781,2.84414063 17.6449219,2.84414063 17.2054688,3.28359375 L2.72460938,17.7539062 C2.30273437,18.1757812 2.06367187,18.7488281 2.06367187,19.3464844 C2.06367187,20.5875 3.07265625,21.5964844 4.31367187,21.5964844 L5.83945313,21.5964844 L5.83945313,31.921875 C5.83945313,32.5441406 6.3421875,33.046875 6.96445312,33.046875 L15.75,33.046875 L15.75,25.171875 L19.6875,25.171875 L19.6875,33.046875 L29.0355469,33.046875 C29.6578125,33.046875 30.1605469,32.5441406 30.1605469,31.921875 L30.1605469,21.5964844 L31.6863281,21.5964844 C32.2839844,21.5964844 32.8570312,21.3609375 33.2789062,20.9355469 C34.1542969,20.0566406 34.1542969,18.6328125 33.2753906,17.7539062 L33.2753906,17.7539062 Z" id="路径" fill="#E60012"></path>
                </g>
            </g>
        </g>
    </g>
</svg>