<?xml version="1.0" encoding="UTF-8"?>
<svg width="128px" height="128px" viewBox="0 0 128 128" version="1.1" xmlns="http://www.w3.org/2000/svg" xmlns:xlink="http://www.w3.org/1999/xlink">
    <title>icon_touch</title>
    <g id="页面-1" stroke="none" stroke-width="1" fill="none" fill-rule="evenodd">
        <g id="1.歡迎頁" transform="translate(-476.000000, -896.000000)">
            <g id="icon_touch" transform="translate(476.000000, 896.000000)">
                <rect id="矩形" fill="#000000" fill-rule="nonzero" opacity="0" x="0" y="0" width="128" height="128"></rect>
                <path d="M75.2858569,32.9012546 C77.3955189,25.7387752 75.6113952,18.7255783 69.9599434,13.0741265 C61.7294475,4.84363064 48.3851772,4.84363064 40.1546813,13.0741265 C39.4559821,13.7728257 38.8165965,14.5083777 38.2365245,15.2745255 C34.3524851,20.4044894 33.1276887,26.9061725 34.5621355,32.9012546" id="路径" stroke="#E60012" stroke-width="6" stroke-linecap="round"></path>
                <path d="M99.9646522,61.7372583 C102.981641,61.7372583 105.395232,64.7542473 105.395232,67.1678384 L105.395232,96.5410059 C105.093533,102.876683 101.171448,108.802286 96.9476632,113.02607 C92.1204809,117.853252 86.0865032,120.266844 79.4491274,120.266844 L67.3811717,120.266844 C60.743796,120.266844 54.4081193,117.551554 49.8826359,113.02607 L14.8855643,78.0289986 C13.6787688,76.822203 13.6787688,75.0120097 15.4889621,73.805214 C17.9025531,71.3916229 21.8246388,71.0899239 24.5399288,73.2018162 L45.6588513,88.2867609 C46.2622491,88.8901587 46.865647,88.8901588 47.7707436,88.5884599 C48.6758404,88.286761 48.9775392,87.3816642 48.9775392,86.7782664 L48.9775392,30.0588745 C48.9775392,28.5503801 49.5069137,23.6564635 54.823656,23.6564635 C60.1403983,23.6564635 60.1403983,28.852079 60.1403983,30.0588745 L60.1403983,67.7712362 C60.1403982,68.9780317 61.045495,69.8831283 62.2522905,69.8831284 C63.4590861,69.8831285 64.3641827,68.9780318 64.3641827,67.7712362 L64.3641828,52.0828937 C64.3641828,49.0659047 66.7777739,46.6523136 69.7947629,46.6523136 C72.8117519,46.6523136 75.225343,49.0659047 75.225343,52.0828937 L75.2253429,67.7712362 C75.2253429,68.9780318 76.1304397,69.8831284 77.3372352,69.8831285 C78.5440308,69.8831286 79.4491274,68.9780319 79.4491274,67.7712362 L79.4491274,59.9270649 C79.4491274,56.9100759 81.8627185,54.4964848 84.8797075,54.4964848 C87.8966965,54.4964848 90.3102876,56.9100759 90.3102876,59.9270649 L90.3102876,67.7712362 C90.3102875,68.9780318 91.2153842,69.8831285 92.4221798,69.8831285 C93.6289755,69.8831285 94.5340721,68.9780318 94.5340721,67.7712362 L94.5340721,67.1678384 C94.5340721,64.1508494 96.9476632,61.7372583 99.9646522,61.7372583 Z" id="形状" fill="#000000" fill-rule="nonzero"></path>
            </g>
        </g>
    </g>
</svg>