<?xml version="1.0" encoding="UTF-8"?>
<svg width="286px" height="241px" viewBox="0 0 286 241" version="1.1" xmlns="http://www.w3.org/2000/svg" xmlns:xlink="http://www.w3.org/1999/xlink">
    <title>icon_card_make</title>
    <g id="页面-2" stroke="none" stroke-width="1" fill="none" fill-rule="evenodd">
        <g id="11.借證_卡片印製中" transform="translate(-397.000000, -721.000000)">
            <g id="icon_card_make" transform="translate(397.000000, 721.000000)">
                <g id="编组">
                    <path d="M262.875,0 C275.558897,0 286,9.75519097 286,22 L286,72 C286,84.244809 275.558897,94 262.875,94 L229.143237,94 L58.6158596,94 L23.125,94 C10.4411028,94 0,84.244809 0,72 L0,22 C0,9.75519097 10.4411028,0 23.125,0 L262.875,0 Z" id="路径" fill="#C4C4C4" fill-rule="nonzero"></path>
                    <path d="M262.875,0 C275.558897,0 286,9.75519097 286,22 L286,72 C286,84.244809 275.558897,94 262.875,94 L229.143237,94 L229.143237,82 L262.875,82 C269.106856,82 274,77.428303 274,72 L274,22 C274,16.571697 269.106856,12 262.875,12 L23.125,12 C16.8931445,12 12,16.571697 12,22 L12,72 C12,77.428303 16.8931445,82 23.125,82 L58.6158596,82 L58.6158596,94 L23.125,94 C10.4411028,94 0,84.244809 0,72 L0,22 C0,9.75519097 10.4411028,0 23.125,0 L262.875,0 Z" id="路径备份" fill="#000000" fill-rule="nonzero"></path>
                    <rect id="矩形备份-5" fill="#000000" x="40.25" y="28" width="205.5" height="39" rx="10"></rect>
                    <path d="M217.767372,31 C224.954534,31 230.974192,36.4422441 231.696493,43.5930181 L250.080331,225.593018 C250.857386,233.285859 245.251033,240.152066 237.558192,240.929121 C237.090685,240.976344 236.621097,241 236.151211,241 L199.774435,241 C196.460726,241 193.774435,238.313708 193.774435,235 C193.774435,231.686292 196.460726,229 199.774435,229 L127,229 C130.313708,229 133,231.686292 133,235 C133,238.313708 130.313708,241 127,241 L51.8487894,241 C44.1168029,241 37.8487894,234.731986 37.8487894,227 C37.8487894,226.530114 37.8724458,226.060525 37.9196687,225.593018 L56.3035071,43.5930181 C57.0258075,36.4422441 63.0454665,31 70.2326278,31 L217.767372,31 Z" id="路径备份-2" fill="#FFFFFF" fill-rule="nonzero"></path>
                    <polygon id="矩形备份-4" fill="#E5202F" points="98 37 127 37.5409836 109.20086 229.284243 79.2008602 229.284243"></polygon>
                    <polygon id="矩形" fill="#000000" opacity="0.5" points="68 42 220 42 222.533421 70 63.5145674 70"></polygon>
                    <path d="M217.767372,31 C224.954534,31 230.974192,36.4422441 231.696493,43.5930181 L250.080331,225.593018 C250.857386,233.285859 245.251033,240.152066 237.558192,240.929121 C237.090685,240.976344 236.621097,241 236.151211,241 L199.774435,241 C196.460726,241 193.774435,238.313708 193.774435,235 C193.774435,231.686292 196.460726,229 199.774435,229 L236.151211,229 C236.218337,229 236.285421,228.996621 236.352208,228.989874 C237.451185,228.878867 238.252093,227.89798 238.141085,226.799003 L219.757247,44.7990026 C219.654061,43.7774634 218.79411,43 217.767372,43 L70.2326278,43 C69.2058905,43 68.3459392,43.7774634 68.2427534,44.7990026 L49.858915,226.799003 C49.8521689,226.865789 49.8487894,226.932873 49.8487894,227 C49.8487894,228.104569 50.7442199,229 51.8487894,229 L205.918209,229 C209.231918,229 211.918209,231.686292 211.918209,235 C211.918209,238.313708 209.231918,241 205.918209,241 L51.8487894,241 C44.1168029,241 37.8487894,234.731986 37.8487894,227 C37.8487894,226.530114 37.8724458,226.060525 37.9196687,225.593018 L56.3035071,43.5930181 C57.0258075,36.4422441 63.0454665,31 70.2326278,31 L217.767372,31 Z" id="路径" fill="#000000" fill-rule="nonzero"></path>
                </g>
                <g id="Loading" transform="translate(143.000000, 131.000000)" fill-rule="nonzero">
                    <rect id="矩形" fill="#000000" opacity="0" x="0" y="0" width="80" height="80"></rect>
                    <path d="M40,76.066641 C38.921623,76.066641 37.949533,75.416705 37.5368873,74.4204015 C37.1242417,73.424098 37.3522759,72.2773313 38.1146875,71.5146875 L40.2279688,69.4 L39.9333594,69.4 C31.9013281,69.4 24.9413281,66.5132812 19.2479688,60.8186719 C13.5546094,55.1240625 10.6667188,48.1413281 10.6667188,40.0666406 C10.6667188,34.6226562 12.0053125,29.6292969 14.6466406,25.2279687 C15.4043926,23.9650704 17.0424532,23.5555684 18.3053516,24.3133203 C19.5682499,25.0710722 19.9777519,26.7091329 19.22,27.9720312 C17.0826563,31.5333594 16,35.6026562 16,40.0666406 C16,46.7692969 18.2960156,52.3239844 23.0186719,57.0479687 C27.7413281,61.770625 33.2746875,64.0667187 39.9333594,64.0667187 L40.2279688,64.0667187 L38.1146875,61.9520312 C37.4220673,61.28238 37.144503,60.291207 37.3886115,59.3592378 C37.6327199,58.4272687 38.3605399,57.6994336 39.292504,57.4553058 C40.2244681,57.211178 41.2156469,57.4887218 41.8853125,58.1813281 L48.5479688,64.8439844 L48.589375,64.8853906 C48.8181476,65.1227064 49.0003858,65.4008205 49.1266406,65.7053125 C49.5457915,66.7028564 49.3185626,67.8549113 48.5520313,68.6185937 L41.8853125,75.2853125 C41.3856497,75.785906 40.7072882,76.066641 40,76.066641 Z M63.2640625,55.933363 C62.3111401,55.9319881 61.4312952,55.422474 60.9558049,54.5966581 C60.4803146,53.7708421 60.4813777,52.7541167 60.9585938,51.9292969 C62.9760156,48.4480469 64,44.4560156 64,40.0666406 C64,33.3639844 61.7039844,27.8092969 56.9813281,23.0853906 C52.2573438,18.3627344 46.7239844,16.0666406 40.0639844,16.0666406 L39.8146875,16.0666406 L41.9413281,18.1720312 C42.6184581,18.8422671 42.8865854,19.822835 42.6447091,20.7443647 C42.4028328,21.6658943 41.6876997,22.3883834 40.7686935,22.6396772 C39.8496872,22.890971 38.8664268,22.6328921 38.1892969,21.9626562 L31.4560156,15.2960156 L31.3880469,15.2266406 L31.3866406,15.2239844 L31.3839844,15.2213281 C30.4010469,14.1689834 30.4311357,12.5263444 31.4519531,11.5107031 L38.1813281,4.78265625 C38.8511431,4.09074896 39.841976,3.81373714 40.7735062,4.0579488 C41.7050364,4.30216047 42.432527,5.02965112 42.6767387,5.96118131 C42.9209504,6.89271151 42.6439385,7.88354437 41.9520313,8.55335937 L39.7720313,10.7333594 L40.0653125,10.7333594 C48.0973438,10.7333594 55.0586719,13.6213281 60.7533594,19.3146094 C66.4480469,25.0078906 69.3333594,31.9907031 69.3333594,40.0666406 C69.3333594,45.4080469 68.0692969,50.2986719 65.5746875,54.6039844 C65.0972997,55.4281383 64.2164162,55.9349211 63.2639844,55.933363 L63.2640625,55.933363 Z" id="形状" fill="#E5202F"></path>
                </g>
            </g>
        </g>
    </g>
</svg>