<?xml version="1.0" encoding="UTF-8"?>
<svg width="64px" height="64px" viewBox="0 0 64 64" version="1.1" xmlns="http://www.w3.org/2000/svg" xmlns:xlink="http://www.w3.org/1999/xlink">
    <title>icon_idlend</title>
    <g id="页面-1" stroke="none" stroke-width="1" fill="none" fill-rule="evenodd">
        <g id="2.首頁" transform="translate(-622.000000, -613.000000)" fill-rule="nonzero">
            <g id="编组" transform="translate(568.000000, 579.000000)">
                <g id="icon_idlend" transform="translate(54.000000, 34.000000)">
                    <rect id="矩形" fill="#000000" opacity="0" x="0" y="0" width="64" height="64"></rect>
                    <path d="M46.5862069,0 L18.4137931,0 C14.3362069,0 11,3.15 11,7 L11,28 C11,31.85 14.3362069,35 18.4137931,35 L46.5862069,35 C50.6637931,35 54,31.85 54,28 L54,7 C54,3.15 50.6637931,0 46.5862069,0 Z M25.8275862,7.29166667 C29.0896552,7.29166667 31.7586207,9.91666667 31.7586207,13.125 C31.7586207,14.7291667 31.0913793,16.1875 30.0534483,17.2083333 C32.4258621,18.59375 33.9827586,21.1458333 33.9827586,24.0625 L33.9827586,26.6875 C33.9827586,28.0729167 32.8706897,29.1666667 31.5362069,29.1666667 L20.1189655,29.1666667 C18.7844828,29.1666667 17.6724138,28.0729167 17.6724138,26.6875 L17.6724138,24.0625 C17.6724138,21.1458333 19.2293103,18.59375 21.6017241,17.2083333 C20.5637931,16.1875 19.8965517,14.7291667 19.8965517,13.125 C19.8965517,9.91666667 22.5655172,7.29166667 25.8275862,7.29166667 Z M22.862069,13.125 C22.862069,11.5208333 24.1965517,10.2083333 25.8275862,10.2083333 C27.4586207,10.2083333 28.7931034,11.5208333 28.7931034,13.125 C28.7931034,14.7291667 27.4586207,16.0416667 25.8275862,16.0416667 C24.1965517,16.0416667 22.862069,14.7291667 22.862069,13.125 Z M31.0172414,26.25 L20.637931,26.25 L20.637931,24.0625 C20.637931,21.21875 22.9362069,18.9583333 25.8275862,18.9583333 C28.7189655,18.9583333 31.0172414,21.21875 31.0172414,24.0625 L31.0172414,26.25 Z M45.8448276,24.0625 C46.6603448,24.0625 47.3275862,24.71875 47.3275862,25.5208333 C47.3275862,26.3229167 46.6603448,26.9791667 45.8448276,26.9791667 L39.9137931,26.9791667 C39.0982759,26.9791667 38.4310345,26.3229167 38.4310345,25.5208333 C38.4310345,24.71875 39.0982759,24.0625 39.9137931,24.0625 Z M45.8448276,16.7708333 C46.6603448,16.7708333 47.3275862,17.4270833 47.3275862,18.2291667 C47.3275862,19.03125 46.6603448,19.6875 45.8448276,19.6875 L38.4310345,19.6875 C37.6155172,19.6875 36.9482759,19.03125 36.9482759,18.2291667 C36.9482759,17.4270833 37.6155172,16.7708333 38.4310345,16.7708333 Z M45.8448276,9.47916667 C46.6603448,9.47916667 47.3275862,10.1354167 47.3275862,10.9375 C47.3275862,11.7395833 46.6603448,12.3958333 45.8448276,12.3958333 L36.9482759,12.3958333 C36.1327586,12.3958333 35.4655172,11.7395833 35.4655172,10.9375 C35.4655172,10.1354167 36.1327586,9.47916667 36.9482759,9.47916667 Z" id="形状结合" fill="#E60012"></path>
                    <path d="M21.1801612,39.661994 L40.5181176,48.4059743 C42.1981138,49.1779726 43.1921115,50.9939685 43.0661118,52.8819642 L43.0661118,53.0059639 C43.0661118,53.0739638 43.0661118,53.1559636 43.0541119,53.2399634 C43.0401119,53.3079632 43.0541119,53.3759631 43.0281119,53.431963 L42.990112,53.6239625 C42.978112,53.7079623 42.9521121,53.7899622 42.9401121,53.871962 L42.9021122,54.0239616 C42.8641123,54.1619613 42.8281124,54.299961 42.7781125,54.4379607 C42.098114,56.1979567 40.5301175,57.2739543 38.8841213,57.2739543 C38.3441225,57.2739543 37.7541238,57.1639545 37.228125,56.9139551 L30.0081413,53.6119626 L30.0081413,55.2779588 L36.8881258,58.4299517 C37.5041244,58.7059511 38.1821228,58.8579507 38.8721213,58.8579507 C40.9701165,58.8579507 43.2801113,57.0119549 43.87011,55.4279585 C44.4721087,54.2159612 44.6101083,52.2079657 44.1961093,50.8279688 L44.7861079,50.4719696 L57.7940786,42.773987 C59.840074,41.5619897 62.3880683,42.4019878 63.4940658,44.6479828 C64.5980633,46.8639778 63.834065,49.6319715 61.7980696,50.8439688 L40.1021185,63.6639399 L18.3201676,59.18595 L12.5561806,59.18595 L12.5561806,41.5599897 L21.1821612,39.659994 L21.1801612,39.661994 Z M6.98019316,37.002 C8.52618968,37.002 9.79418682,38.2679971 9.79418682,39.8139937 L9.79418682,59.5379492 C9.79418682,61.0959457 8.53818965,62.2379431 6.98019316,62.2379431 L2.76220267,62.2379431 C1.22020615,62.2379431 0.000208897936,61.0799457 0.000208897936,59.5379492 L0.000208897936,39.8139937 C-0.00885807264,39.0739303 0.277555867,38.3608017 0.795995883,37.832601 C1.3144359,37.3044004 2.02209893,37.0047366 2.76220267,37 L6.98219316,37 L6.98019316,37.002 Z" id="形状" fill="#000000"></path>
                </g>
            </g>
        </g>
    </g>
</svg>