<?xml version="1.0" encoding="UTF-8"?><svg version="1.1" width="128px" height="128px" viewBox="0 0 128.0 128.0" xmlns="http://www.w3.org/2000/svg" xmlns:xlink="http://www.w3.org/1999/xlink"><defs><clipPath id="i0"><path d="M1350,0 L1350,760 L0,760 L0,0 L1350,0 Z"></path></clipPath><clipPath id="i1"><path d="M128,0 L128,128 L0,128 L0,0 L128,0 Z"></path></clipPath><clipPath id="i2"><path d="M4.4137931,0 L4.4137931,4.4137931 L0,4.4137931 L0,0 L4.4137931,0 Z"></path></clipPath></defs><g transform="translate(-611.0 -289.0)"><g clip-path="url(#i0)"><g transform="translate(611.0 289.0)"><g clip-path="url(#i1)"><polygon points="0,0 128,0 128,128 0,128 0,0" stroke="none" fill="#FFFFFF"></polygon></g><g clip-path="url(#i2)"><polygon points="0,0 4.4137931,0 4.4137931,4.4137931 0,4.4137931 0,0" stroke="none" fill="#000000"></polygon></g><g transform="translate(4.41379310344837 0.0)"><g clip-path="url(#i2)"><polygon points="0,0 4.4137931,0 4.4137931,4.4137931 0,4.4137931 0,0" stroke="none" fill="#000000"></polygon></g></g><g transform="translate(8.82758620689674 0.0)"><g clip-path="url(#i2)"><polygon points="0,0 4.4137931,0 4.4137931,4.4137931 0,4.4137931 0,0" stroke="none" fill="#000000"></polygon></g></g><g transform="translate(13.241379310344659 0.0)"><g clip-path="url(#i2)"><polygon points="0,0 4.4137931,0 4.4137931,4.4137931 0,4.4137931 0,0" stroke="none" fill="#000000"></polygon></g></g><g transform="translate(17.65517241379303 0.0)"><g clip-path="url(#i2)"><polygon points="0,0 4.4137931,0 4.4137931,4.4137931 0,4.4137931 0,0" stroke="none" fill="#000000"></polygon></g></g><g transform="translate(22.06896551724139 0.0)"><g clip-path="url(#i2)"><polygon points="0,0 4.4137931,0 4.4137931,4.4137931 0,4.4137931 0,0" stroke="none" fill="#000000"></polygon></g></g><g transform="translate(26.48275862068976 0.0)"><g clip-path="url(#i2)"><polygon points="0,0 4.4137931,0 4.4137931,4.4137931 0,4.4137931 0,0" stroke="none" fill="#000000"></polygon></g></g><g transform="translate(35.31034482758605 0.0)"><g clip-path="url(#i2)"><polygon points="0,0 4.4137931,0 4.4137931,4.4137931 0,4.4137931 0,0" stroke="none" fill="#000000"></polygon></g></g><g transform="translate(66.20689655172418 0.0)"><g clip-path="url(#i2)"><polygon points="0,0 4.4137931,0 4.4137931,4.4137931 0,4.4137931 0,0" stroke="none" fill="#000000"></polygon></g></g><g transform="translate(70.62068965517255 0.0)"><g clip-path="url(#i2)"><polygon points="0,0 4.4137931,0 4.4137931,4.4137931 0,4.4137931 0,0" stroke="none" fill="#000000"></polygon></g></g><g transform="translate(83.86206896551721 0.0)"><g clip-path="url(#i2)"><polygon points="0,0 4.4137931,0 4.4137931,4.4137931 0,4.4137931 0,0" stroke="none" fill="#000000"></polygon></g></g><g transform="translate(97.10344827586232 0.0)"><g clip-path="url(#i2)"><polygon points="0,0 4.4137931,0 4.4137931,4.4137931 0,4.4137931 0,0" stroke="none" fill="#000000"></polygon></g></g><g transform="translate(101.5172413793102 0.0)"><g clip-path="url(#i2)"><polygon points="0,0 4.4137931,0 4.4137931,4.4137931 0,4.4137931 0,0" stroke="none" fill="#000000"></polygon></g></g><g transform="translate(105.9310344827586 0.0)"><g clip-path="url(#i2)"><polygon points="0,0 4.4137931,0 4.4137931,4.4137931 0,4.4137931 0,0" stroke="none" fill="#000000"></polygon></g></g><g transform="translate(110.344827586207 0.0)"><g clip-path="url(#i2)"><polygon points="0,0 4.4137931,0 4.4137931,4.4137931 0,4.4137931 0,0" stroke="none" fill="#000000"></polygon></g></g><g transform="translate(114.7586206896549 0.0)"><g clip-path="url(#i2)"><polygon points="0,0 4.4137931,0 4.4137931,4.4137931 0,4.4137931 0,0" stroke="none" fill="#000000"></polygon></g></g><g transform="translate(119.1724137931037 0.0)"><g clip-path="url(#i2)"><polygon points="0,0 4.4137931,0 4.4137931,4.4137931 0,4.4137931 0,0" stroke="none" fill="#000000"></polygon></g></g><g transform="translate(123.5862068965516 0.0)"><g clip-path="url(#i2)"><polygon points="0,0 4.4137931,0 4.4137931,4.4137931 0,4.4137931 0,0" stroke="none" fill="#000000"></polygon></g></g><g transform="translate(0.0 4.41379310344837)"><g clip-path="url(#i2)"><polygon points="0,0 4.4137931,0 4.4137931,4.4137931 0,4.4137931 0,0" stroke="none" fill="#000000"></polygon></g></g><g transform="translate(26.48275862068976 4.41379310344837)"><g clip-path="url(#i2)"><polygon points="0,0 4.4137931,0 4.4137931,4.4137931 0,4.4137931 0,0" stroke="none" fill="#000000"></polygon></g></g><g transform="translate(35.31034482758605 4.41379310344837)"><g clip-path="url(#i2)"><polygon points="0,0 4.4137931,0 4.4137931,4.4137931 0,4.4137931 0,0" stroke="none" fill="#000000"></polygon></g></g><g transform="translate(39.72413793103442 4.41379310344837)"><g clip-path="url(#i2)"><polygon points="0,0 4.4137931,0 4.4137931,4.4137931 0,4.4137931 0,0" stroke="none" fill="#000000"></polygon></g></g><g transform="translate(48.55172413793116 4.41379310344837)"><g clip-path="url(#i2)"><polygon points="0,0 4.4137931,0 4.4137931,4.4137931 0,4.4137931 0,0" stroke="none" fill="#000000"></polygon></g></g><g transform="translate(52.96551724137953 4.41379310344837)"><g clip-path="url(#i2)"><polygon points="0,0 4.4137931,0 4.4137931,4.4137931 0,4.4137931 0,0" stroke="none" fill="#000000"></polygon></g></g><g transform="translate(79.44827586206884 4.41379310344837)"><g clip-path="url(#i2)"><polygon points="0,0 4.4137931,0 4.4137931,4.4137931 0,4.4137931 0,0" stroke="none" fill="#000000"></polygon></g></g><g transform="translate(97.10344827586232 4.41379310344837)"><g clip-path="url(#i2)"><polygon points="0,0 4.4137931,0 4.4137931,4.4137931 0,4.4137931 0,0" stroke="none" fill="#000000"></polygon></g></g><g transform="translate(123.5862068965516 4.41379310344837)"><g clip-path="url(#i2)"><polygon points="0,0 4.4137931,0 4.4137931,4.4137931 0,4.4137931 0,0" stroke="none" fill="#000000"></polygon></g></g><g transform="translate(0.0 8.827586206896513)"><g clip-path="url(#i2)"><polygon points="0,0 4.4137931,0 4.4137931,4.4137931 0,4.4137931 0,0" stroke="none" fill="#000000"></polygon></g></g><g transform="translate(8.82758620689674 8.827586206896513)"><g clip-path="url(#i2)"><polygon points="0,0 4.4137931,0 4.4137931,4.4137931 0,4.4137931 0,0" stroke="none" fill="#000000"></polygon></g></g><g transform="translate(13.241379310344659 8.827586206896513)"><g clip-path="url(#i2)"><polygon points="0,0 4.4137931,0 4.4137931,4.4137931 0,4.4137931 0,0" stroke="none" fill="#000000"></polygon></g></g><g transform="translate(17.65517241379303 8.827586206896513)"><g clip-path="url(#i2)"><polygon points="0,0 4.4137931,0 4.4137931,4.4137931 0,4.4137931 0,0" stroke="none" fill="#000000"></polygon></g></g><g transform="translate(26.48275862068976 8.827586206896513)"><g clip-path="url(#i2)"><polygon points="0,0 4.4137931,0 4.4137931,4.4137931 0,4.4137931 0,0" stroke="none" fill="#000000"></polygon></g></g><g transform="translate(44.13793103448279 8.827586206896513)"><g clip-path="url(#i2)"><polygon points="0,0 4.4137931,0 4.4137931,4.4137931 0,4.4137931 0,0" stroke="none" fill="#000000"></polygon></g></g><g transform="translate(48.55172413793116 8.827586206896513)"><g clip-path="url(#i2)"><polygon points="0,0 4.4137931,0 4.4137931,4.4137931 0,4.4137931 0,0" stroke="none" fill="#000000"></polygon></g></g><g transform="translate(57.37931034482745 8.827586206896513)"><g clip-path="url(#i2)"><polygon points="0,0 4.4137931,0 4.4137931,4.4137931 0,4.4137931 0,0" stroke="none" fill="#000000"></polygon></g></g><g transform="translate(61.79310344827582 8.827586206896513)"><g clip-path="url(#i2)"><polygon points="0,0 4.4137931,0 4.4137931,4.4137931 0,4.4137931 0,0" stroke="none" fill="#000000"></polygon></g></g><g transform="translate(66.20689655172418 8.827586206896513)"><g clip-path="url(#i2)"><polygon points="0,0 4.4137931,0 4.4137931,4.4137931 0,4.4137931 0,0" stroke="none" fill="#000000"></polygon></g></g><g transform="translate(83.86206896551721 8.827586206896513)"><g clip-path="url(#i2)"><polygon points="0,0 4.4137931,0 4.4137931,4.4137931 0,4.4137931 0,0" stroke="none" fill="#000000"></polygon></g></g><g transform="translate(97.10344827586232 8.827586206896513)"><g clip-path="url(#i2)"><polygon points="0,0 4.4137931,0 4.4137931,4.4137931 0,4.4137931 0,0" stroke="none" fill="#000000"></polygon></g></g><g transform="translate(105.9310344827586 8.827586206896513)"><g clip-path="url(#i2)"><polygon points="0,0 4.4137931,0 4.4137931,4.4137931 0,4.4137931 0,0" stroke="none" fill="#000000"></polygon></g></g><g transform="translate(110.344827586207 8.827586206896513)"><g clip-path="url(#i2)"><polygon points="0,0 4.4137931,0 4.4137931,4.4137931 0,4.4137931 0,0" stroke="none" fill="#000000"></polygon></g></g><g transform="translate(114.7586206896549 8.827586206896513)"><g clip-path="url(#i2)"><polygon points="0,0 4.4137931,0 4.4137931,4.4137931 0,4.4137931 0,0" stroke="none" fill="#000000"></polygon></g></g><g transform="translate(123.5862068965516 8.827586206896513)"><g clip-path="url(#i2)"><polygon points="0,0 4.4137931,0 4.4137931,4.4137931 0,4.4137931 0,0" stroke="none" fill="#000000"></polygon></g></g><g transform="translate(0.0 13.241379310344879)"><g clip-path="url(#i2)"><polygon points="0,0 4.4137931,0 4.4137931,4.4137931 0,4.4137931 0,0" stroke="none" fill="#000000"></polygon></g></g><g transform="translate(8.82758620689674 13.241379310344879)"><g clip-path="url(#i2)"><polygon points="0,0 4.4137931,0 4.4137931,4.4137931 0,4.4137931 0,0" stroke="none" fill="#000000"></polygon></g></g><g transform="translate(13.241379310344659 13.241379310344879)"><g clip-path="url(#i2)"><polygon points="0,0 4.4137931,0 4.4137931,4.4137931 0,4.4137931 0,0" stroke="none" fill="#000000"></polygon></g></g><g transform="translate(17.65517241379303 13.241379310344879)"><g clip-path="url(#i2)"><polygon points="0,0 4.4137931,0 4.4137931,4.4137931 0,4.4137931 0,0" stroke="none" fill="#000000"></polygon></g></g><g transform="translate(26.48275862068976 13.241379310344879)"><g clip-path="url(#i2)"><polygon points="0,0 4.4137931,0 4.4137931,4.4137931 0,4.4137931 0,0" stroke="none" fill="#000000"></polygon></g></g><g transform="translate(35.31034482758605 13.241379310344879)"><g clip-path="url(#i2)"><polygon points="0,0 4.4137931,0 4.4137931,4.4137931 0,4.4137931 0,0" stroke="none" fill="#000000"></polygon></g></g><g transform="translate(44.13793103448279 13.241379310344879)"><g clip-path="url(#i2)"><polygon points="0,0 4.4137931,0 4.4137931,4.4137931 0,4.4137931 0,0" stroke="none" fill="#000000"></polygon></g></g><g transform="translate(48.55172413793116 13.241379310344879)"><g clip-path="url(#i2)"><polygon points="0,0 4.4137931,0 4.4137931,4.4137931 0,4.4137931 0,0" stroke="none" fill="#000000"></polygon></g></g><g transform="translate(61.79310344827582 13.241379310344879)"><g clip-path="url(#i2)"><polygon points="0,0 4.4137931,0 4.4137931,4.4137931 0,4.4137931 0,0" stroke="none" fill="#000000"></polygon></g></g><g transform="translate(66.20689655172418 13.241379310344879)"><g clip-path="url(#i2)"><polygon points="0,0 4.4137931,0 4.4137931,4.4137931 0,4.4137931 0,0" stroke="none" fill="#000000"></polygon></g></g><g transform="translate(70.62068965517255 13.241379310344879)"><g clip-path="url(#i2)"><polygon points="0,0 4.4137931,0 4.4137931,4.4137931 0,4.4137931 0,0" stroke="none" fill="#000000"></polygon></g></g><g transform="translate(75.03448275862047 13.241379310344879)"><g clip-path="url(#i2)"><polygon points="0,0 4.4137931,0 4.4137931,4.4137931 0,4.4137931 0,0" stroke="none" fill="#000000"></polygon></g></g><g transform="translate(79.44827586206884 13.241379310344879)"><g clip-path="url(#i2)"><polygon points="0,0 4.4137931,0 4.4137931,4.4137931 0,4.4137931 0,0" stroke="none" fill="#000000"></polygon></g></g><g transform="translate(88.27586206896558 13.241379310344879)"><g clip-path="url(#i2)"><polygon points="0,0 4.4137931,0 4.4137931,4.4137931 0,4.4137931 0,0" stroke="none" fill="#000000"></polygon></g></g><g transform="translate(97.10344827586232 13.241379310344879)"><g clip-path="url(#i2)"><polygon points="0,0 4.4137931,0 4.4137931,4.4137931 0,4.4137931 0,0" stroke="none" fill="#000000"></polygon></g></g><g transform="translate(105.9310344827586 13.241379310344879)"><g clip-path="url(#i2)"><polygon points="0,0 4.4137931,0 4.4137931,4.4137931 0,4.4137931 0,0" stroke="none" fill="#000000"></polygon></g></g><g transform="translate(110.344827586207 13.241379310344879)"><g clip-path="url(#i2)"><polygon points="0,0 4.4137931,0 4.4137931,4.4137931 0,4.4137931 0,0" stroke="none" fill="#000000"></polygon></g></g><g transform="translate(114.7586206896549 13.241379310344879)"><g clip-path="url(#i2)"><polygon points="0,0 4.4137931,0 4.4137931,4.4137931 0,4.4137931 0,0" stroke="none" fill="#000000"></polygon></g></g><g transform="translate(123.5862068965516 13.241379310344879)"><g clip-path="url(#i2)"><polygon points="0,0 4.4137931,0 4.4137931,4.4137931 0,4.4137931 0,0" stroke="none" fill="#000000"></polygon></g></g><g transform="translate(0.0 17.65517241379303)"><g clip-path="url(#i2)"><polygon points="0,0 4.4137931,0 4.4137931,4.4137931 0,4.4137931 0,0" stroke="none" fill="#000000"></polygon></g></g><g transform="translate(8.82758620689674 17.65517241379303)"><g clip-path="url(#i2)"><polygon points="0,0 4.4137931,0 4.4137931,4.4137931 0,4.4137931 0,0" stroke="none" fill="#000000"></polygon></g></g><g transform="translate(13.241379310344659 17.65517241379303)"><g clip-path="url(#i2)"><polygon points="0,0 4.4137931,0 4.4137931,4.4137931 0,4.4137931 0,0" stroke="none" fill="#000000"></polygon></g></g><g transform="translate(17.65517241379303 17.65517241379303)"><g clip-path="url(#i2)"><polygon points="0,0 4.4137931,0 4.4137931,4.4137931 0,4.4137931 0,0" stroke="none" fill="#000000"></polygon></g></g><g transform="translate(26.48275862068976 17.65517241379303)"><g clip-path="url(#i2)"><polygon points="0,0 4.4137931,0 4.4137931,4.4137931 0,4.4137931 0,0" stroke="none" fill="#000000"></polygon></g></g><g transform="translate(44.13793103448279 17.65517241379303)"><g clip-path="url(#i2)"><polygon points="0,0 4.4137931,0 4.4137931,4.4137931 0,4.4137931 0,0" stroke="none" fill="#000000"></polygon></g></g><g transform="translate(48.55172413793116 17.65517241379303)"><g clip-path="url(#i2)"><polygon points="0,0 4.4137931,0 4.4137931,4.4137931 0,4.4137931 0,0" stroke="none" fill="#000000"></polygon></g></g><g transform="translate(52.96551724137953 17.65517241379303)"><g clip-path="url(#i2)"><polygon points="0,0 4.4137931,0 4.4137931,4.4137931 0,4.4137931 0,0" stroke="none" fill="#000000"></polygon></g></g><g transform="translate(57.37931034482745 17.65517241379303)"><g clip-path="url(#i2)"><polygon points="0,0 4.4137931,0 4.4137931,4.4137931 0,4.4137931 0,0" stroke="none" fill="#000000"></polygon></g></g><g transform="translate(61.79310344827582 17.65517241379303)"><g clip-path="url(#i2)"><polygon points="0,0 4.4137931,0 4.4137931,4.4137931 0,4.4137931 0,0" stroke="none" fill="#000000"></polygon></g></g><g transform="translate(66.20689655172418 17.65517241379303)"><g clip-path="url(#i2)"><polygon points="0,0 4.4137931,0 4.4137931,4.4137931 0,4.4137931 0,0" stroke="none" fill="#000000"></polygon></g></g><g transform="translate(70.62068965517255 17.65517241379303)"><g clip-path="url(#i2)"><polygon points="0,0 4.4137931,0 4.4137931,4.4137931 0,4.4137931 0,0" stroke="none" fill="#000000"></polygon></g></g><g transform="translate(75.03448275862047 17.65517241379303)"><g clip-path="url(#i2)"><polygon points="0,0 4.4137931,0 4.4137931,4.4137931 0,4.4137931 0,0" stroke="none" fill="#000000"></polygon></g></g><g transform="translate(79.44827586206884 17.65517241379303)"><g clip-path="url(#i2)"><polygon points="0,0 4.4137931,0 4.4137931,4.4137931 0,4.4137931 0,0" stroke="none" fill="#000000"></polygon></g></g><g transform="translate(83.86206896551721 17.65517241379303)"><g clip-path="url(#i2)"><polygon points="0,0 4.4137931,0 4.4137931,4.4137931 0,4.4137931 0,0" stroke="none" fill="#000000"></polygon></g></g><g transform="translate(88.27586206896558 17.65517241379303)"><g clip-path="url(#i2)"><polygon points="0,0 4.4137931,0 4.4137931,4.4137931 0,4.4137931 0,0" stroke="none" fill="#000000"></polygon></g></g><g transform="translate(97.10344827586232 17.65517241379303)"><g clip-path="url(#i2)"><polygon points="0,0 4.4137931,0 4.4137931,4.4137931 0,4.4137931 0,0" stroke="none" fill="#000000"></polygon></g></g><g transform="translate(105.9310344827586 17.65517241379303)"><g clip-path="url(#i2)"><polygon points="0,0 4.4137931,0 4.4137931,4.4137931 0,4.4137931 0,0" stroke="none" fill="#000000"></polygon></g></g><g transform="translate(110.344827586207 17.65517241379303)"><g clip-path="url(#i2)"><polygon points="0,0 4.4137931,0 4.4137931,4.4137931 0,4.4137931 0,0" stroke="none" fill="#000000"></polygon></g></g><g transform="translate(114.7586206896549 17.65517241379303)"><g clip-path="url(#i2)"><polygon points="0,0 4.4137931,0 4.4137931,4.4137931 0,4.4137931 0,0" stroke="none" fill="#000000"></polygon></g></g><g transform="translate(123.5862068965516 17.65517241379303)"><g clip-path="url(#i2)"><polygon points="0,0 4.4137931,0 4.4137931,4.4137931 0,4.4137931 0,0" stroke="none" fill="#000000"></polygon></g></g><g transform="translate(0.0 22.06896551724139)"><g clip-path="url(#i2)"><polygon points="0,0 4.4137931,0 4.4137931,4.4137931 0,4.4137931 0,0" stroke="none" fill="#000000"></polygon></g></g><g transform="translate(26.48275862068976 22.06896551724139)"><g clip-path="url(#i2)"><polygon points="0,0 4.4137931,0 4.4137931,4.4137931 0,4.4137931 0,0" stroke="none" fill="#000000"></polygon></g></g><g transform="translate(39.72413793103442 22.06896551724139)"><g clip-path="url(#i2)"><polygon points="0,0 4.4137931,0 4.4137931,4.4137931 0,4.4137931 0,0" stroke="none" fill="#000000"></polygon></g></g><g transform="translate(44.13793103448279 22.06896551724139)"><g clip-path="url(#i2)"><polygon points="0,0 4.4137931,0 4.4137931,4.4137931 0,4.4137931 0,0" stroke="none" fill="#000000"></polygon></g></g><g transform="translate(48.55172413793116 22.06896551724139)"><g clip-path="url(#i2)"><polygon points="0,0 4.4137931,0 4.4137931,4.4137931 0,4.4137931 0,0" stroke="none" fill="#000000"></polygon></g></g><g transform="translate(61.79310344827582 22.06896551724139)"><g clip-path="url(#i2)"><polygon points="0,0 4.4137931,0 4.4137931,4.4137931 0,4.4137931 0,0" stroke="none" fill="#000000"></polygon></g></g><g transform="translate(70.62068965517255 22.06896551724139)"><g clip-path="url(#i2)"><polygon points="0,0 4.4137931,0 4.4137931,4.4137931 0,4.4137931 0,0" stroke="none" fill="#000000"></polygon></g></g><g transform="translate(79.44827586206884 22.06896551724139)"><g clip-path="url(#i2)"><polygon points="0,0 4.4137931,0 4.4137931,4.4137931 0,4.4137931 0,0" stroke="none" fill="#000000"></polygon></g></g><g transform="translate(83.86206896551721 22.06896551724139)"><g clip-path="url(#i2)"><polygon points="0,0 4.4137931,0 4.4137931,4.4137931 0,4.4137931 0,0" stroke="none" fill="#000000"></polygon></g></g><g transform="translate(88.27586206896558 22.06896551724139)"><g clip-path="url(#i2)"><polygon points="0,0 4.4137931,0 4.4137931,4.4137931 0,4.4137931 0,0" stroke="none" fill="#000000"></polygon></g></g><g transform="translate(97.10344827586232 22.06896551724139)"><g clip-path="url(#i2)"><polygon points="0,0 4.4137931,0 4.4137931,4.4137931 0,4.4137931 0,0" stroke="none" fill="#000000"></polygon></g></g><g transform="translate(123.5862068965516 22.06896551724139)"><g clip-path="url(#i2)"><polygon points="0,0 4.4137931,0 4.4137931,4.4137931 0,4.4137931 0,0" stroke="none" fill="#000000"></polygon></g></g><g transform="translate(0.0 26.48275862068976)"><g clip-path="url(#i2)"><polygon points="0,0 4.4137931,0 4.4137931,4.4137931 0,4.4137931 0,0" stroke="none" fill="#000000"></polygon></g></g><g transform="translate(4.41379310344837 26.48275862068976)"><g clip-path="url(#i2)"><polygon points="0,0 4.4137931,0 4.4137931,4.4137931 0,4.4137931 0,0" stroke="none" fill="#000000"></polygon></g></g><g transform="translate(8.82758620689674 26.48275862068976)"><g clip-path="url(#i2)"><polygon points="0,0 4.4137931,0 4.4137931,4.4137931 0,4.4137931 0,0" stroke="none" fill="#000000"></polygon></g></g><g transform="translate(13.241379310344659 26.48275862068976)"><g clip-path="url(#i2)"><polygon points="0,0 4.4137931,0 4.4137931,4.4137931 0,4.4137931 0,0" stroke="none" fill="#000000"></polygon></g></g><g transform="translate(17.65517241379303 26.48275862068976)"><g clip-path="url(#i2)"><polygon points="0,0 4.4137931,0 4.4137931,4.4137931 0,4.4137931 0,0" stroke="none" fill="#000000"></polygon></g></g><g transform="translate(22.06896551724139 26.48275862068976)"><g clip-path="url(#i2)"><polygon points="0,0 4.4137931,0 4.4137931,4.4137931 0,4.4137931 0,0" stroke="none" fill="#000000"></polygon></g></g><g transform="translate(26.48275862068976 26.48275862068976)"><g clip-path="url(#i2)"><polygon points="0,0 4.4137931,0 4.4137931,4.4137931 0,4.4137931 0,0" stroke="none" fill="#000000"></polygon></g></g><g transform="translate(35.31034482758605 26.48275862068976)"><g clip-path="url(#i2)"><polygon points="0,0 4.4137931,0 4.4137931,4.4137931 0,4.4137931 0,0" stroke="none" fill="#000000"></polygon></g></g><g transform="translate(44.13793103448279 26.48275862068976)"><g clip-path="url(#i2)"><polygon points="0,0 4.4137931,0 4.4137931,4.4137931 0,4.4137931 0,0" stroke="none" fill="#000000"></polygon></g></g><g transform="translate(52.96551724137953 26.48275862068976)"><g clip-path="url(#i2)"><polygon points="0,0 4.4137931,0 4.4137931,4.4137931 0,4.4137931 0,0" stroke="none" fill="#000000"></polygon></g></g><g transform="translate(61.79310344827582 26.48275862068976)"><g clip-path="url(#i2)"><polygon points="0,0 4.4137931,0 4.4137931,4.4137931 0,4.4137931 0,0" stroke="none" fill="#000000"></polygon></g></g><g transform="translate(70.62068965517255 26.48275862068976)"><g clip-path="url(#i2)"><polygon points="0,0 4.4137931,0 4.4137931,4.4137931 0,4.4137931 0,0" stroke="none" fill="#000000"></polygon></g></g><g transform="translate(79.44827586206884 26.48275862068976)"><g clip-path="url(#i2)"><polygon points="0,0 4.4137931,0 4.4137931,4.4137931 0,4.4137931 0,0" stroke="none" fill="#000000"></polygon></g></g><g transform="translate(88.27586206896558 26.48275862068976)"><g clip-path="url(#i2)"><polygon points="0,0 4.4137931,0 4.4137931,4.4137931 0,4.4137931 0,0" stroke="none" fill="#000000"></polygon></g></g><g transform="translate(97.10344827586232 26.48275862068976)"><g clip-path="url(#i2)"><polygon points="0,0 4.4137931,0 4.4137931,4.4137931 0,4.4137931 0,0" stroke="none" fill="#000000"></polygon></g></g><g transform="translate(101.5172413793102 26.48275862068976)"><g clip-path="url(#i2)"><polygon points="0,0 4.4137931,0 4.4137931,4.4137931 0,4.4137931 0,0" stroke="none" fill="#000000"></polygon></g></g><g transform="translate(105.9310344827586 26.48275862068976)"><g clip-path="url(#i2)"><polygon points="0,0 4.4137931,0 4.4137931,4.4137931 0,4.4137931 0,0" stroke="none" fill="#000000"></polygon></g></g><g transform="translate(110.344827586207 26.48275862068976)"><g clip-path="url(#i2)"><polygon points="0,0 4.4137931,0 4.4137931,4.4137931 0,4.4137931 0,0" stroke="none" fill="#000000"></polygon></g></g><g transform="translate(114.7586206896549 26.48275862068976)"><g clip-path="url(#i2)"><polygon points="0,0 4.4137931,0 4.4137931,4.4137931 0,4.4137931 0,0" stroke="none" fill="#000000"></polygon></g></g><g transform="translate(119.1724137931037 26.48275862068976)"><g clip-path="url(#i2)"><polygon points="0,0 4.4137931,0 4.4137931,4.4137931 0,4.4137931 0,0" stroke="none" fill="#000000"></polygon></g></g><g transform="translate(123.5862068965516 26.48275862068976)"><g clip-path="url(#i2)"><polygon points="0,0 4.4137931,0 4.4137931,4.4137931 0,4.4137931 0,0" stroke="none" fill="#000000"></polygon></g></g><g transform="translate(35.31034482758605 30.89655172413813)"><g clip-path="url(#i2)"><polygon points="0,0 4.4137931,0 4.4137931,4.4137931 0,4.4137931 0,0" stroke="none" fill="#000000"></polygon></g></g><g transform="translate(39.72413793103442 30.89655172413813)"><g clip-path="url(#i2)"><polygon points="0,0 4.4137931,0 4.4137931,4.4137931 0,4.4137931 0,0" stroke="none" fill="#000000"></polygon></g></g><g transform="translate(48.55172413793116 30.89655172413813)"><g clip-path="url(#i2)"><polygon points="0,0 4.4137931,0 4.4137931,4.4137931 0,4.4137931 0,0" stroke="none" fill="#000000"></polygon></g></g><g transform="translate(61.79310344827582 30.89655172413813)"><g clip-path="url(#i2)"><polygon points="0,0 4.4137931,0 4.4137931,4.4137931 0,4.4137931 0,0" stroke="none" fill="#000000"></polygon></g></g><g transform="translate(66.20689655172418 30.89655172413813)"><g clip-path="url(#i2)"><polygon points="0,0 4.4137931,0 4.4137931,4.4137931 0,4.4137931 0,0" stroke="none" fill="#000000"></polygon></g></g><g transform="translate(70.62068965517255 30.89655172413813)"><g clip-path="url(#i2)"><polygon points="0,0 4.4137931,0 4.4137931,4.4137931 0,4.4137931 0,0" stroke="none" fill="#000000"></polygon></g></g><g transform="translate(75.03448275862047 30.89655172413813)"><g clip-path="url(#i2)"><polygon points="0,0 4.4137931,0 4.4137931,4.4137931 0,4.4137931 0,0" stroke="none" fill="#000000"></polygon></g></g><g transform="translate(79.44827586206884 30.89655172413813)"><g clip-path="url(#i2)"><polygon points="0,0 4.4137931,0 4.4137931,4.4137931 0,4.4137931 0,0" stroke="none" fill="#000000"></polygon></g></g><g transform="translate(83.86206896551721 30.89655172413813)"><g clip-path="url(#i2)"><polygon points="0,0 4.4137931,0 4.4137931,4.4137931 0,4.4137931 0,0" stroke="none" fill="#000000"></polygon></g></g><g transform="translate(0.0 35.31034482758605)"><g clip-path="url(#i2)"><polygon points="0,0 4.4137931,0 4.4137931,4.4137931 0,4.4137931 0,0" stroke="none" fill="#000000"></polygon></g></g><g transform="translate(8.82758620689674 35.31034482758605)"><g clip-path="url(#i2)"><polygon points="0,0 4.4137931,0 4.4137931,4.4137931 0,4.4137931 0,0" stroke="none" fill="#000000"></polygon></g></g><g transform="translate(13.241379310344659 35.31034482758605)"><g clip-path="url(#i2)"><polygon points="0,0 4.4137931,0 4.4137931,4.4137931 0,4.4137931 0,0" stroke="none" fill="#000000"></polygon></g></g><g transform="translate(22.06896551724139 35.31034482758605)"><g clip-path="url(#i2)"><polygon points="0,0 4.4137931,0 4.4137931,4.4137931 0,4.4137931 0,0" stroke="none" fill="#000000"></polygon></g></g><g transform="translate(26.48275862068976 35.31034482758605)"><g clip-path="url(#i2)"><polygon points="0,0 4.4137931,0 4.4137931,4.4137931 0,4.4137931 0,0" stroke="none" fill="#000000"></polygon></g></g><g transform="translate(30.89655172413813 35.31034482758605)"><g clip-path="url(#i2)"><polygon points="0,0 4.4137931,0 4.4137931,4.4137931 0,4.4137931 0,0" stroke="none" fill="#000000"></polygon></g></g><g transform="translate(48.55172413793116 35.31034482758605)"><g clip-path="url(#i2)"><polygon points="0,0 4.4137931,0 4.4137931,4.4137931 0,4.4137931 0,0" stroke="none" fill="#000000"></polygon></g></g><g transform="translate(52.96551724137953 35.31034482758605)"><g clip-path="url(#i2)"><polygon points="0,0 4.4137931,0 4.4137931,4.4137931 0,4.4137931 0,0" stroke="none" fill="#000000"></polygon></g></g><g transform="translate(57.37931034482745 35.31034482758605)"><g clip-path="url(#i2)"><polygon points="0,0 4.4137931,0 4.4137931,4.4137931 0,4.4137931 0,0" stroke="none" fill="#000000"></polygon></g></g><g transform="translate(61.79310344827582 35.31034482758605)"><g clip-path="url(#i2)"><polygon points="0,0 4.4137931,0 4.4137931,4.4137931 0,4.4137931 0,0" stroke="none" fill="#000000"></polygon></g></g><g transform="translate(75.03448275862047 35.31034482758605)"><g clip-path="url(#i2)"><polygon points="0,0 4.4137931,0 4.4137931,4.4137931 0,4.4137931 0,0" stroke="none" fill="#000000"></polygon></g></g><g transform="translate(97.10344827586232 35.31034482758605)"><g clip-path="url(#i2)"><polygon points="0,0 4.4137931,0 4.4137931,4.4137931 0,4.4137931 0,0" stroke="none" fill="#000000"></polygon></g></g><g transform="translate(110.344827586207 35.31034482758605)"><g clip-path="url(#i2)"><polygon points="0,0 4.4137931,0 4.4137931,4.4137931 0,4.4137931 0,0" stroke="none" fill="#000000"></polygon></g></g><g transform="translate(119.1724137931037 35.31034482758605)"><g clip-path="url(#i2)"><polygon points="0,0 4.4137931,0 4.4137931,4.4137931 0,4.4137931 0,0" stroke="none" fill="#000000"></polygon></g></g><g transform="translate(123.5862068965516 35.31034482758605)"><g clip-path="url(#i2)"><polygon points="0,0 4.4137931,0 4.4137931,4.4137931 0,4.4137931 0,0" stroke="none" fill="#000000"></polygon></g></g><g transform="translate(30.89655172413813 39.72413793103442)"><g clip-path="url(#i2)"><polygon points="0,0 4.4137931,0 4.4137931,4.4137931 0,4.4137931 0,0" stroke="none" fill="#000000"></polygon></g></g><g transform="translate(57.37931034482745 39.72413793103442)"><g clip-path="url(#i2)"><polygon points="0,0 4.4137931,0 4.4137931,4.4137931 0,4.4137931 0,0" stroke="none" fill="#000000"></polygon></g></g><g transform="translate(66.20689655172418 39.72413793103442)"><g clip-path="url(#i2)"><polygon points="0,0 4.4137931,0 4.4137931,4.4137931 0,4.4137931 0,0" stroke="none" fill="#000000"></polygon></g></g><g transform="translate(70.62068965517255 39.72413793103442)"><g clip-path="url(#i2)"><polygon points="0,0 4.4137931,0 4.4137931,4.4137931 0,4.4137931 0,0" stroke="none" fill="#000000"></polygon></g></g><g transform="translate(83.86206896551721 39.72413793103442)"><g clip-path="url(#i2)"><polygon points="0,0 4.4137931,0 4.4137931,4.4137931 0,4.4137931 0,0" stroke="none" fill="#000000"></polygon></g></g><g transform="translate(92.6896551724135 39.72413793103442)"><g clip-path="url(#i2)"><polygon points="0,0 4.4137931,0 4.4137931,4.4137931 0,4.4137931 0,0" stroke="none" fill="#000000"></polygon></g></g><g transform="translate(97.10344827586232 39.72413793103442)"><g clip-path="url(#i2)"><polygon points="0,0 4.4137931,0 4.4137931,4.4137931 0,4.4137931 0,0" stroke="none" fill="#000000"></polygon></g></g><g transform="translate(105.9310344827586 39.72413793103442)"><g clip-path="url(#i2)"><polygon points="0,0 4.4137931,0 4.4137931,4.4137931 0,4.4137931 0,0" stroke="none" fill="#000000"></polygon></g></g><g transform="translate(123.5862068965516 39.72413793103442)"><g clip-path="url(#i2)"><polygon points="0,0 4.4137931,0 4.4137931,4.4137931 0,4.4137931 0,0" stroke="none" fill="#000000"></polygon></g></g><g transform="translate(0.0 44.13793103448279)"><g clip-path="url(#i2)"><polygon points="0,0 4.4137931,0 4.4137931,4.4137931 0,4.4137931 0,0" stroke="none" fill="#000000"></polygon></g></g><g transform="translate(4.41379310344837 44.13793103448279)"><g clip-path="url(#i2)"><polygon points="0,0 4.4137931,0 4.4137931,4.4137931 0,4.4137931 0,0" stroke="none" fill="#000000"></polygon></g></g><g transform="translate(8.82758620689674 44.13793103448279)"><g clip-path="url(#i2)"><polygon points="0,0 4.4137931,0 4.4137931,4.4137931 0,4.4137931 0,0" stroke="none" fill="#000000"></polygon></g></g><g transform="translate(13.241379310344659 44.13793103448279)"><g clip-path="url(#i2)"><polygon points="0,0 4.4137931,0 4.4137931,4.4137931 0,4.4137931 0,0" stroke="none" fill="#000000"></polygon></g></g><g transform="translate(17.65517241379303 44.13793103448279)"><g clip-path="url(#i2)"><polygon points="0,0 4.4137931,0 4.4137931,4.4137931 0,4.4137931 0,0" stroke="none" fill="#000000"></polygon></g></g><g transform="translate(26.48275862068976 44.13793103448279)"><g clip-path="url(#i2)"><polygon points="0,0 4.4137931,0 4.4137931,4.4137931 0,4.4137931 0,0" stroke="none" fill="#000000"></polygon></g></g><g transform="translate(30.89655172413813 44.13793103448279)"><g clip-path="url(#i2)"><polygon points="0,0 4.4137931,0 4.4137931,4.4137931 0,4.4137931 0,0" stroke="none" fill="#000000"></polygon></g></g><g transform="translate(44.13793103448279 44.13793103448279)"><g clip-path="url(#i2)"><polygon points="0,0 4.4137931,0 4.4137931,4.4137931 0,4.4137931 0,0" stroke="none" fill="#000000"></polygon></g></g><g transform="translate(48.55172413793116 44.13793103448279)"><g clip-path="url(#i2)"><polygon points="0,0 4.4137931,0 4.4137931,4.4137931 0,4.4137931 0,0" stroke="none" fill="#000000"></polygon></g></g><g transform="translate(52.96551724137953 44.13793103448279)"><g clip-path="url(#i2)"><polygon points="0,0 4.4137931,0 4.4137931,4.4137931 0,4.4137931 0,0" stroke="none" fill="#000000"></polygon></g></g><g transform="translate(70.62068965517255 44.13793103448279)"><g clip-path="url(#i2)"><polygon points="0,0 4.4137931,0 4.4137931,4.4137931 0,4.4137931 0,0" stroke="none" fill="#000000"></polygon></g></g><g transform="translate(92.6896551724135 44.13793103448279)"><g clip-path="url(#i2)"><polygon points="0,0 4.4137931,0 4.4137931,4.4137931 0,4.4137931 0,0" stroke="none" fill="#000000"></polygon></g></g><g transform="translate(97.10344827586232 44.13793103448279)"><g clip-path="url(#i2)"><polygon points="0,0 4.4137931,0 4.4137931,4.4137931 0,4.4137931 0,0" stroke="none" fill="#000000"></polygon></g></g><g transform="translate(101.5172413793102 44.13793103448279)"><g clip-path="url(#i2)"><polygon points="0,0 4.4137931,0 4.4137931,4.4137931 0,4.4137931 0,0" stroke="none" fill="#000000"></polygon></g></g><g transform="translate(105.9310344827586 44.13793103448279)"><g clip-path="url(#i2)"><polygon points="0,0 4.4137931,0 4.4137931,4.4137931 0,4.4137931 0,0" stroke="none" fill="#000000"></polygon></g></g><g transform="translate(114.7586206896549 44.13793103448279)"><g clip-path="url(#i2)"><polygon points="0,0 4.4137931,0 4.4137931,4.4137931 0,4.4137931 0,0" stroke="none" fill="#000000"></polygon></g></g><g transform="translate(119.1724137931037 44.13793103448279)"><g clip-path="url(#i2)"><polygon points="0,0 4.4137931,0 4.4137931,4.4137931 0,4.4137931 0,0" stroke="none" fill="#000000"></polygon></g></g><g transform="translate(13.241379310344659 48.55172413793116)"><g clip-path="url(#i2)"><polygon points="0,0 4.4137931,0 4.4137931,4.4137931 0,4.4137931 0,0" stroke="none" fill="#000000"></polygon></g></g><g transform="translate(22.06896551724139 48.55172413793116)"><g clip-path="url(#i2)"><polygon points="0,0 4.4137931,0 4.4137931,4.4137931 0,4.4137931 0,0" stroke="none" fill="#000000"></polygon></g></g><g transform="translate(35.31034482758605 48.55172413793116)"><g clip-path="url(#i2)"><polygon points="0,0 4.4137931,0 4.4137931,4.4137931 0,4.4137931 0,0" stroke="none" fill="#000000"></polygon></g></g><g transform="translate(39.72413793103442 48.55172413793116)"><g clip-path="url(#i2)"><polygon points="0,0 4.4137931,0 4.4137931,4.4137931 0,4.4137931 0,0" stroke="none" fill="#000000"></polygon></g></g><g transform="translate(44.13793103448279 48.55172413793116)"><g clip-path="url(#i2)"><polygon points="0,0 4.4137931,0 4.4137931,4.4137931 0,4.4137931 0,0" stroke="none" fill="#000000"></polygon></g></g><g transform="translate(48.55172413793116 48.55172413793116)"><g clip-path="url(#i2)"><polygon points="0,0 4.4137931,0 4.4137931,4.4137931 0,4.4137931 0,0" stroke="none" fill="#000000"></polygon></g></g><g transform="translate(52.96551724137953 48.55172413793116)"><g clip-path="url(#i2)"><polygon points="0,0 4.4137931,0 4.4137931,4.4137931 0,4.4137931 0,0" stroke="none" fill="#000000"></polygon></g></g><g transform="translate(57.37931034482745 48.55172413793116)"><g clip-path="url(#i2)"><polygon points="0,0 4.4137931,0 4.4137931,4.4137931 0,4.4137931 0,0" stroke="none" fill="#000000"></polygon></g></g><g transform="translate(79.44827586206884 48.55172413793116)"><g clip-path="url(#i2)"><polygon points="0,0 4.4137931,0 4.4137931,4.4137931 0,4.4137931 0,0" stroke="none" fill="#000000"></polygon></g></g><g transform="translate(83.86206896551721 48.55172413793116)"><g clip-path="url(#i2)"><polygon points="0,0 4.4137931,0 4.4137931,4.4137931 0,4.4137931 0,0" stroke="none" fill="#000000"></polygon></g></g><g transform="translate(88.27586206896558 48.55172413793116)"><g clip-path="url(#i2)"><polygon points="0,0 4.4137931,0 4.4137931,4.4137931 0,4.4137931 0,0" stroke="none" fill="#000000"></polygon></g></g><g transform="translate(101.5172413793102 48.55172413793116)"><g clip-path="url(#i2)"><polygon points="0,0 4.4137931,0 4.4137931,4.4137931 0,4.4137931 0,0" stroke="none" fill="#000000"></polygon></g></g><g transform="translate(123.5862068965516 48.55172413793116)"><g clip-path="url(#i2)"><polygon points="0,0 4.4137931,0 4.4137931,4.4137931 0,4.4137931 0,0" stroke="none" fill="#000000"></polygon></g></g><g transform="translate(13.241379310344659 52.96551724137953)"><g clip-path="url(#i2)"><polygon points="0,0 4.4137931,0 4.4137931,4.4137931 0,4.4137931 0,0" stroke="none" fill="#000000"></polygon></g></g><g transform="translate(26.48275862068976 52.96551724137953)"><g clip-path="url(#i2)"><polygon points="0,0 4.4137931,0 4.4137931,4.4137931 0,4.4137931 0,0" stroke="none" fill="#000000"></polygon></g></g><g transform="translate(30.89655172413813 52.96551724137953)"><g clip-path="url(#i2)"><polygon points="0,0 4.4137931,0 4.4137931,4.4137931 0,4.4137931 0,0" stroke="none" fill="#000000"></polygon></g></g><g transform="translate(52.96551724137953 52.96551724137953)"><g clip-path="url(#i2)"><polygon points="0,0 4.4137931,0 4.4137931,4.4137931 0,4.4137931 0,0" stroke="none" fill="#000000"></polygon></g></g><g transform="translate(57.37931034482745 52.96551724137953)"><g clip-path="url(#i2)"><polygon points="0,0 4.4137931,0 4.4137931,4.4137931 0,4.4137931 0,0" stroke="none" fill="#000000"></polygon></g></g><g transform="translate(66.20689655172418 52.96551724137953)"><g clip-path="url(#i2)"><polygon points="0,0 4.4137931,0 4.4137931,4.4137931 0,4.4137931 0,0" stroke="none" fill="#000000"></polygon></g></g><g transform="translate(75.03448275862047 52.96551724137953)"><g clip-path="url(#i2)"><polygon points="0,0 4.4137931,0 4.4137931,4.4137931 0,4.4137931 0,0" stroke="none" fill="#000000"></polygon></g></g><g transform="translate(79.44827586206884 52.96551724137953)"><g clip-path="url(#i2)"><polygon points="0,0 4.4137931,0 4.4137931,4.4137931 0,4.4137931 0,0" stroke="none" fill="#000000"></polygon></g></g><g transform="translate(110.344827586207 52.96551724137953)"><g clip-path="url(#i2)"><polygon points="0,0 4.4137931,0 4.4137931,4.4137931 0,4.4137931 0,0" stroke="none" fill="#000000"></polygon></g></g><g transform="translate(114.7586206896549 52.96551724137953)"><g clip-path="url(#i2)"><polygon points="0,0 4.4137931,0 4.4137931,4.4137931 0,4.4137931 0,0" stroke="none" fill="#000000"></polygon></g></g><g transform="translate(0.0 57.37931034482745)"><g clip-path="url(#i2)"><polygon points="0,0 4.4137931,0 4.4137931,4.4137931 0,4.4137931 0,0" stroke="none" fill="#000000"></polygon></g></g><g transform="translate(4.41379310344837 57.37931034482745)"><g clip-path="url(#i2)"><polygon points="0,0 4.4137931,0 4.4137931,4.4137931 0,4.4137931 0,0" stroke="none" fill="#000000"></polygon></g></g><g transform="translate(13.241379310344659 57.37931034482745)"><g clip-path="url(#i2)"><polygon points="0,0 4.4137931,0 4.4137931,4.4137931 0,4.4137931 0,0" stroke="none" fill="#000000"></polygon></g></g><g transform="translate(22.06896551724139 57.37931034482745)"><g clip-path="url(#i2)"><polygon points="0,0 4.4137931,0 4.4137931,4.4137931 0,4.4137931 0,0" stroke="none" fill="#000000"></polygon></g></g><g transform="translate(30.89655172413813 57.37931034482745)"><g clip-path="url(#i2)"><polygon points="0,0 4.4137931,0 4.4137931,4.4137931 0,4.4137931 0,0" stroke="none" fill="#000000"></polygon></g></g><g transform="translate(39.72413793103442 57.37931034482745)"><g clip-path="url(#i2)"><polygon points="0,0 4.4137931,0 4.4137931,4.4137931 0,4.4137931 0,0" stroke="none" fill="#000000"></polygon></g></g><g transform="translate(48.55172413793116 57.37931034482745)"><g clip-path="url(#i2)"><polygon points="0,0 4.4137931,0 4.4137931,4.4137931 0,4.4137931 0,0" stroke="none" fill="#000000"></polygon></g></g><g transform="translate(57.37931034482745 57.37931034482745)"><g clip-path="url(#i2)"><polygon points="0,0 4.4137931,0 4.4137931,4.4137931 0,4.4137931 0,0" stroke="none" fill="#000000"></polygon></g></g><g transform="translate(66.20689655172418 57.37931034482745)"><g clip-path="url(#i2)"><polygon points="0,0 4.4137931,0 4.4137931,4.4137931 0,4.4137931 0,0" stroke="none" fill="#000000"></polygon></g></g><g transform="translate(70.62068965517255 57.37931034482745)"><g clip-path="url(#i2)"><polygon points="0,0 4.4137931,0 4.4137931,4.4137931 0,4.4137931 0,0" stroke="none" fill="#000000"></polygon></g></g><g transform="translate(79.44827586206884 57.37931034482745)"><g clip-path="url(#i2)"><polygon points="0,0 4.4137931,0 4.4137931,4.4137931 0,4.4137931 0,0" stroke="none" fill="#000000"></polygon></g></g><g transform="translate(83.86206896551721 57.37931034482745)"><g clip-path="url(#i2)"><polygon points="0,0 4.4137931,0 4.4137931,4.4137931 0,4.4137931 0,0" stroke="none" fill="#000000"></polygon></g></g><g transform="translate(97.10344827586232 57.37931034482745)"><g clip-path="url(#i2)"><polygon points="0,0 4.4137931,0 4.4137931,4.4137931 0,4.4137931 0,0" stroke="none" fill="#000000"></polygon></g></g><g transform="translate(114.7586206896549 57.37931034482745)"><g clip-path="url(#i2)"><polygon points="0,0 4.4137931,0 4.4137931,4.4137931 0,4.4137931 0,0" stroke="none" fill="#000000"></polygon></g></g><g transform="translate(119.1724137931037 57.37931034482745)"><g clip-path="url(#i2)"><polygon points="0,0 4.4137931,0 4.4137931,4.4137931 0,4.4137931 0,0" stroke="none" fill="#000000"></polygon></g></g><g transform="translate(123.5862068965516 57.37931034482745)"><g clip-path="url(#i2)"><polygon points="0,0 4.4137931,0 4.4137931,4.4137931 0,4.4137931 0,0" stroke="none" fill="#000000"></polygon></g></g><g transform="translate(4.41379310344837 61.79310344827582)"><g clip-path="url(#i2)"><polygon points="0,0 4.4137931,0 4.4137931,4.4137931 0,4.4137931 0,0" stroke="none" fill="#000000"></polygon></g></g><g transform="translate(8.82758620689674 61.79310344827582)"><g clip-path="url(#i2)"><polygon points="0,0 4.4137931,0 4.4137931,4.4137931 0,4.4137931 0,0" stroke="none" fill="#000000"></polygon></g></g><g transform="translate(13.241379310344659 61.79310344827582)"><g clip-path="url(#i2)"><polygon points="0,0 4.4137931,0 4.4137931,4.4137931 0,4.4137931 0,0" stroke="none" fill="#000000"></polygon></g></g><g transform="translate(26.48275862068976 61.79310344827582)"><g clip-path="url(#i2)"><polygon points="0,0 4.4137931,0 4.4137931,4.4137931 0,4.4137931 0,0" stroke="none" fill="#000000"></polygon></g></g><g transform="translate(35.31034482758605 61.79310344827582)"><g clip-path="url(#i2)"><polygon points="0,0 4.4137931,0 4.4137931,4.4137931 0,4.4137931 0,0" stroke="none" fill="#000000"></polygon></g></g><g transform="translate(48.55172413793116 61.79310344827582)"><g clip-path="url(#i2)"><polygon points="0,0 4.4137931,0 4.4137931,4.4137931 0,4.4137931 0,0" stroke="none" fill="#000000"></polygon></g></g><g transform="translate(52.96551724137953 61.79310344827582)"><g clip-path="url(#i2)"><polygon points="0,0 4.4137931,0 4.4137931,4.4137931 0,4.4137931 0,0" stroke="none" fill="#000000"></polygon></g></g><g transform="translate(57.37931034482745 61.79310344827582)"><g clip-path="url(#i2)"><polygon points="0,0 4.4137931,0 4.4137931,4.4137931 0,4.4137931 0,0" stroke="none" fill="#000000"></polygon></g></g><g transform="translate(83.86206896551721 61.79310344827582)"><g clip-path="url(#i2)"><polygon points="0,0 4.4137931,0 4.4137931,4.4137931 0,4.4137931 0,0" stroke="none" fill="#000000"></polygon></g></g><g transform="translate(88.27586206896558 61.79310344827582)"><g clip-path="url(#i2)"><polygon points="0,0 4.4137931,0 4.4137931,4.4137931 0,4.4137931 0,0" stroke="none" fill="#000000"></polygon></g></g><g transform="translate(92.6896551724135 61.79310344827582)"><g clip-path="url(#i2)"><polygon points="0,0 4.4137931,0 4.4137931,4.4137931 0,4.4137931 0,0" stroke="none" fill="#000000"></polygon></g></g><g transform="translate(105.9310344827586 61.79310344827582)"><g clip-path="url(#i2)"><polygon points="0,0 4.4137931,0 4.4137931,4.4137931 0,4.4137931 0,0" stroke="none" fill="#000000"></polygon></g></g><g transform="translate(114.7586206896549 61.79310344827582)"><g clip-path="url(#i2)"><polygon points="0,0 4.4137931,0 4.4137931,4.4137931 0,4.4137931 0,0" stroke="none" fill="#000000"></polygon></g></g><g transform="translate(119.1724137931037 61.79310344827582)"><g clip-path="url(#i2)"><polygon points="0,0 4.4137931,0 4.4137931,4.4137931 0,4.4137931 0,0" stroke="none" fill="#000000"></polygon></g></g><g transform="translate(123.5862068965516 61.79310344827582)"><g clip-path="url(#i2)"><polygon points="0,0 4.4137931,0 4.4137931,4.4137931 0,4.4137931 0,0" stroke="none" fill="#000000"></polygon></g></g><g transform="translate(0.0 66.20689655172418)"><g clip-path="url(#i2)"><polygon points="0,0 4.4137931,0 4.4137931,4.4137931 0,4.4137931 0,0" stroke="none" fill="#000000"></polygon></g></g><g transform="translate(4.41379310344837 66.20689655172418)"><g clip-path="url(#i2)"><polygon points="0,0 4.4137931,0 4.4137931,4.4137931 0,4.4137931 0,0" stroke="none" fill="#000000"></polygon></g></g><g transform="translate(8.82758620689674 66.20689655172418)"><g clip-path="url(#i2)"><polygon points="0,0 4.4137931,0 4.4137931,4.4137931 0,4.4137931 0,0" stroke="none" fill="#000000"></polygon></g></g><g transform="translate(17.65517241379303 66.20689655172418)"><g clip-path="url(#i2)"><polygon points="0,0 4.4137931,0 4.4137931,4.4137931 0,4.4137931 0,0" stroke="none" fill="#000000"></polygon></g></g><g transform="translate(39.72413793103442 66.20689655172418)"><g clip-path="url(#i2)"><polygon points="0,0 4.4137931,0 4.4137931,4.4137931 0,4.4137931 0,0" stroke="none" fill="#000000"></polygon></g></g><g transform="translate(44.13793103448279 66.20689655172418)"><g clip-path="url(#i2)"><polygon points="0,0 4.4137931,0 4.4137931,4.4137931 0,4.4137931 0,0" stroke="none" fill="#000000"></polygon></g></g><g transform="translate(61.79310344827582 66.20689655172418)"><g clip-path="url(#i2)"><polygon points="0,0 4.4137931,0 4.4137931,4.4137931 0,4.4137931 0,0" stroke="none" fill="#000000"></polygon></g></g><g transform="translate(70.62068965517255 66.20689655172418)"><g clip-path="url(#i2)"><polygon points="0,0 4.4137931,0 4.4137931,4.4137931 0,4.4137931 0,0" stroke="none" fill="#000000"></polygon></g></g><g transform="translate(79.44827586206884 66.20689655172418)"><g clip-path="url(#i2)"><polygon points="0,0 4.4137931,0 4.4137931,4.4137931 0,4.4137931 0,0" stroke="none" fill="#000000"></polygon></g></g><g transform="translate(88.27586206896558 66.20689655172418)"><g clip-path="url(#i2)"><polygon points="0,0 4.4137931,0 4.4137931,4.4137931 0,4.4137931 0,0" stroke="none" fill="#000000"></polygon></g></g><g transform="translate(92.6896551724135 66.20689655172418)"><g clip-path="url(#i2)"><polygon points="0,0 4.4137931,0 4.4137931,4.4137931 0,4.4137931 0,0" stroke="none" fill="#000000"></polygon></g></g><g transform="translate(101.5172413793102 66.20689655172418)"><g clip-path="url(#i2)"><polygon points="0,0 4.4137931,0 4.4137931,4.4137931 0,4.4137931 0,0" stroke="none" fill="#000000"></polygon></g></g><g transform="translate(105.9310344827586 66.20689655172418)"><g clip-path="url(#i2)"><polygon points="0,0 4.4137931,0 4.4137931,4.4137931 0,4.4137931 0,0" stroke="none" fill="#000000"></polygon></g></g><g transform="translate(119.1724137931037 66.20689655172418)"><g clip-path="url(#i2)"><polygon points="0,0 4.4137931,0 4.4137931,4.4137931 0,4.4137931 0,0" stroke="none" fill="#000000"></polygon></g></g><g transform="translate(17.65517241379303 70.62068965517255)"><g clip-path="url(#i2)"><polygon points="0,0 4.4137931,0 4.4137931,4.4137931 0,4.4137931 0,0" stroke="none" fill="#000000"></polygon></g></g><g transform="translate(22.06896551724139 70.62068965517255)"><g clip-path="url(#i2)"><polygon points="0,0 4.4137931,0 4.4137931,4.4137931 0,4.4137931 0,0" stroke="none" fill="#000000"></polygon></g></g><g transform="translate(26.48275862068976 70.62068965517255)"><g clip-path="url(#i2)"><polygon points="0,0 4.4137931,0 4.4137931,4.4137931 0,4.4137931 0,0" stroke="none" fill="#000000"></polygon></g></g><g transform="translate(30.89655172413813 70.62068965517255)"><g clip-path="url(#i2)"><polygon points="0,0 4.4137931,0 4.4137931,4.4137931 0,4.4137931 0,0" stroke="none" fill="#000000"></polygon></g></g><g transform="translate(39.72413793103442 70.62068965517255)"><g clip-path="url(#i2)"><polygon points="0,0 4.4137931,0 4.4137931,4.4137931 0,4.4137931 0,0" stroke="none" fill="#000000"></polygon></g></g><g transform="translate(44.13793103448279 70.62068965517255)"><g clip-path="url(#i2)"><polygon points="0,0 4.4137931,0 4.4137931,4.4137931 0,4.4137931 0,0" stroke="none" fill="#000000"></polygon></g></g><g transform="translate(48.55172413793116 70.62068965517255)"><g clip-path="url(#i2)"><polygon points="0,0 4.4137931,0 4.4137931,4.4137931 0,4.4137931 0,0" stroke="none" fill="#000000"></polygon></g></g><g transform="translate(61.79310344827582 70.62068965517255)"><g clip-path="url(#i2)"><polygon points="0,0 4.4137931,0 4.4137931,4.4137931 0,4.4137931 0,0" stroke="none" fill="#000000"></polygon></g></g><g transform="translate(83.86206896551721 70.62068965517255)"><g clip-path="url(#i2)"><polygon points="0,0 4.4137931,0 4.4137931,4.4137931 0,4.4137931 0,0" stroke="none" fill="#000000"></polygon></g></g><g transform="translate(88.27586206896558 70.62068965517255)"><g clip-path="url(#i2)"><polygon points="0,0 4.4137931,0 4.4137931,4.4137931 0,4.4137931 0,0" stroke="none" fill="#000000"></polygon></g></g><g transform="translate(92.6896551724135 70.62068965517255)"><g clip-path="url(#i2)"><polygon points="0,0 4.4137931,0 4.4137931,4.4137931 0,4.4137931 0,0" stroke="none" fill="#000000"></polygon></g></g><g transform="translate(101.5172413793102 70.62068965517255)"><g clip-path="url(#i2)"><polygon points="0,0 4.4137931,0 4.4137931,4.4137931 0,4.4137931 0,0" stroke="none" fill="#000000"></polygon></g></g><g transform="translate(105.9310344827586 70.62068965517255)"><g clip-path="url(#i2)"><polygon points="0,0 4.4137931,0 4.4137931,4.4137931 0,4.4137931 0,0" stroke="none" fill="#000000"></polygon></g></g><g transform="translate(110.344827586207 70.62068965517255)"><g clip-path="url(#i2)"><polygon points="0,0 4.4137931,0 4.4137931,4.4137931 0,4.4137931 0,0" stroke="none" fill="#000000"></polygon></g></g><g transform="translate(119.1724137931037 70.62068965517255)"><g clip-path="url(#i2)"><polygon points="0,0 4.4137931,0 4.4137931,4.4137931 0,4.4137931 0,0" stroke="none" fill="#000000"></polygon></g></g><g transform="translate(8.82758620689674 75.03448275862047)"><g clip-path="url(#i2)"><polygon points="0,0 4.4137931,0 4.4137931,4.4137931 0,4.4137931 0,0" stroke="none" fill="#000000"></polygon></g></g><g transform="translate(22.06896551724139 75.03448275862047)"><g clip-path="url(#i2)"><polygon points="0,0 4.4137931,0 4.4137931,4.4137931 0,4.4137931 0,0" stroke="none" fill="#000000"></polygon></g></g><g transform="translate(35.31034482758605 75.03448275862047)"><g clip-path="url(#i2)"><polygon points="0,0 4.4137931,0 4.4137931,4.4137931 0,4.4137931 0,0" stroke="none" fill="#000000"></polygon></g></g><g transform="translate(44.13793103448279 75.03448275862047)"><g clip-path="url(#i2)"><polygon points="0,0 4.4137931,0 4.4137931,4.4137931 0,4.4137931 0,0" stroke="none" fill="#000000"></polygon></g></g><g transform="translate(52.96551724137953 75.03448275862047)"><g clip-path="url(#i2)"><polygon points="0,0 4.4137931,0 4.4137931,4.4137931 0,4.4137931 0,0" stroke="none" fill="#000000"></polygon></g></g><g transform="translate(75.03448275862047 75.03448275862047)"><g clip-path="url(#i2)"><polygon points="0,0 4.4137931,0 4.4137931,4.4137931 0,4.4137931 0,0" stroke="none" fill="#000000"></polygon></g></g><g transform="translate(79.44827586206884 75.03448275862047)"><g clip-path="url(#i2)"><polygon points="0,0 4.4137931,0 4.4137931,4.4137931 0,4.4137931 0,0" stroke="none" fill="#000000"></polygon></g></g><g transform="translate(88.27586206896558 75.03448275862047)"><g clip-path="url(#i2)"><polygon points="0,0 4.4137931,0 4.4137931,4.4137931 0,4.4137931 0,0" stroke="none" fill="#000000"></polygon></g></g><g transform="translate(101.5172413793102 75.03448275862047)"><g clip-path="url(#i2)"><polygon points="0,0 4.4137931,0 4.4137931,4.4137931 0,4.4137931 0,0" stroke="none" fill="#000000"></polygon></g></g><g transform="translate(110.344827586207 75.03448275862047)"><g clip-path="url(#i2)"><polygon points="0,0 4.4137931,0 4.4137931,4.4137931 0,4.4137931 0,0" stroke="none" fill="#000000"></polygon></g></g><g transform="translate(114.7586206896549 75.03448275862047)"><g clip-path="url(#i2)"><polygon points="0,0 4.4137931,0 4.4137931,4.4137931 0,4.4137931 0,0" stroke="none" fill="#000000"></polygon></g></g><g transform="translate(119.1724137931037 75.03448275862047)"><g clip-path="url(#i2)"><polygon points="0,0 4.4137931,0 4.4137931,4.4137931 0,4.4137931 0,0" stroke="none" fill="#000000"></polygon></g></g><g transform="translate(4.41379310344837 79.44827586206884)"><g clip-path="url(#i2)"><polygon points="0,0 4.4137931,0 4.4137931,4.4137931 0,4.4137931 0,0" stroke="none" fill="#000000"></polygon></g></g><g transform="translate(13.241379310344659 79.44827586206884)"><g clip-path="url(#i2)"><polygon points="0,0 4.4137931,0 4.4137931,4.4137931 0,4.4137931 0,0" stroke="none" fill="#000000"></polygon></g></g><g transform="translate(17.65517241379303 79.44827586206884)"><g clip-path="url(#i2)"><polygon points="0,0 4.4137931,0 4.4137931,4.4137931 0,4.4137931 0,0" stroke="none" fill="#000000"></polygon></g></g><g transform="translate(22.06896551724139 79.44827586206884)"><g clip-path="url(#i2)"><polygon points="0,0 4.4137931,0 4.4137931,4.4137931 0,4.4137931 0,0" stroke="none" fill="#000000"></polygon></g></g><g transform="translate(26.48275862068976 79.44827586206884)"><g clip-path="url(#i2)"><polygon points="0,0 4.4137931,0 4.4137931,4.4137931 0,4.4137931 0,0" stroke="none" fill="#000000"></polygon></g></g><g transform="translate(35.31034482758605 79.44827586206884)"><g clip-path="url(#i2)"><polygon points="0,0 4.4137931,0 4.4137931,4.4137931 0,4.4137931 0,0" stroke="none" fill="#000000"></polygon></g></g><g transform="translate(39.72413793103442 79.44827586206884)"><g clip-path="url(#i2)"><polygon points="0,0 4.4137931,0 4.4137931,4.4137931 0,4.4137931 0,0" stroke="none" fill="#000000"></polygon></g></g><g transform="translate(48.55172413793116 79.44827586206884)"><g clip-path="url(#i2)"><polygon points="0,0 4.4137931,0 4.4137931,4.4137931 0,4.4137931 0,0" stroke="none" fill="#000000"></polygon></g></g><g transform="translate(57.37931034482745 79.44827586206884)"><g clip-path="url(#i2)"><polygon points="0,0 4.4137931,0 4.4137931,4.4137931 0,4.4137931 0,0" stroke="none" fill="#000000"></polygon></g></g><g transform="translate(61.79310344827582 79.44827586206884)"><g clip-path="url(#i2)"><polygon points="0,0 4.4137931,0 4.4137931,4.4137931 0,4.4137931 0,0" stroke="none" fill="#000000"></polygon></g></g><g transform="translate(66.20689655172418 79.44827586206884)"><g clip-path="url(#i2)"><polygon points="0,0 4.4137931,0 4.4137931,4.4137931 0,4.4137931 0,0" stroke="none" fill="#000000"></polygon></g></g><g transform="translate(70.62068965517255 79.44827586206884)"><g clip-path="url(#i2)"><polygon points="0,0 4.4137931,0 4.4137931,4.4137931 0,4.4137931 0,0" stroke="none" fill="#000000"></polygon></g></g><g transform="translate(79.44827586206884 79.44827586206884)"><g clip-path="url(#i2)"><polygon points="0,0 4.4137931,0 4.4137931,4.4137931 0,4.4137931 0,0" stroke="none" fill="#000000"></polygon></g></g><g transform="translate(92.6896551724135 79.44827586206884)"><g clip-path="url(#i2)"><polygon points="0,0 4.4137931,0 4.4137931,4.4137931 0,4.4137931 0,0" stroke="none" fill="#000000"></polygon></g></g><g transform="translate(97.10344827586232 79.44827586206884)"><g clip-path="url(#i2)"><polygon points="0,0 4.4137931,0 4.4137931,4.4137931 0,4.4137931 0,0" stroke="none" fill="#000000"></polygon></g></g><g transform="translate(101.5172413793102 79.44827586206884)"><g clip-path="url(#i2)"><polygon points="0,0 4.4137931,0 4.4137931,4.4137931 0,4.4137931 0,0" stroke="none" fill="#000000"></polygon></g></g><g transform="translate(105.9310344827586 79.44827586206884)"><g clip-path="url(#i2)"><polygon points="0,0 4.4137931,0 4.4137931,4.4137931 0,4.4137931 0,0" stroke="none" fill="#000000"></polygon></g></g><g transform="translate(114.7586206896549 79.44827586206884)"><g clip-path="url(#i2)"><polygon points="0,0 4.4137931,0 4.4137931,4.4137931 0,4.4137931 0,0" stroke="none" fill="#000000"></polygon></g></g><g transform="translate(0.0 83.86206896551721)"><g clip-path="url(#i2)"><polygon points="0,0 4.4137931,0 4.4137931,4.4137931 0,4.4137931 0,0" stroke="none" fill="#000000"></polygon></g></g><g transform="translate(4.41379310344837 83.86206896551721)"><g clip-path="url(#i2)"><polygon points="0,0 4.4137931,0 4.4137931,4.4137931 0,4.4137931 0,0" stroke="none" fill="#000000"></polygon></g></g><g transform="translate(22.06896551724139 83.86206896551721)"><g clip-path="url(#i2)"><polygon points="0,0 4.4137931,0 4.4137931,4.4137931 0,4.4137931 0,0" stroke="none" fill="#000000"></polygon></g></g><g transform="translate(30.89655172413813 83.86206896551721)"><g clip-path="url(#i2)"><polygon points="0,0 4.4137931,0 4.4137931,4.4137931 0,4.4137931 0,0" stroke="none" fill="#000000"></polygon></g></g><g transform="translate(48.55172413793116 83.86206896551721)"><g clip-path="url(#i2)"><polygon points="0,0 4.4137931,0 4.4137931,4.4137931 0,4.4137931 0,0" stroke="none" fill="#000000"></polygon></g></g><g transform="translate(52.96551724137953 83.86206896551721)"><g clip-path="url(#i2)"><polygon points="0,0 4.4137931,0 4.4137931,4.4137931 0,4.4137931 0,0" stroke="none" fill="#000000"></polygon></g></g><g transform="translate(57.37931034482745 83.86206896551721)"><g clip-path="url(#i2)"><polygon points="0,0 4.4137931,0 4.4137931,4.4137931 0,4.4137931 0,0" stroke="none" fill="#000000"></polygon></g></g><g transform="translate(61.79310344827582 83.86206896551721)"><g clip-path="url(#i2)"><polygon points="0,0 4.4137931,0 4.4137931,4.4137931 0,4.4137931 0,0" stroke="none" fill="#000000"></polygon></g></g><g transform="translate(70.62068965517255 83.86206896551721)"><g clip-path="url(#i2)"><polygon points="0,0 4.4137931,0 4.4137931,4.4137931 0,4.4137931 0,0" stroke="none" fill="#000000"></polygon></g></g><g transform="translate(75.03448275862047 83.86206896551721)"><g clip-path="url(#i2)"><polygon points="0,0 4.4137931,0 4.4137931,4.4137931 0,4.4137931 0,0" stroke="none" fill="#000000"></polygon></g></g><g transform="translate(79.44827586206884 83.86206896551721)"><g clip-path="url(#i2)"><polygon points="0,0 4.4137931,0 4.4137931,4.4137931 0,4.4137931 0,0" stroke="none" fill="#000000"></polygon></g></g><g transform="translate(83.86206896551721 83.86206896551721)"><g clip-path="url(#i2)"><polygon points="0,0 4.4137931,0 4.4137931,4.4137931 0,4.4137931 0,0" stroke="none" fill="#000000"></polygon></g></g><g transform="translate(92.6896551724135 83.86206896551721)"><g clip-path="url(#i2)"><polygon points="0,0 4.4137931,0 4.4137931,4.4137931 0,4.4137931 0,0" stroke="none" fill="#000000"></polygon></g></g><g transform="translate(101.5172413793102 83.86206896551721)"><g clip-path="url(#i2)"><polygon points="0,0 4.4137931,0 4.4137931,4.4137931 0,4.4137931 0,0" stroke="none" fill="#000000"></polygon></g></g><g transform="translate(105.9310344827586 83.86206896551721)"><g clip-path="url(#i2)"><polygon points="0,0 4.4137931,0 4.4137931,4.4137931 0,4.4137931 0,0" stroke="none" fill="#000000"></polygon></g></g><g transform="translate(114.7586206896549 83.86206896551721)"><g clip-path="url(#i2)"><polygon points="0,0 4.4137931,0 4.4137931,4.4137931 0,4.4137931 0,0" stroke="none" fill="#000000"></polygon></g></g><g transform="translate(0.0 88.27586206896558)"><g clip-path="url(#i2)"><polygon points="0,0 4.4137931,0 4.4137931,4.4137931 0,4.4137931 0,0" stroke="none" fill="#000000"></polygon></g></g><g transform="translate(17.65517241379303 88.27586206896558)"><g clip-path="url(#i2)"><polygon points="0,0 4.4137931,0 4.4137931,4.4137931 0,4.4137931 0,0" stroke="none" fill="#000000"></polygon></g></g><g transform="translate(22.06896551724139 88.27586206896558)"><g clip-path="url(#i2)"><polygon points="0,0 4.4137931,0 4.4137931,4.4137931 0,4.4137931 0,0" stroke="none" fill="#000000"></polygon></g></g><g transform="translate(26.48275862068976 88.27586206896558)"><g clip-path="url(#i2)"><polygon points="0,0 4.4137931,0 4.4137931,4.4137931 0,4.4137931 0,0" stroke="none" fill="#000000"></polygon></g></g><g transform="translate(30.89655172413813 88.27586206896558)"><g clip-path="url(#i2)"><polygon points="0,0 4.4137931,0 4.4137931,4.4137931 0,4.4137931 0,0" stroke="none" fill="#000000"></polygon></g></g><g transform="translate(35.31034482758605 88.27586206896558)"><g clip-path="url(#i2)"><polygon points="0,0 4.4137931,0 4.4137931,4.4137931 0,4.4137931 0,0" stroke="none" fill="#000000"></polygon></g></g><g transform="translate(39.72413793103442 88.27586206896558)"><g clip-path="url(#i2)"><polygon points="0,0 4.4137931,0 4.4137931,4.4137931 0,4.4137931 0,0" stroke="none" fill="#000000"></polygon></g></g><g transform="translate(48.55172413793116 88.27586206896558)"><g clip-path="url(#i2)"><polygon points="0,0 4.4137931,0 4.4137931,4.4137931 0,4.4137931 0,0" stroke="none" fill="#000000"></polygon></g></g><g transform="translate(52.96551724137953 88.27586206896558)"><g clip-path="url(#i2)"><polygon points="0,0 4.4137931,0 4.4137931,4.4137931 0,4.4137931 0,0" stroke="none" fill="#000000"></polygon></g></g><g transform="translate(57.37931034482745 88.27586206896558)"><g clip-path="url(#i2)"><polygon points="0,0 4.4137931,0 4.4137931,4.4137931 0,4.4137931 0,0" stroke="none" fill="#000000"></polygon></g></g><g transform="translate(61.79310344827582 88.27586206896558)"><g clip-path="url(#i2)"><polygon points="0,0 4.4137931,0 4.4137931,4.4137931 0,4.4137931 0,0" stroke="none" fill="#000000"></polygon></g></g><g transform="translate(66.20689655172418 88.27586206896558)"><g clip-path="url(#i2)"><polygon points="0,0 4.4137931,0 4.4137931,4.4137931 0,4.4137931 0,0" stroke="none" fill="#000000"></polygon></g></g><g transform="translate(70.62068965517255 88.27586206896558)"><g clip-path="url(#i2)"><polygon points="0,0 4.4137931,0 4.4137931,4.4137931 0,4.4137931 0,0" stroke="none" fill="#000000"></polygon></g></g><g transform="translate(75.03448275862047 88.27586206896558)"><g clip-path="url(#i2)"><polygon points="0,0 4.4137931,0 4.4137931,4.4137931 0,4.4137931 0,0" stroke="none" fill="#000000"></polygon></g></g><g transform="translate(88.27586206896558 88.27586206896558)"><g clip-path="url(#i2)"><polygon points="0,0 4.4137931,0 4.4137931,4.4137931 0,4.4137931 0,0" stroke="none" fill="#000000"></polygon></g></g><g transform="translate(92.6896551724135 88.27586206896558)"><g clip-path="url(#i2)"><polygon points="0,0 4.4137931,0 4.4137931,4.4137931 0,4.4137931 0,0" stroke="none" fill="#000000"></polygon></g></g><g transform="translate(97.10344827586232 88.27586206896558)"><g clip-path="url(#i2)"><polygon points="0,0 4.4137931,0 4.4137931,4.4137931 0,4.4137931 0,0" stroke="none" fill="#000000"></polygon></g></g><g transform="translate(101.5172413793102 88.27586206896558)"><g clip-path="url(#i2)"><polygon points="0,0 4.4137931,0 4.4137931,4.4137931 0,4.4137931 0,0" stroke="none" fill="#000000"></polygon></g></g><g transform="translate(105.9310344827586 88.27586206896558)"><g clip-path="url(#i2)"><polygon points="0,0 4.4137931,0 4.4137931,4.4137931 0,4.4137931 0,0" stroke="none" fill="#000000"></polygon></g></g><g transform="translate(110.344827586207 88.27586206896558)"><g clip-path="url(#i2)"><polygon points="0,0 4.4137931,0 4.4137931,4.4137931 0,4.4137931 0,0" stroke="none" fill="#000000"></polygon></g></g><g transform="translate(114.7586206896549 88.27586206896558)"><g clip-path="url(#i2)"><polygon points="0,0 4.4137931,0 4.4137931,4.4137931 0,4.4137931 0,0" stroke="none" fill="#000000"></polygon></g></g><g transform="translate(35.31034482758605 92.6896551724135)"><g clip-path="url(#i2)"><polygon points="0,0 4.4137931,0 4.4137931,4.4137931 0,4.4137931 0,0" stroke="none" fill="#000000"></polygon></g></g><g transform="translate(48.55172413793116 92.6896551724135)"><g clip-path="url(#i2)"><polygon points="0,0 4.4137931,0 4.4137931,4.4137931 0,4.4137931 0,0" stroke="none" fill="#000000"></polygon></g></g><g transform="translate(88.27586206896558 92.6896551724135)"><g clip-path="url(#i2)"><polygon points="0,0 4.4137931,0 4.4137931,4.4137931 0,4.4137931 0,0" stroke="none" fill="#000000"></polygon></g></g><g transform="translate(105.9310344827586 92.6896551724135)"><g clip-path="url(#i2)"><polygon points="0,0 4.4137931,0 4.4137931,4.4137931 0,4.4137931 0,0" stroke="none" fill="#000000"></polygon></g></g><g transform="translate(110.344827586207 92.6896551724135)"><g clip-path="url(#i2)"><polygon points="0,0 4.4137931,0 4.4137931,4.4137931 0,4.4137931 0,0" stroke="none" fill="#000000"></polygon></g></g><g transform="translate(114.7586206896549 92.6896551724135)"><g clip-path="url(#i2)"><polygon points="0,0 4.4137931,0 4.4137931,4.4137931 0,4.4137931 0,0" stroke="none" fill="#000000"></polygon></g></g><g transform="translate(119.1724137931037 92.6896551724135)"><g clip-path="url(#i2)"><polygon points="0,0 4.4137931,0 4.4137931,4.4137931 0,4.4137931 0,0" stroke="none" fill="#000000"></polygon></g></g><g transform="translate(123.5862068965516 92.6896551724135)"><g clip-path="url(#i2)"><polygon points="0,0 4.4137931,0 4.4137931,4.4137931 0,4.4137931 0,0" stroke="none" fill="#000000"></polygon></g></g><g transform="translate(0.0 97.10344827586232)"><g clip-path="url(#i2)"><polygon points="0,0 4.4137931,0 4.4137931,4.4137931 0,4.4137931 0,0" stroke="none" fill="#000000"></polygon></g></g><g transform="translate(4.41379310344837 97.10344827586232)"><g clip-path="url(#i2)"><polygon points="0,0 4.4137931,0 4.4137931,4.4137931 0,4.4137931 0,0" stroke="none" fill="#000000"></polygon></g></g><g transform="translate(8.82758620689674 97.10344827586232)"><g clip-path="url(#i2)"><polygon points="0,0 4.4137931,0 4.4137931,4.4137931 0,4.4137931 0,0" stroke="none" fill="#000000"></polygon></g></g><g transform="translate(13.241379310344659 97.10344827586232)"><g clip-path="url(#i2)"><polygon points="0,0 4.4137931,0 4.4137931,4.4137931 0,4.4137931 0,0" stroke="none" fill="#000000"></polygon></g></g><g transform="translate(17.65517241379303 97.10344827586232)"><g clip-path="url(#i2)"><polygon points="0,0 4.4137931,0 4.4137931,4.4137931 0,4.4137931 0,0" stroke="none" fill="#000000"></polygon></g></g><g transform="translate(22.06896551724139 97.10344827586232)"><g clip-path="url(#i2)"><polygon points="0,0 4.4137931,0 4.4137931,4.4137931 0,4.4137931 0,0" stroke="none" fill="#000000"></polygon></g></g><g transform="translate(26.48275862068976 97.10344827586232)"><g clip-path="url(#i2)"><polygon points="0,0 4.4137931,0 4.4137931,4.4137931 0,4.4137931 0,0" stroke="none" fill="#000000"></polygon></g></g><g transform="translate(35.31034482758605 97.10344827586232)"><g clip-path="url(#i2)"><polygon points="0,0 4.4137931,0 4.4137931,4.4137931 0,4.4137931 0,0" stroke="none" fill="#000000"></polygon></g></g><g transform="translate(44.13793103448279 97.10344827586232)"><g clip-path="url(#i2)"><polygon points="0,0 4.4137931,0 4.4137931,4.4137931 0,4.4137931 0,0" stroke="none" fill="#000000"></polygon></g></g><g transform="translate(61.79310344827582 97.10344827586232)"><g clip-path="url(#i2)"><polygon points="0,0 4.4137931,0 4.4137931,4.4137931 0,4.4137931 0,0" stroke="none" fill="#000000"></polygon></g></g><g transform="translate(75.03448275862047 97.10344827586232)"><g clip-path="url(#i2)"><polygon points="0,0 4.4137931,0 4.4137931,4.4137931 0,4.4137931 0,0" stroke="none" fill="#000000"></polygon></g></g><g transform="translate(79.44827586206884 97.10344827586232)"><g clip-path="url(#i2)"><polygon points="0,0 4.4137931,0 4.4137931,4.4137931 0,4.4137931 0,0" stroke="none" fill="#000000"></polygon></g></g><g transform="translate(83.86206896551721 97.10344827586232)"><g clip-path="url(#i2)"><polygon points="0,0 4.4137931,0 4.4137931,4.4137931 0,4.4137931 0,0" stroke="none" fill="#000000"></polygon></g></g><g transform="translate(88.27586206896558 97.10344827586232)"><g clip-path="url(#i2)"><polygon points="0,0 4.4137931,0 4.4137931,4.4137931 0,4.4137931 0,0" stroke="none" fill="#000000"></polygon></g></g><g transform="translate(97.10344827586232 97.10344827586232)"><g clip-path="url(#i2)"><polygon points="0,0 4.4137931,0 4.4137931,4.4137931 0,4.4137931 0,0" stroke="none" fill="#000000"></polygon></g></g><g transform="translate(105.9310344827586 97.10344827586232)"><g clip-path="url(#i2)"><polygon points="0,0 4.4137931,0 4.4137931,4.4137931 0,4.4137931 0,0" stroke="none" fill="#000000"></polygon></g></g><g transform="translate(110.344827586207 97.10344827586232)"><g clip-path="url(#i2)"><polygon points="0,0 4.4137931,0 4.4137931,4.4137931 0,4.4137931 0,0" stroke="none" fill="#000000"></polygon></g></g><g transform="translate(119.1724137931037 97.10344827586232)"><g clip-path="url(#i2)"><polygon points="0,0 4.4137931,0 4.4137931,4.4137931 0,4.4137931 0,0" stroke="none" fill="#000000"></polygon></g></g><g transform="translate(0.0 101.5172413793102)"><g clip-path="url(#i2)"><polygon points="0,0 4.4137931,0 4.4137931,4.4137931 0,4.4137931 0,0" stroke="none" fill="#000000"></polygon></g></g><g transform="translate(26.48275862068976 101.5172413793102)"><g clip-path="url(#i2)"><polygon points="0,0 4.4137931,0 4.4137931,4.4137931 0,4.4137931 0,0" stroke="none" fill="#000000"></polygon></g></g><g transform="translate(35.31034482758605 101.5172413793102)"><g clip-path="url(#i2)"><polygon points="0,0 4.4137931,0 4.4137931,4.4137931 0,4.4137931 0,0" stroke="none" fill="#000000"></polygon></g></g><g transform="translate(39.72413793103442 101.5172413793102)"><g clip-path="url(#i2)"><polygon points="0,0 4.4137931,0 4.4137931,4.4137931 0,4.4137931 0,0" stroke="none" fill="#000000"></polygon></g></g><g transform="translate(44.13793103448279 101.5172413793102)"><g clip-path="url(#i2)"><polygon points="0,0 4.4137931,0 4.4137931,4.4137931 0,4.4137931 0,0" stroke="none" fill="#000000"></polygon></g></g><g transform="translate(48.55172413793116 101.5172413793102)"><g clip-path="url(#i2)"><polygon points="0,0 4.4137931,0 4.4137931,4.4137931 0,4.4137931 0,0" stroke="none" fill="#000000"></polygon></g></g><g transform="translate(52.96551724137953 101.5172413793102)"><g clip-path="url(#i2)"><polygon points="0,0 4.4137931,0 4.4137931,4.4137931 0,4.4137931 0,0" stroke="none" fill="#000000"></polygon></g></g><g transform="translate(57.37931034482745 101.5172413793102)"><g clip-path="url(#i2)"><polygon points="0,0 4.4137931,0 4.4137931,4.4137931 0,4.4137931 0,0" stroke="none" fill="#000000"></polygon></g></g><g transform="translate(61.79310344827582 101.5172413793102)"><g clip-path="url(#i2)"><polygon points="0,0 4.4137931,0 4.4137931,4.4137931 0,4.4137931 0,0" stroke="none" fill="#000000"></polygon></g></g><g transform="translate(79.44827586206884 101.5172413793102)"><g clip-path="url(#i2)"><polygon points="0,0 4.4137931,0 4.4137931,4.4137931 0,4.4137931 0,0" stroke="none" fill="#000000"></polygon></g></g><g transform="translate(83.86206896551721 101.5172413793102)"><g clip-path="url(#i2)"><polygon points="0,0 4.4137931,0 4.4137931,4.4137931 0,4.4137931 0,0" stroke="none" fill="#000000"></polygon></g></g><g transform="translate(88.27586206896558 101.5172413793102)"><g clip-path="url(#i2)"><polygon points="0,0 4.4137931,0 4.4137931,4.4137931 0,4.4137931 0,0" stroke="none" fill="#000000"></polygon></g></g><g transform="translate(105.9310344827586 101.5172413793102)"><g clip-path="url(#i2)"><polygon points="0,0 4.4137931,0 4.4137931,4.4137931 0,4.4137931 0,0" stroke="none" fill="#000000"></polygon></g></g><g transform="translate(110.344827586207 101.5172413793102)"><g clip-path="url(#i2)"><polygon points="0,0 4.4137931,0 4.4137931,4.4137931 0,4.4137931 0,0" stroke="none" fill="#000000"></polygon></g></g><g transform="translate(123.5862068965516 101.5172413793102)"><g clip-path="url(#i2)"><polygon points="0,0 4.4137931,0 4.4137931,4.4137931 0,4.4137931 0,0" stroke="none" fill="#000000"></polygon></g></g><g transform="translate(0.0 105.9310344827586)"><g clip-path="url(#i2)"><polygon points="0,0 4.4137931,0 4.4137931,4.4137931 0,4.4137931 0,0" stroke="none" fill="#000000"></polygon></g></g><g transform="translate(8.82758620689674 105.9310344827586)"><g clip-path="url(#i2)"><polygon points="0,0 4.4137931,0 4.4137931,4.4137931 0,4.4137931 0,0" stroke="none" fill="#000000"></polygon></g></g><g transform="translate(13.241379310344659 105.9310344827586)"><g clip-path="url(#i2)"><polygon points="0,0 4.4137931,0 4.4137931,4.4137931 0,4.4137931 0,0" stroke="none" fill="#000000"></polygon></g></g><g transform="translate(17.65517241379303 105.9310344827586)"><g clip-path="url(#i2)"><polygon points="0,0 4.4137931,0 4.4137931,4.4137931 0,4.4137931 0,0" stroke="none" fill="#000000"></polygon></g></g><g transform="translate(26.48275862068976 105.9310344827586)"><g clip-path="url(#i2)"><polygon points="0,0 4.4137931,0 4.4137931,4.4137931 0,4.4137931 0,0" stroke="none" fill="#000000"></polygon></g></g><g transform="translate(39.72413793103442 105.9310344827586)"><g clip-path="url(#i2)"><polygon points="0,0 4.4137931,0 4.4137931,4.4137931 0,4.4137931 0,0" stroke="none" fill="#000000"></polygon></g></g><g transform="translate(44.13793103448279 105.9310344827586)"><g clip-path="url(#i2)"><polygon points="0,0 4.4137931,0 4.4137931,4.4137931 0,4.4137931 0,0" stroke="none" fill="#000000"></polygon></g></g><g transform="translate(66.20689655172418 105.9310344827586)"><g clip-path="url(#i2)"><polygon points="0,0 4.4137931,0 4.4137931,4.4137931 0,4.4137931 0,0" stroke="none" fill="#000000"></polygon></g></g><g transform="translate(70.62068965517255 105.9310344827586)"><g clip-path="url(#i2)"><polygon points="0,0 4.4137931,0 4.4137931,4.4137931 0,4.4137931 0,0" stroke="none" fill="#000000"></polygon></g></g><g transform="translate(75.03448275862047 105.9310344827586)"><g clip-path="url(#i2)"><polygon points="0,0 4.4137931,0 4.4137931,4.4137931 0,4.4137931 0,0" stroke="none" fill="#000000"></polygon></g></g><g transform="translate(79.44827586206884 105.9310344827586)"><g clip-path="url(#i2)"><polygon points="0,0 4.4137931,0 4.4137931,4.4137931 0,4.4137931 0,0" stroke="none" fill="#000000"></polygon></g></g><g transform="translate(88.27586206896558 105.9310344827586)"><g clip-path="url(#i2)"><polygon points="0,0 4.4137931,0 4.4137931,4.4137931 0,4.4137931 0,0" stroke="none" fill="#000000"></polygon></g></g><g transform="translate(92.6896551724135 105.9310344827586)"><g clip-path="url(#i2)"><polygon points="0,0 4.4137931,0 4.4137931,4.4137931 0,4.4137931 0,0" stroke="none" fill="#000000"></polygon></g></g><g transform="translate(97.10344827586232 105.9310344827586)"><g clip-path="url(#i2)"><polygon points="0,0 4.4137931,0 4.4137931,4.4137931 0,4.4137931 0,0" stroke="none" fill="#000000"></polygon></g></g><g transform="translate(101.5172413793102 105.9310344827586)"><g clip-path="url(#i2)"><polygon points="0,0 4.4137931,0 4.4137931,4.4137931 0,4.4137931 0,0" stroke="none" fill="#000000"></polygon></g></g><g transform="translate(105.9310344827586 105.9310344827586)"><g clip-path="url(#i2)"><polygon points="0,0 4.4137931,0 4.4137931,4.4137931 0,4.4137931 0,0" stroke="none" fill="#000000"></polygon></g></g><g transform="translate(114.7586206896549 105.9310344827586)"><g clip-path="url(#i2)"><polygon points="0,0 4.4137931,0 4.4137931,4.4137931 0,4.4137931 0,0" stroke="none" fill="#000000"></polygon></g></g><g transform="translate(119.1724137931037 105.9310344827586)"><g clip-path="url(#i2)"><polygon points="0,0 4.4137931,0 4.4137931,4.4137931 0,4.4137931 0,0" stroke="none" fill="#000000"></polygon></g></g><g transform="translate(123.5862068965516 105.9310344827586)"><g clip-path="url(#i2)"><polygon points="0,0 4.4137931,0 4.4137931,4.4137931 0,4.4137931 0,0" stroke="none" fill="#000000"></polygon></g></g><g transform="translate(0.0 110.344827586207)"><g clip-path="url(#i2)"><polygon points="0,0 4.4137931,0 4.4137931,4.4137931 0,4.4137931 0,0" stroke="none" fill="#000000"></polygon></g></g><g transform="translate(8.82758620689674 110.344827586207)"><g clip-path="url(#i2)"><polygon points="0,0 4.4137931,0 4.4137931,4.4137931 0,4.4137931 0,0" stroke="none" fill="#000000"></polygon></g></g><g transform="translate(13.241379310344659 110.344827586207)"><g clip-path="url(#i2)"><polygon points="0,0 4.4137931,0 4.4137931,4.4137931 0,4.4137931 0,0" stroke="none" fill="#000000"></polygon></g></g><g transform="translate(17.65517241379303 110.344827586207)"><g clip-path="url(#i2)"><polygon points="0,0 4.4137931,0 4.4137931,4.4137931 0,4.4137931 0,0" stroke="none" fill="#000000"></polygon></g></g><g transform="translate(26.48275862068976 110.344827586207)"><g clip-path="url(#i2)"><polygon points="0,0 4.4137931,0 4.4137931,4.4137931 0,4.4137931 0,0" stroke="none" fill="#000000"></polygon></g></g><g transform="translate(35.31034482758605 110.344827586207)"><g clip-path="url(#i2)"><polygon points="0,0 4.4137931,0 4.4137931,4.4137931 0,4.4137931 0,0" stroke="none" fill="#000000"></polygon></g></g><g transform="translate(39.72413793103442 110.344827586207)"><g clip-path="url(#i2)"><polygon points="0,0 4.4137931,0 4.4137931,4.4137931 0,4.4137931 0,0" stroke="none" fill="#000000"></polygon></g></g><g transform="translate(66.20689655172418 110.344827586207)"><g clip-path="url(#i2)"><polygon points="0,0 4.4137931,0 4.4137931,4.4137931 0,4.4137931 0,0" stroke="none" fill="#000000"></polygon></g></g><g transform="translate(75.03448275862047 110.344827586207)"><g clip-path="url(#i2)"><polygon points="0,0 4.4137931,0 4.4137931,4.4137931 0,4.4137931 0,0" stroke="none" fill="#000000"></polygon></g></g><g transform="translate(79.44827586206884 110.344827586207)"><g clip-path="url(#i2)"><polygon points="0,0 4.4137931,0 4.4137931,4.4137931 0,4.4137931 0,0" stroke="none" fill="#000000"></polygon></g></g><g transform="translate(83.86206896551721 110.344827586207)"><g clip-path="url(#i2)"><polygon points="0,0 4.4137931,0 4.4137931,4.4137931 0,4.4137931 0,0" stroke="none" fill="#000000"></polygon></g></g><g transform="translate(88.27586206896558 110.344827586207)"><g clip-path="url(#i2)"><polygon points="0,0 4.4137931,0 4.4137931,4.4137931 0,4.4137931 0,0" stroke="none" fill="#000000"></polygon></g></g><g transform="translate(92.6896551724135 110.344827586207)"><g clip-path="url(#i2)"><polygon points="0,0 4.4137931,0 4.4137931,4.4137931 0,4.4137931 0,0" stroke="none" fill="#000000"></polygon></g></g><g transform="translate(101.5172413793102 110.344827586207)"><g clip-path="url(#i2)"><polygon points="0,0 4.4137931,0 4.4137931,4.4137931 0,4.4137931 0,0" stroke="none" fill="#000000"></polygon></g></g><g transform="translate(105.9310344827586 110.344827586207)"><g clip-path="url(#i2)"><polygon points="0,0 4.4137931,0 4.4137931,4.4137931 0,4.4137931 0,0" stroke="none" fill="#000000"></polygon></g></g><g transform="translate(110.344827586207 110.344827586207)"><g clip-path="url(#i2)"><polygon points="0,0 4.4137931,0 4.4137931,4.4137931 0,4.4137931 0,0" stroke="none" fill="#000000"></polygon></g></g><g transform="translate(123.5862068965516 110.344827586207)"><g clip-path="url(#i2)"><polygon points="0,0 4.4137931,0 4.4137931,4.4137931 0,4.4137931 0,0" stroke="none" fill="#000000"></polygon></g></g><g transform="translate(0.0 114.7586206896549)"><g clip-path="url(#i2)"><polygon points="0,0 4.4137931,0 4.4137931,4.4137931 0,4.4137931 0,0" stroke="none" fill="#000000"></polygon></g></g><g transform="translate(8.82758620689674 114.7586206896549)"><g clip-path="url(#i2)"><polygon points="0,0 4.4137931,0 4.4137931,4.4137931 0,4.4137931 0,0" stroke="none" fill="#000000"></polygon></g></g><g transform="translate(13.241379310344659 114.7586206896549)"><g clip-path="url(#i2)"><polygon points="0,0 4.4137931,0 4.4137931,4.4137931 0,4.4137931 0,0" stroke="none" fill="#000000"></polygon></g></g><g transform="translate(17.65517241379303 114.7586206896549)"><g clip-path="url(#i2)"><polygon points="0,0 4.4137931,0 4.4137931,4.4137931 0,4.4137931 0,0" stroke="none" fill="#000000"></polygon></g></g><g transform="translate(26.48275862068976 114.7586206896549)"><g clip-path="url(#i2)"><polygon points="0,0 4.4137931,0 4.4137931,4.4137931 0,4.4137931 0,0" stroke="none" fill="#000000"></polygon></g></g><g transform="translate(35.31034482758605 114.7586206896549)"><g clip-path="url(#i2)"><polygon points="0,0 4.4137931,0 4.4137931,4.4137931 0,4.4137931 0,0" stroke="none" fill="#000000"></polygon></g></g><g transform="translate(52.96551724137953 114.7586206896549)"><g clip-path="url(#i2)"><polygon points="0,0 4.4137931,0 4.4137931,4.4137931 0,4.4137931 0,0" stroke="none" fill="#000000"></polygon></g></g><g transform="translate(57.37931034482745 114.7586206896549)"><g clip-path="url(#i2)"><polygon points="0,0 4.4137931,0 4.4137931,4.4137931 0,4.4137931 0,0" stroke="none" fill="#000000"></polygon></g></g><g transform="translate(61.79310344827582 114.7586206896549)"><g clip-path="url(#i2)"><polygon points="0,0 4.4137931,0 4.4137931,4.4137931 0,4.4137931 0,0" stroke="none" fill="#000000"></polygon></g></g><g transform="translate(75.03448275862047 114.7586206896549)"><g clip-path="url(#i2)"><polygon points="0,0 4.4137931,0 4.4137931,4.4137931 0,4.4137931 0,0" stroke="none" fill="#000000"></polygon></g></g><g transform="translate(79.44827586206884 114.7586206896549)"><g clip-path="url(#i2)"><polygon points="0,0 4.4137931,0 4.4137931,4.4137931 0,4.4137931 0,0" stroke="none" fill="#000000"></polygon></g></g><g transform="translate(101.5172413793102 114.7586206896549)"><g clip-path="url(#i2)"><polygon points="0,0 4.4137931,0 4.4137931,4.4137931 0,4.4137931 0,0" stroke="none" fill="#000000"></polygon></g></g><g transform="translate(114.7586206896549 114.7586206896549)"><g clip-path="url(#i2)"><polygon points="0,0 4.4137931,0 4.4137931,4.4137931 0,4.4137931 0,0" stroke="none" fill="#000000"></polygon></g></g><g transform="translate(123.5862068965516 114.7586206896549)"><g clip-path="url(#i2)"><polygon points="0,0 4.4137931,0 4.4137931,4.4137931 0,4.4137931 0,0" stroke="none" fill="#000000"></polygon></g></g><g transform="translate(0.0 119.1724137931037)"><g clip-path="url(#i2)"><polygon points="0,0 4.4137931,0 4.4137931,4.4137931 0,4.4137931 0,0" stroke="none" fill="#000000"></polygon></g></g><g transform="translate(26.48275862068976 119.1724137931037)"><g clip-path="url(#i2)"><polygon points="0,0 4.4137931,0 4.4137931,4.4137931 0,4.4137931 0,0" stroke="none" fill="#000000"></polygon></g></g><g transform="translate(48.55172413793116 119.1724137931037)"><g clip-path="url(#i2)"><polygon points="0,0 4.4137931,0 4.4137931,4.4137931 0,4.4137931 0,0" stroke="none" fill="#000000"></polygon></g></g><g transform="translate(52.96551724137953 119.1724137931037)"><g clip-path="url(#i2)"><polygon points="0,0 4.4137931,0 4.4137931,4.4137931 0,4.4137931 0,0" stroke="none" fill="#000000"></polygon></g></g><g transform="translate(61.79310344827582 119.1724137931037)"><g clip-path="url(#i2)"><polygon points="0,0 4.4137931,0 4.4137931,4.4137931 0,4.4137931 0,0" stroke="none" fill="#000000"></polygon></g></g><g transform="translate(66.20689655172418 119.1724137931037)"><g clip-path="url(#i2)"><polygon points="0,0 4.4137931,0 4.4137931,4.4137931 0,4.4137931 0,0" stroke="none" fill="#000000"></polygon></g></g><g transform="translate(79.44827586206884 119.1724137931037)"><g clip-path="url(#i2)"><polygon points="0,0 4.4137931,0 4.4137931,4.4137931 0,4.4137931 0,0" stroke="none" fill="#000000"></polygon></g></g><g transform="translate(88.27586206896558 119.1724137931037)"><g clip-path="url(#i2)"><polygon points="0,0 4.4137931,0 4.4137931,4.4137931 0,4.4137931 0,0" stroke="none" fill="#000000"></polygon></g></g><g transform="translate(97.10344827586232 119.1724137931037)"><g clip-path="url(#i2)"><polygon points="0,0 4.4137931,0 4.4137931,4.4137931 0,4.4137931 0,0" stroke="none" fill="#000000"></polygon></g></g><g transform="translate(105.9310344827586 119.1724137931037)"><g clip-path="url(#i2)"><polygon points="0,0 4.4137931,0 4.4137931,4.4137931 0,4.4137931 0,0" stroke="none" fill="#000000"></polygon></g></g><g transform="translate(110.344827586207 119.1724137931037)"><g clip-path="url(#i2)"><polygon points="0,0 4.4137931,0 4.4137931,4.4137931 0,4.4137931 0,0" stroke="none" fill="#000000"></polygon></g></g><g transform="translate(119.1724137931037 119.1724137931037)"><g clip-path="url(#i2)"><polygon points="0,0 4.4137931,0 4.4137931,4.4137931 0,4.4137931 0,0" stroke="none" fill="#000000"></polygon></g></g><g transform="translate(0.0 123.5862068965516)"><g clip-path="url(#i2)"><polygon points="0,0 4.4137931,0 4.4137931,4.4137931 0,4.4137931 0,0" stroke="none" fill="#000000"></polygon></g></g><g transform="translate(4.41379310344837 123.5862068965516)"><g clip-path="url(#i2)"><polygon points="0,0 4.4137931,0 4.4137931,4.4137931 0,4.4137931 0,0" stroke="none" fill="#000000"></polygon></g></g><g transform="translate(8.82758620689674 123.5862068965516)"><g clip-path="url(#i2)"><polygon points="0,0 4.4137931,0 4.4137931,4.4137931 0,4.4137931 0,0" stroke="none" fill="#000000"></polygon></g></g><g transform="translate(13.241379310344659 123.5862068965516)"><g clip-path="url(#i2)"><polygon points="0,0 4.4137931,0 4.4137931,4.4137931 0,4.4137931 0,0" stroke="none" fill="#000000"></polygon></g></g><g transform="translate(17.65517241379303 123.5862068965516)"><g clip-path="url(#i2)"><polygon points="0,0 4.4137931,0 4.4137931,4.4137931 0,4.4137931 0,0" stroke="none" fill="#000000"></polygon></g></g><g transform="translate(22.06896551724139 123.5862068965516)"><g clip-path="url(#i2)"><polygon points="0,0 4.4137931,0 4.4137931,4.4137931 0,4.4137931 0,0" stroke="none" fill="#000000"></polygon></g></g><g transform="translate(26.48275862068976 123.5862068965516)"><g clip-path="url(#i2)"><polygon points="0,0 4.4137931,0 4.4137931,4.4137931 0,4.4137931 0,0" stroke="none" fill="#000000"></polygon></g></g><g transform="translate(35.31034482758605 123.5862068965516)"><g clip-path="url(#i2)"><polygon points="0,0 4.4137931,0 4.4137931,4.4137931 0,4.4137931 0,0" stroke="none" fill="#000000"></polygon></g></g><g transform="translate(44.13793103448279 123.5862068965516)"><g clip-path="url(#i2)"><polygon points="0,0 4.4137931,0 4.4137931,4.4137931 0,4.4137931 0,0" stroke="none" fill="#000000"></polygon></g></g><g transform="translate(52.96551724137953 123.5862068965516)"><g clip-path="url(#i2)"><polygon points="0,0 4.4137931,0 4.4137931,4.4137931 0,4.4137931 0,0" stroke="none" fill="#000000"></polygon></g></g><g transform="translate(57.37931034482745 123.5862068965516)"><g clip-path="url(#i2)"><polygon points="0,0 4.4137931,0 4.4137931,4.4137931 0,4.4137931 0,0" stroke="none" fill="#000000"></polygon></g></g><g transform="translate(70.62068965517255 123.5862068965516)"><g clip-path="url(#i2)"><polygon points="0,0 4.4137931,0 4.4137931,4.4137931 0,4.4137931 0,0" stroke="none" fill="#000000"></polygon></g></g><g transform="translate(83.86206896551721 123.5862068965516)"><g clip-path="url(#i2)"><polygon points="0,0 4.4137931,0 4.4137931,4.4137931 0,4.4137931 0,0" stroke="none" fill="#000000"></polygon></g></g><g transform="translate(88.27586206896558 123.5862068965516)"><g clip-path="url(#i2)"><polygon points="0,0 4.4137931,0 4.4137931,4.4137931 0,4.4137931 0,0" stroke="none" fill="#000000"></polygon></g></g><g transform="translate(97.10344827586232 123.5862068965516)"><g clip-path="url(#i2)"><polygon points="0,0 4.4137931,0 4.4137931,4.4137931 0,4.4137931 0,0" stroke="none" fill="#000000"></polygon></g></g><g transform="translate(105.9310344827586 123.5862068965516)"><g clip-path="url(#i2)"><polygon points="0,0 4.4137931,0 4.4137931,4.4137931 0,4.4137931 0,0" stroke="none" fill="#000000"></polygon></g></g><g transform="translate(119.1724137931037 123.5862068965516)"><g clip-path="url(#i2)"><polygon points="0,0 4.4137931,0 4.4137931,4.4137931 0,4.4137931 0,0" stroke="none" fill="#000000"></polygon></g></g></g></g></g></svg>