<?xml version="1.0" encoding="UTF-8"?>
<svg width="64px" height="64px" viewBox="0 0 64 64" version="1.1" xmlns="http://www.w3.org/2000/svg" xmlns:xlink="http://www.w3.org/1999/xlink">
    <title>icon_retuen</title>
    <g id="页面-1" stroke="none" stroke-width="1" fill="none" fill-rule="evenodd">
        <g id="2.首頁" transform="translate(-202.000000, -811.000000)" fill-rule="nonzero">
            <g id="编组-3" transform="translate(148.000000, 777.000000)">
                <g id="icon_retuen" transform="translate(54.000000, 34.000000)">
                    <rect id="矩形" fill="#000000" opacity="0" x="0" y="0" width="63.7273543" height="63.7273543"></rect>
                    <path d="M38.730849,24.8934978 L8.06892687,24.8934978 C3.63101709,24.8934978 0,28.2989283 0,32.4611211 L0,55.1639911 C0,59.3261839 3.63101709,62.7316144 8.06892687,62.7316144 L38.730849,62.7316144 C43.1687588,62.7316144 46.7997758,59.3261839 46.7997758,55.1639911 L46.7997758,32.4611211 C46.7997758,28.2989283 43.1687588,24.8934978 38.730849,24.8934978 Z M16.1378537,32.7764388 C19.6881816,32.7764388 22.5929952,35.6142975 22.5929952,39.0827915 C22.5929952,40.8170385 21.8667918,42.3936267 20.7371421,43.4972385 C23.3191987,44.9949973 25.0136733,47.7540266 25.0136733,50.907203 L25.0136733,53.7450617 C25.0136733,55.2428205 23.8033343,56.4252617 22.3509274,56.4252617 L9.92478005,56.4252617 C8.47237321,56.4252617 7.26203418,55.2428205 7.26203418,53.7450617 L7.26203418,50.907203 C7.26203418,47.7540266 8.95650883,44.9949973 11.5385654,43.4972385 C10.4089157,42.3936267 9.68271224,40.8170385 9.68271224,39.0827915 C9.68271224,35.6142975 12.5875259,32.7764388 16.1378537,32.7764388 Z M12.910283,39.0827915 C12.910283,37.3485445 14.3626898,35.9296151 16.1378537,35.9296151 C17.9130177,35.9296151 19.3654245,37.3485445 19.3654245,39.0827915 C19.3654245,40.8170385 17.9130177,42.2359679 16.1378537,42.2359679 C14.3626898,42.2359679 12.910283,40.8170385 12.910283,39.0827915 Z M21.7861025,53.2720853 L10.4896049,53.2720853 L10.4896049,50.907203 C10.4896049,47.832856 12.9909723,45.3891443 16.1378537,45.3891443 C19.2847352,45.3891443 21.7861025,47.832856 21.7861025,50.907203 L21.7861025,53.2720853 Z M37.9239563,50.907203 C38.8115382,50.907203 39.5377417,51.6166677 39.5377417,52.4837912 C39.5377417,53.3509147 38.8115382,54.0603794 37.9239563,54.0603794 L31.4688148,54.0603794 C30.5812328,54.0603794 29.8550294,53.3509147 29.8550294,52.4837912 C29.8550294,51.6166677 30.5812328,50.907203 31.4688148,50.907203 Z M37.9239563,43.024262 C38.8115382,43.024262 39.5377417,43.7337267 39.5377417,44.6008502 C39.5377417,45.4679737 38.8115382,46.1774384 37.9239563,46.1774384 L29.8550294,46.1774384 C28.9674475,46.1774384 28.241244,45.4679737 28.241244,44.6008502 C28.241244,43.7337267 28.9674475,43.024262 29.8550294,43.024262 Z M37.9239563,35.141321 C38.8115382,35.141321 39.5377417,35.8507857 39.5377417,36.7179092 C39.5377417,37.5850327 38.8115382,38.2944974 37.9239563,38.2944974 L28.241244,38.2944974 C27.3536621,38.2944974 26.6274587,37.5850327 26.6274587,36.7179092 C26.6274587,35.8507857 27.3536621,35.141321 28.241244,35.141321 Z" id="形状结合" fill="#E60012"></path>
                    <path d="M21.0971916,18.4066565 C21.0971916,18.4066565 32.5351417,7.04869205 39.9347911,0.993191915 L40.0186785,11.4244932 C40.0186785,11.4244932 63.6495654,11.4244932 63.985115,33.2956954 C63.985115,33.2956954 64.4903903,44.2342228 59.6132156,49.7844476 C59.6132156,49.7844476 63.3120649,36.6609459 59.7809904,30.1001705 C59.7809904,30.1001705 56.2499159,18.9958192 40.0186785,23.3696694 L40.1025659,33.6331959 C38.7584166,33.6331959 21.0971916,18.4066565 21.0971916,18.4066565 Z" id="路径" fill="#000000"></path>
                </g>
            </g>
        </g>
    </g>
</svg>