<?xml version="1.0" encoding="UTF-8"?>
<svg width="400px" height="435px" viewBox="0 0 400 435" version="1.1" xmlns="http://www.w3.org/2000/svg" xmlns:xlink="http://www.w3.org/1999/xlink">
    <title>icon_ietm_ok</title>
    <g id="页面-2" stroke="none" stroke-width="1" fill="none" fill-rule="evenodd">
        <g id="7.完成（攜出）" transform="translate(-340.000000, -697.000000)">
            <g id="icon_ietm_ok" transform="translate(340.000000, 697.000000)">
                <g id="icon_box" transform="translate(0.000000, 35.000000)" fill-rule="nonzero">
                    <rect id="矩形" fill="#000000" opacity="0" x="0" y="0" width="400" height="400"></rect>
                    <polygon id="路径" fill="#DCAB78" points="199.401253 400 26.8868518 299.748136 26.3232748 100.241889 198.832689 200.493753"></polygon>
                    <polygon id="路径" fill="#D8A066" points="372.454294 100.251864 373.022858 299.758111 199.401253 400 198.832689 200.493753"></polygon>
                    <polygon id="路径" fill="#9A7956" opacity="0.5" points="199.221706 248.991297 199.111983 200.344131 26.5975822 100.092267 26.7073052 148.739433"></polygon>
                    <polygon id="路径" fill="#7C6145" opacity="0.5" points="199.221706 239.201017 199.111983 200.344131 26.5975822 100.092267 26.7073052 138.949153"></polygon>
                    <polygon id="路径" fill="#DCAB78" points="199.201757 237.699808 199.102009 212.84756 15.9494687 106.406324 16.0043302 131.238622"></polygon>
                    <polygon id="路径" fill="#B48656" points="372.843312 148.644672 372.733589 100.102242 199.111983 200.344131 199.221706 248.886561"></polygon>
                    <polygon id="路径" fill="#7E5D3A" points="372.843312 138.854393 372.733589 100.102242 199.111983 200.344131 199.221706 239.096282"></polygon>
                    <polygon id="路径" fill="#F1C18F" points="199.077072 212.832598 15.9444813 106.411311 200.2541 0 383.381702 106.421286"></polygon>
                    <polygon id="路径" fill="#D8A066" points="383.396665 131.333383 383.38669 106.416299 199.111983 212.812648 199.201757 237.699808"></polygon>
                    <path d="M264.611597,222.712651 C259.64414,225.580409 255.654214,232.52288 255.669134,238.198549 C255.684139,243.909129 259.699001,246.233261 264.666458,243.360515 L307.204051,218.802524 C312.171508,215.934765 316.191358,208.972345 316.176437,203.261764 C316.161433,197.586095 312.116647,195.281913 307.144202,198.149672 L264.611597,222.712651 Z" id="路径" fill="#FFFFFF"></path>
                    <path d="M265.793612,225.420812 C262.447062,227.350939 259.7389,232.044089 259.748848,235.854467 C259.75885,239.699758 262.486962,241.250842 265.833511,239.320715 L306.091859,216.0794 C309.403497,214.164235 312.116647,209.471086 312.106699,205.630782 C312.096697,201.825391 309.368585,200.26932 306.056947,202.184484 L265.793612,225.420812 Z" id="路径" fill="#130D0B"></path>
                </g>
                <g id="编组-2" transform="translate(224.000000, 0.000000)">
                    <circle id="椭圆形" fill="#E60012" cx="75" cy="75" r="75"></circle>
                    <g id="check" transform="translate(32.000000, 32.000000)" fill-rule="nonzero">
                        <rect id="矩形" fill="#000000" opacity="0" x="0" y="0" width="86" height="86"></rect>
                        <path d="M31.9551148,70.1346579 L4.74217121,42.7733628 C3.7526096,41.7844003 3.7526096,40.1361295 4.74217121,39.147167 L8.3705637,35.5209713 C9.36012532,34.5320088 11.0093946,34.5320088 11.9989562,35.5209713 L32.4498956,56.1243562 C33.1096033,56.7836645 34.2640918,56.7836645 34.9237996,56.1243562 L75.0010438,15.7417219 C75.9906054,14.7527594 77.6398747,14.7527594 78.6294363,15.7417219 L82.2578288,19.3679176 C83.2473904,20.3568801 83.2473904,22.0051508 82.2578288,22.9941134 L35.5835073,70.1346579 C34.5939457,71.2884474 32.9446764,71.2884474 31.9551148,70.1346579 Z" id="路径" fill="#FFFFFF"></path>
                    </g>
                </g>
            </g>
        </g>
    </g>
</svg>