<?xml version="1.0" encoding="UTF-8"?>
<svg width="170px" height="170px" viewBox="0 0 170 170" version="1.1" xmlns="http://www.w3.org/2000/svg" xmlns:xlink="http://www.w3.org/1999/xlink">
    <title>icon_mask</title>
    <g id="页面-1" stroke="none" stroke-width="1" fill="none" fill-rule="evenodd">
        <g id="7.人臉辨識" transform="translate(-286.000000, -1309.000000)" fill-rule="nonzero">
            <g id="icon_mask" transform="translate(286.000000, 1309.000000)">
                <rect id="矩形" fill="#DADDDA" x="0" y="0" width="170" height="170" rx="85"></rect>
                <path d="M130.336,66.336 L95.047,66.336 L95.047,103.664 L130.336,103.664 C140.64075,103.664 149,95.3125 149,85.00375 C149,74.6915 140.6405,66.336 130.336,66.336 Z M130.336,98.336 L100.38275,98.336 L100.38275,71.668 L130.33575,71.668 C137.68725,71.668 143.66375,77.6525 143.66375,85.004 C143.66375,92.3515 137.6875,98.336 130.336,98.336 L130.336,98.336 Z M21,85.004 C21,95.3125 29.3555,103.66425 39.668,103.66425 L74.95325,103.66425 L74.95325,66.336 L39.668,66.336 C29.3555,66.336 21,74.69525 21,85.004 Z M69.621,98.336 L39.668,98.336 C32.3165,98.336 26.332,92.3515 26.332,85.004 C26.332,77.6525 32.3165,71.668 39.668,71.668 L69.621,71.668 L69.621,98.336 Z" id="形状" fill="#B3B8C1"></path>
                <path d="M125,109.005401 C125,112.319138 122.6095,115 119.664,115 L50.332,115 C47.38675,115 45,112.319138 45,109.005401 L45,60.9990999 C45,57.6853623 47.38675,55 50.332,55 L119.664,55 C122.60925,55 125,57.6853623 125,60.9990999 L125,109.005401 L125,109.005401 Z" id="路径" fill="#9BD1EB"></path>
                <path d="M119.664,55 L114.336,55 C117.28125,55 119.664,57.6853623 119.664,60.9990999 L119.664,109.005401 C119.664,112.319138 117.28125,115 114.336,115 L119.664,115 C122.60925,115 125,112.319138 125,109.005401 L125,60.9990999 C125,57.6853623 122.6095,55 119.664,55 Z" id="路径" fill="#FFFFFF" opacity="0.2"></path>
                <path d="M49.664,55 L44.336,55 C47.28125,55 49.664,57.6853623 49.664,60.9990999 L49.664,109.005401 C49.664,112.319138 47.28125,115 44.336,115 L49.664,115 C52.60925,115 55,112.319138 55,109.005401 L55,60.9990999 C55,57.6853623 52.6095,55 49.664,55 Z" id="路径备份" fill="#FFFFFF" opacity="0.2" transform="translate(49.668000, 85.000000) scale(-1, 1) translate(-49.668000, -85.000000) "></path>
                <path d="M111.71475,103.664 L58.379,103.664 L58.379,103.67175 C58.3635,103.67175 58.34775,103.664 58.332,103.664 C56.86325,103.664 55.668,104.85925 55.668,106.336 C55.668,107.80475 56.86325,109 58.332,109 L111.715,109 C113.18775,109 114.383,107.80475 114.383,106.336 C114.383,104.8595 113.1875,103.664 111.71475,103.664 L111.71475,103.664 Z M58.3085,98.336 C58.324,98.336 58.33975,98.32825 58.3555,98.32825 L58.3555,98.336 L111.6915,98.336 C113.16425,98.336 114.3595,97.14075 114.3595,95.668 C114.3595,94.19525 113.16425,93.004 111.6915,93.004 L58.3085,93.004 C56.83575,93.004 55.6445,94.1955 55.6445,95.668 C55.6445,97.1405 56.836,98.336 58.3085,98.336 Z" id="形状" fill="#49BAF2"></path>
                <rect id="矩形" fill="#FFFFFF" opacity="0.2" x="65" y="59" width="38" height="4" rx="2"></rect>
            </g>
        </g>
    </g>
</svg>