<?xml version="1.0" encoding="UTF-8"?>
<svg width="170px" height="170px" viewBox="0 0 170 170" version="1.1" xmlns="http://www.w3.org/2000/svg" xmlns:xlink="http://www.w3.org/1999/xlink">
    <title>icon_face</title>
    <g id="页面-1" stroke="none" stroke-width="1" fill="none" fill-rule="evenodd">
        <g id="7.人臉辨識" transform="translate(-624.000000, -1309.000000)" fill-rule="nonzero">
            <g id="icon_face" transform="translate(624.000000, 1309.000000)">
                <rect id="矩形" fill="#DADDDA" x="0" y="0" width="170" height="170" rx="85"></rect>
                <g id="hairstyle-7" transform="translate(38.000000, 38.000000)">
                    <rect id="矩形" fill="#000000" opacity="0" x="0" y="0" width="94" height="94"></rect>
                    <path d="M83.3044266,56.9111382 C79.1344158,53.4078068 78.3209072,45.2993118 77.4676213,36.7099675 C76.6198346,28.2180753 75.7375865,19.4369407 71.7393327,12.3846659 C67.0307712,4.0843807 58.9369285,0.0342547962 46.9922095,0 C35.0575723,0.0344379769 26.9664793,4.0843807 22.2549848,12.3844827 C18.256731,19.4367575 17.3774158,28.2178921 16.532562,36.7097843 C15.6732271,45.2934501 14.8655842,53.4076236 10.6955734,56.910955 L9,58.3333534 L10.6239011,59.8416635 C10.8416677,60.0391323 12.8979858,61.848042 18.4343538,63.5911898 C25.628901,65.8523727 35.2408775,67 46.997892,67 C58.7536233,67 68.3654166,65.8521896 75.560147,63.5911898 C81.0935821,61.848042 83.155766,60.0391323 83.373166,59.8416635 L85,58.3333534 L83.3044266,56.9111382 L83.3044266,56.9111382 Z" id="路径" fill="#343A42"></path>
                    <path d="M80.5946032,70.8241386 L80.2617351,70.7289545 C75.3995094,69.4175901 73.7577642,68.157876 71.587692,67.3336847 C63.9124369,64.3936755 61.9146771,62.2752751 61.4038017,61.2751038 C61.3859884,61.2388709 61.3687792,61.2023416 61.3521815,61.1655313 L61.288988,52.210475 L46.9991733,52 L32.7080728,52.210475 L32.6448793,61.1655313 C32.6276113,61.2029778 32.6162218,61.2404243 32.5960146,61.2751038 C32.0851392,62.2752751 30.0844402,64.3936755 22.4093688,67.3336847 C20.245175,68.1580605 18.6004906,69.4175901 13.7353257,70.7289545 L13.4024576,70.8241386 C8.97634052,72.2969102 6,76.4184202 6,81.0673167 L6,94 L88,94 L88,81.0673167 C88,76.4186047 85.0205365,72.2970947 80.5946032,70.8241386 Z" id="路径" fill="#4FC2E9"></path>
                    <path d="M73,35.3522658 C73,51.8343928 57.2023685,67 47.4977755,67 C37.7944801,67 22,51.8343928 22,35.3522658 C22,18.8699544 33.4180516,8 47.4977755,8 C61.5821338,8 73,18.8699544 73,35.3522658 Z" id="路径" fill="#EAC6BB"></path>
                    <path d="M51.2154039,14.7469427 C51.2504135,14.7754657 54.4102205,17.5352494 59.3449048,20.3120372 C63.3775321,22.583273 69.3831765,25.2944213 76,26 C75.1620031,21.1348162 73.8699981,16.4553976 71.5074055,12.3616149 C66.7237468,4.07677864 58.5011351,0.0341910394 46.3663814,0 C34.2416837,0.0341910394 51.2154039,14.7469427 51.2154039,14.7469427 Z" id="路径" fill="#343A42"></path>
                    <path d="M34.4776355,33.5205391 C40.2948396,30.5714807 46.1149942,26.4654399 51.7839377,21.3265178 C58.7507155,15.0073443 63.7063848,8.75446887 66,5.65841 C61.2748355,1.88422837 54.9418538,0.0201294612 46.8439427,0 C34.8377762,0.0347187037 26.6981899,4.11767519 21.9584575,12.4854368 C17.9362405,19.5951994 17.0516552,28.4479148 16.2017378,37.0090301 C16.1325864,37.6755184 16.0663854,38.3392366 16,39 C22.0853274,38.4951014 28.2886732,36.6598116 34.4776355,33.5205391 L34.4776355,33.5205391 Z" id="路径" fill="#343A42"></path>
                    <polygon id="路径" fill="#FFFFFF" points="25.9980844 29.0385034 5.70280242 29.0296505 12.445619 22.3507114 11.0817311 21 2 29.9939926 11.0938631 39 12.4564739 37.6511857 5.67789997 30.9387318 26 30.9475848"></polygon>
                </g>
            </g>
        </g>
    </g>
</svg>