<?xml version="1.0" encoding="UTF-8"?>
<svg width="286px" height="241px" viewBox="0 0 286 241" version="1.1" xmlns="http://www.w3.org/2000/svg" xmlns:xlink="http://www.w3.org/1999/xlink">
    <title>icon_card_make</title>
    <g id="页面-2" stroke="none" stroke-width="1" fill="none" fill-rule="evenodd">
        <g id="11.借證_卡片印製中" transform="translate(-397.000000, -601.000000)">
            <g id="编组" transform="translate(397.000000, 601.000000)">
                <path d="M262.875,0 C275.558897,0 286,9.75519097 286,22 L286,72 C286,84.244809 275.558897,94 262.875,94 L229.143237,94 L58.6158596,94 L23.125,94 C10.4411028,94 0,84.244809 0,72 L0,22 C0,9.75519097 10.4411028,0 23.125,0 L262.875,0 Z" id="路径" fill="#C4C4C4" fill-rule="nonzero"></path>
                <path d="M262.875,0 C275.558897,0 286,9.75519097 286,22 L286,72 C286,84.244809 275.558897,94 262.875,94 L229.143237,94 L229.143237,82 L262.875,82 C269.106856,82 274,77.428303 274,72 L274,22 C274,16.571697 269.106856,12 262.875,12 L23.125,12 C16.8931445,12 12,16.571697 12,22 L12,72 C12,77.428303 16.8931445,82 23.125,82 L58.6158596,82 L58.6158596,94 L23.125,94 C10.4411028,94 0,84.244809 0,72 L0,22 C0,9.75519097 10.4411028,0 23.125,0 L262.875,0 Z" id="路径备份" fill="#000000" fill-rule="nonzero"></path>
                <rect id="矩形备份-5" fill="#000000" x="40.25" y="28" width="205.5" height="39" rx="10"></rect>
                <path d="M217.767372,31 C224.954534,31 230.974192,36.4422441 231.696493,43.5930181 L250.080331,225.593018 C250.857386,233.285859 245.251033,240.152066 237.558192,240.929121 C237.090685,240.976344 236.621097,241 236.151211,241 L199.774435,241 C196.460726,241 193.774435,238.313708 193.774435,235 C193.774435,231.686292 196.460726,229 199.774435,229 L127,229 C130.313708,229 133,231.686292 133,235 C133,238.313708 130.313708,241 127,241 L51.8487894,241 C44.1168029,241 37.8487894,234.731986 37.8487894,227 C37.8487894,226.530114 37.8724458,226.060525 37.9196687,225.593018 L56.3035071,43.5930181 C57.0258075,36.4422441 63.0454665,31 70.2326278,31 L217.767372,31 Z" id="路径备份-2" fill="#FFFFFF" fill-rule="nonzero"></path>
                <polygon id="矩形备份-4" fill="#E5202F" points="98 37 127 37.5409836 109.20086 229.284243 79.2008602 229.284243"></polygon>
                <polygon id="矩形" fill="#000000" opacity="0.5" points="68 42 220 42 222.533421 70 63.5145674 70"></polygon>
                <path d="M217.767372,31 C224.954534,31 230.974192,36.4422441 231.696493,43.5930181 L250.080331,225.593018 C250.857386,233.285859 245.251033,240.152066 237.558192,240.929121 C237.090685,240.976344 236.621097,241 236.151211,241 L199.774435,241 C196.460726,241 193.774435,238.313708 193.774435,235 C193.774435,231.686292 196.460726,229 199.774435,229 L236.151211,229 C236.218337,229 236.285421,228.996621 236.352208,228.989874 C237.451185,228.878867 238.252093,227.89798 238.141085,226.799003 L219.757247,44.7990026 C219.654061,43.7774634 218.79411,43 217.767372,43 L70.2326278,43 C69.2058905,43 68.3459392,43.7774634 68.2427534,44.7990026 L49.858915,226.799003 C49.8521689,226.865789 49.8487894,226.932873 49.8487894,227 C49.8487894,228.104569 50.7442199,229 51.8487894,229 L205.918209,229 C209.231918,229 211.918209,231.686292 211.918209,235 C211.918209,238.313708 209.231918,241 205.918209,241 L51.8487894,241 C44.1168029,241 37.8487894,234.731986 37.8487894,227 C37.8487894,226.530114 37.8724458,226.060525 37.9196687,225.593018 L56.3035071,43.5930181 C57.0258075,36.4422441 63.0454665,31 70.2326278,31 L217.767372,31 Z" id="路径" fill="#000000" fill-rule="nonzero"></path>
            </g>
        </g>
    </g>
</svg>