<?xml version="1.0" encoding="UTF-8"?>
<svg width="24px" height="24px" viewBox="0 0 24 24" version="1.1" xmlns="http://www.w3.org/2000/svg" xmlns:xlink="http://www.w3.org/1999/xlink">
    <title>icon_progress_check</title>
    <g id="页面-1" stroke="none" stroke-width="1" fill="none" fill-rule="evenodd">
        <g id="7.人臉辨識" transform="translate(-238.000000, -213.000000)" fill-rule="nonzero">
            <g id="icon_progress_check" transform="translate(238.000000, 213.000000)">
                <rect id="矩形" fill="#000000" opacity="0" x="0" y="0" width="24" height="24"></rect>
                <path d="M8.81538462,19.6153846 L1.2,11.9538461 C0.923076914,11.6769231 0.923076914,11.2153846 1.2,10.9384615 L2.21538462,9.92307691 C2.49230769,9.64615383 2.95384615,9.64615383 3.23076923,9.92307691 L8.95384615,15.6923077 C9.13846153,15.8769231 9.46153845,15.8769231 9.64615385,15.6923077 L20.8615385,4.38461538 C21.1384616,4.1076923 21.6,4.1076923 21.8769231,4.38461538 L22.8923077,5.4 C23.1692308,5.67692307 23.1692308,6.13846153 22.8923077,6.41538462 L9.83076923,19.6153846 C9.55384615,19.9384615 9.0923077,19.9384615 8.81538462,19.6153846 Z" id="路径" fill="#FFFFFF"></path>
            </g>
        </g>
    </g>
</svg>