<?xml version="1.0" encoding="UTF-8"?>
<svg width="170px" height="170px" viewBox="0 0 170 170" version="1.1" xmlns="http://www.w3.org/2000/svg" xmlns:xlink="http://www.w3.org/1999/xlink">
    <title>icon_faceid_fail</title>
    <g id="页面-1" stroke="none" stroke-width="1" fill="none" fill-rule="evenodd">
        <g id="8.人臉辨識失敗" transform="translate(-455.000000, -800.000000)" fill-rule="nonzero">
            <g id="编组-15备份-3" transform="translate(210.000000, 670.000000)">
                <g id="icon_faceid_fail" transform="translate(245.000000, 130.000000)">
                    <rect id="矩形" fill="#000000" opacity="0" x="0" y="0" width="170" height="170"></rect>
                    <path d="M140.166992,146.342773 C139.635742,150.244141 138.955078,152.535156 137.925781,153.298828 C137.311523,153.697266 135.983398,154.261719 133.924805,154.660156 C131.916016,155.058594 129.359375,155.623047 126.387695,155.988281 C123.349609,156.552734 120.112305,156.951172 116.459961,157.349609 C112.807617,157.797852 109.12207,158.196289 105.469727,158.511719 C101.701172,158.827148 98.1650391,159.042969 94.7119141,159.242188 C92.0058594,159.408203 77.296875,159.408203 74.6240234,159.242188 C71.1542969,159.042969 67.5849609,158.84375 63.8164063,158.511719 C60.1640625,158.196289 56.4785156,157.78125 52.859375,157.349609 C49.2070313,156.951172 45.9365234,156.536133 42.8984375,155.988281 C39.9267578,155.623047 37.4199219,155.058594 35.3613281,154.660156 C33.3525391,154.261719 32.0078125,153.697266 31.4101563,153.298828 C30.3808594,152.535156 29.6669922,150.244141 29.1689453,146.342773 C28.6376953,142.441406 28.8203125,137.494141 29.7832031,131.417969 C30.1982422,129.077148 30.8789063,127.18457 32.0244141,125.740234 C33.1201172,124.246094 34.53125,123.000977 36.1748047,121.838867 C37.8183594,120.792969 39.6445313,119.913086 41.5371094,119.182617 C43.4794922,118.584961 45.4882813,117.9375 47.6630859,117.290039 C49.671875,116.642578 51.7304688,115.995117 53.6396484,115.28125 C55.5820313,114.517578 57.4082031,113.704102 58.9189453,112.625 C60.8613281,111.379883 62.2724609,110.217773 63.3017578,109.039062 C64.3310547,107.876953 65.0449219,106.748047 65.5429688,105.569336 C65.9248047,104.407227 66.2734375,103.228516 66.2734375,102.066406 C66.2734375,100.821289 66.2734375,99.5761719 66.1572266,97.9658203 C65.9248047,95.9072266 65.2109375,94.0976562 63.9824219,92.8525391 C62.7705078,91.5576172 61.359375,90.2792969 59.8320313,88.9013672 C59.1015625,88.3037109 58.4208984,87.3242188 57.8896484,86.1621094 C57.3251953,85 56.7939453,83.8212891 56.3623047,82.5761719 C55.9804688,81.1650391 55.4492188,79.7207031 55.0673828,78.2265625 C54.453125,78.0273438 53.8056641,77.7119141 53.125,77.2636719 C52.59375,76.8652344 51.9794922,76.1015625 51.3818359,75.2548828 C50.7675781,74.4082031 50.1699219,73.2460938 49.7382813,71.5527344 C49.3232422,69.9755859 49.1240234,68.4980469 49.2402344,67.2529297 C49.3232422,65.9580078 49.6220703,64.7958984 50.0371094,63.75 C50.4521484,62.7041016 50.9501953,61.8242187 51.7802734,60.8115234 C51.7802734,57.2753906 51.9628906,53.8056641 52.2783203,50.1865234 C52.6933594,47.2480469 53.2744141,43.9941406 54.2207031,40.5244141 C55.1005859,37.0546875 56.5449219,33.9667969 58.3710938,31.2275391 C60.1972656,28.6044922 62.1064453,26.5126953 64.1484375,24.9023438 C66.2070313,23.3251953 68.4150391,21.9638672 70.65625,21.0009766 C72.8974609,20.0712891 75.1386719,19.4238281 77.3964844,19.1416016 C79.6376953,18.7763672 81.7294922,18.5771484 83.7880859,18.5771484 C84.0869141,18.5771484 84.4023438,18.5771484 84.6679688,18.6103516 C84.9667969,18.5771484 85.2324219,18.5771484 85.5478516,18.5771484 C87.5566406,18.5771484 89.6982422,18.7763672 91.9394531,19.1416016 C94.1806641,19.4238281 96.3886719,20.0712891 98.6796875,21.0009766 C100.887695,21.9638672 103.128906,23.3417969 105.154297,24.9023438 C107.212891,26.5126953 109.155273,28.6044922 110.981445,31.2275391 C112.774414,33.9667969 114.21875,37.0712891 115.131836,40.5244141 C116.044922,43.9775391 116.65918,47.2480469 117.041016,50.1865234 C117.339844,53.8056641 117.572266,57.2753906 117.572266,60.8115234 C118.369141,61.8242188 118.900391,62.7041016 119.31543,63.75 C119.697266,64.7958984 119.996094,65.9580078 120.112305,67.2529297 C120.228516,68.4980469 119.996094,69.9921875 119.581055,71.5527344 C119.199219,73.2460938 118.584961,74.4082031 117.9375,75.2548828 C117.323242,76.1015625 116.758789,76.8652344 116.227539,77.2636719 C115.49707,77.7119141 114.899414,78.0273438 114.285156,78.2265625 C113.870117,79.7207031 113.338867,81.1650391 112.957031,82.5761719 C112.541992,83.8212891 112.010742,84.9833984 111.429688,86.1621094 C110.931641,87.3242188 110.217773,88.2871094 109.487305,88.9013672 C107.959961,90.2626953 106.56543,91.5576172 105.336914,92.8525391 C104.125,94.0976562 103.427734,95.9072266 103.211914,97.9658203 C103.095703,99.5761719 103.095703,100.821289 103.095703,102.066406 C103.095703,103.228516 103.394531,104.407227 103.776367,105.569336 C104.307617,106.731445 104.988281,107.860352 106.017578,109.039062 C107.080078,110.201172 108.458008,111.379883 110.433594,112.625 C111.960938,113.704102 113.737305,114.517578 115.679688,115.28125 C117.62207,116.011719 119.630859,116.642578 121.689453,117.290039 C123.814453,117.9375 125.839844,118.584961 127.782227,119.182617 C129.724609,119.913086 131.550781,120.792969 133.177734,121.838867 C134.821289,123.000977 136.21582,124.246094 137.328125,125.740234 C138.423828,127.18457 139.121094,129.077148 139.569336,131.417969 C140.46582,137.477539 140.665039,142.424805 140.166992,146.342773 L140.166992,146.342773 Z M53.125,15.9375 C53.125,17.3984375 52.5273437,18.7265625 51.5644531,19.6894531 C50.6015625,20.6523438 49.2734375,21.25 47.8125,21.25 L29.21875,21.25 L29.21875,39.84375 C29.21875,42.7822266 26.8447266,45.15625 23.90625,45.15625 C22.4453125,45.15625 21.1171875,44.5585937 20.1542969,43.5957031 C19.1914062,42.6328125 18.59375,41.3046875 18.59375,39.84375 L18.59375,15.9375 C18.59375,12.9990234 20.9677734,10.625 23.90625,10.625 L47.8125,10.625 C50.7509766,10.625 53.125,12.9990234 53.125,15.9375 Z M53.125,98.28125 C53.125,99.7421875 52.5273437,101.070312 51.5644531,102.033203 C50.6015625,102.996094 49.2734375,103.59375 47.8125,103.59375 L23.90625,103.59375 C20.9677734,103.59375 18.59375,101.219727 18.59375,98.28125 L18.59375,74.375 C18.59375,71.4365234 20.9677734,69.0625 23.90625,69.0625 C25.3671875,69.0625 26.6953125,69.6601562 27.6582031,70.6230469 C28.6210938,71.5859375 29.21875,72.9140625 29.21875,74.375 L29.21875,92.96875 L47.8125,92.96875 C50.7509766,92.96875 53.125,95.3427734 53.125,98.28125 Z M151.40625,74.375 L151.40625,98.28125 C151.40625,101.219727 149.032227,103.59375 146.09375,103.59375 L122.1875,103.59375 C119.249023,103.59375 116.875,101.219727 116.875,98.28125 C116.875,96.8203125 117.472656,95.4921875 118.435547,94.5292969 C119.398437,93.5664062 120.726562,92.96875 122.1875,92.96875 L140.78125,92.96875 L140.78125,74.375 C140.78125,71.4365234 143.155273,69.0625 146.09375,69.0625 C147.554688,69.0625 148.882812,69.6601562 149.845703,70.6230469 C150.808594,71.5859375 151.40625,72.9140625 151.40625,74.375 Z M151.40625,15.9375 L151.40625,39.84375 C151.40625,42.7822266 149.032227,45.15625 146.09375,45.15625 C144.632812,45.15625 143.304688,44.5585937 142.341797,43.5957031 C141.378906,42.6328125 140.78125,41.3046875 140.78125,39.84375 L140.78125,21.25 L122.1875,21.25 C119.249023,21.25 116.875,18.8759766 116.875,15.9375 C116.875,14.4765625 117.472656,13.1484375 118.435547,12.1855469 C119.398437,11.2226563 120.726562,10.625 122.1875,10.625 L146.09375,10.625 C149.032227,10.625 151.40625,12.9990234 151.40625,15.9375 Z" id="形状" fill="#000000"></path>
                    <polygon id="路径" fill="#FC2323" points="121.65625 28.953125 113.15625 19.921875 84.46875 48.609375 56.3125 19.921875 47.8125 28.953125 75.96875 57.109375 47.8125 85.796875 56.3125 94.296875 84.46875 65.609375 113.15625 94.296875 121.65625 85.796875 93.5 57.109375"></polygon>
                </g>
            </g>
        </g>
    </g>
</svg>